<?xml version="1.0" encoding="utf-8"?>
<!-- Generator: Adobe Illustrator 16.0.4, SVG Export Plug-In . SVG Version: 6.00 Build 0)  -->
<!DOCTYPE svg PUBLIC "-//W3C//DTD SVG 1.1//EN" "http://www.w3.org/Graphics/SVG/1.1/DTD/svg11.dtd">
<svg version="1.1" id="图层_1" xmlns="http://www.w3.org/2000/svg" xmlns:xlink="http://www.w3.org/1999/xlink" x="0px" y="0px"
	 width="1280px" height="800px" viewBox="0 0 1280 800" enable-background="new 0 0 1280 800" xml:space="preserve">
<image display="none" overflow="visible" width="1022" height="882" xlink:href="屏幕快照 2017-08-12 17.28.52.png"  transform="matrix(0.941 0 0 0.941 180.6924 593.6738)">
</image>
<image display="none" overflow="visible" width="2530" height="1304" xlink:href="805B7048834EDF28.png"  transform="matrix(0.5 0 0 0.5 14.9355 54.1602)">
</image>
<path fill="none" stroke="#B79955" stroke-miterlimit="10" d="M715.702,442.625c6.63,0,10.039,8.522,4.547,14.392
	c-5.501,5.881-23.86,2.272-21.588-14.392c2.273-12.877,19.382-16.319,30.677-8.332c0,0,22.727,15.149,28.029,18.936
	c5.3,3.788,29.162,19.506,33.328,6.169c3.655-11.694-21.967-7.832-22.726,5.119c-0.756,12.951,14.014,25.26,31.814,15.982
	c20.43-10.649,18.56-43.556-4.545-48.962c-31.917-7.47-46.963,20.177-67.415,56.537c-20.451,36.358-44.691,71.203-87.109,71.203
	c-42.42,0-66.659-33.329-82.566-58.327c-15.907-24.996-38.633-73.261-62.872-71.854c-24.239,1.409-29.729,20.346-29.162,31.14
	c0.567,10.793,10.987,26.97,28.405,23.86c15.907-2.84,17.612-12.498,16.476-22.156c-1.137-9.658-19.295-13.397-22.725-5.681
	c-2.272,5.113,2.841,18.748,31.814-2.273c26.303-19.082,52.267-32.381,60.22-13.065c2.841,10.793-3.409,19.883-13.067,19.883
	c-8.521,0-15.906-9.09-6.568-17.66"/>
</svg>
