<?xml version="1.0" encoding="utf-8"?>
<!-- Generator: Adobe Illustrator 16.0.4, SVG Export Plug-In . SVG Version: 6.00 Build 0)  -->
<!DOCTYPE svg PUBLIC "-//W3C//DTD SVG 1.1//EN" "http://www.w3.org/Graphics/SVG/1.1/DTD/svg11.dtd">
<svg version="1.1" id="图层_1" xmlns="http://www.w3.org/2000/svg" xmlns:xlink="http://www.w3.org/1999/xlink" x="0px" y="0px"
	 width="1280px" height="800px" viewBox="0 0 1280 800" enable-background="new 0 0 1280 800" xml:space="preserve">
<image display="none" overflow="visible" width="1022" height="882" xlink:href="屏幕快照 2017-08-12 17.28.52.png"  transform="matrix(0.941 0 0 0.941 180.6924 593.6738)">
</image>
<image display="none" overflow="visible" width="2530" height="1304" xlink:href="31515A54D96ADD3B.png"  transform="matrix(0.5 0 0 0.5 14.9355 54.1602)">
</image>
<path fill="none" stroke="#B79955" stroke-miterlimit="10" d="M517.509,571.432c7.78-0.362,13.787,12.905,5.877,18.673
	c-14.047,11.338-33.895-11.169-18.87-26.219c15.027-15.057,36.19-1.119,50.168,22.831c13.978,23.952,34.867,45.374,50.041,33.113
	c12.389-11.82-2.454-30.197-28.486-26.524c-26.032,3.673-42.493,13.401-54.861,20.216c-12.373,6.814-41.949,16.458-51.766,13.116
	c-9.815-3.344-11.207-15.229,2.354-14.006c13.562,1.219,21.632,17.896,13.509,29.33c-9.485,13.351-31.074,10.923-38.824,2.842
	c-5.093-5.311-17.277-20.697-1.42-41.961c15.86-21.268,46.741-5.91,46.741-5.91c6.539,4.53,31.374,21.001,19.002,54.988
	c-10.243,28.139-54.105,25.447-54.105,25.447H0"/>
<path fill="none" stroke="#B79955" stroke-miterlimit="10" d="M762.491,571.432c-7.78-0.362-13.786,12.905-5.877,18.673
	c14.048,11.338,33.895-11.169,18.87-26.219c-15.027-15.057-36.19-1.119-50.169,22.831c-13.978,23.952-34.867,45.374-50.041,33.113
	c-12.389-11.82,2.454-30.197,28.486-26.524s42.493,13.401,54.861,20.216c12.372,6.814,41.948,16.458,51.766,13.116
	c9.815-3.344,11.206-15.229-2.354-14.006c-13.562,1.219-21.632,17.896-13.508,29.33c9.484,13.351,31.074,10.923,38.824,2.842
	c5.093-5.311,17.277-20.697,1.42-41.961c-15.861-21.268-46.742-5.91-46.742-5.91c-6.538,4.53-31.373,21.001-19.002,54.988
	c10.244,28.139,54.105,25.447,54.105,25.447H1280"/>
</svg>
