<?xml version="1.0" encoding="UTF-8" standalone="no"?>
<svg
   xmlns:dc="http://purl.org/dc/elements/1.1/"
   xmlns:cc="http://creativecommons.org/ns#"
   xmlns:rdf="http://www.w3.org/1999/02/22-rdf-syntax-ns#"
   xmlns:svg="http://www.w3.org/2000/svg"
   xmlns="http://www.w3.org/2000/svg"
   id="svg163"
   version="1.1"
   viewBox="0 0 107 111"
   height="111mm"
   width="107mm">
  <defs
     id="defs157" />
  <metadata
     id="metadata160">
    <rdf:RDF>
      <cc:Work
         rdf:about="">
        <dc:format>image/svg+xml</dc:format>
        <dc:type
           rdf:resource="http://purl.org/dc/dcmitype/StillImage" />
        <dc:title></dc:title>
      </cc:Work>
    </rdf:RDF>
  </metadata>
  <g
     transform="translate(-105.13688,-6.0000035)"
     id="layer1">
    <path
       id="path14"
       d="m 212.49896,25.215041 c 0,0 -32.10719,28.00641 -39.62903,41.67135 -7.52211,13.66467 -7.89834,20.4343 -6.76963,29.83706 1.12871,9.402259 13.2887,27.203959 35.72907,17.174929 17.67655,-10.78126 10.29176,-30.714449 -1.12818,-33.848439 0,0 -17.17517,-5.51604 -21.43734,9.77847 -1.86505,6.69131 2.34341,13.773419 7.89781,15.419939 7.14164,2.11641 15.85886,-4.13705 11.15087,-12.283039 0,0 -3.62823,-4.64132 -8.70585,-1.75789 -2.06852,1.19062 -0.75195,2.88316 -0.0624,3.19669 0.68897,0.31353 3.94864,-0.12541 2.00554,-6.95775 -1.06495,-3.19696 -4.513,-9.90388 -13.2887,-13.3514 -8.7757,-3.44752 -19.24368,-2.75802 -25.26109,-1.19115 -6.01769,1.56712 -16.29781,6.33095 -18.11523,19.68235 -1.81795,13.351429 9.90335,16.485689 12.28619,16.610839 2.38178,0.12541 14.57748,-1.14961 10.96936,-13.978239 -1.6928,-6.01768 -9.40303,-6.89504 -9.40303,-6.89504"
       stroke-miterlimit="10"
       style="fill:none;stroke:#e1b340;stroke-width:0.26458332;stroke-miterlimit:10" />
    <path
       id="path16"
       d="m 212.49896,22.163871 c 0,0 -31.85637,30.17996 -41.88593,36.07197 -10.02823,5.89227 -35.22742,20.30915 -54.78383,2.38204 -9.15247,-10.15444 -10.28091,-19.05556 -7.89887,-30.08762 2.38231,-11.03207 13.35722,-23.6341733 30.46439,-23.5685633 18.83807,0.072 24.57106,20.0586033 22.56552,30.2130433 -2.00607,10.15418 -7.27128,18.17793 -21.31245,18.5539 -14.04038,0.37598 -20.48854,-14.89498 -14.29174,-24.06993 6.94875,-10.28833 22.94229,-5.14006 22.0644,4.6384 -0.87736,9.77848 -12.41054,9.40224 -13.41358,3.25914 -0.75247,-3.8862 3.13425,-4.76356 4.513,-4.38758"
       stroke-miterlimit="10"
       style="fill:none;stroke:#e1b340;stroke-width:0.26458332;stroke-miterlimit:10" />
  </g>
</svg>
