<?xml version="1.0" encoding="utf-8"?>
<!-- Generator: Adobe Illustrator 21.1.0, SVG Export Plug-In . SVG Version: 6.00 Build 0)  -->
<svg version="1.1" id="图层_1" xmlns="http://www.w3.org/2000/svg" xmlns:xlink="http://www.w3.org/1999/xlink" x="0px" y="0px"
	 viewBox="0 0 841.9 595.3" style="enable-background:new 0 0 841.9 595.3;" xml:space="preserve">
<style type="text/css">
	.st0{fill:#003756;}
	.st1{fill:#4C0000;}
</style>
<path class="st0" d="M422,213c-1.6-1.9-2.3,3-2.2,25.1l0,0L417.2,594l6.3-345.9C423.7,231.5,423.9,215.3,422,213z"/>
<path class="st0" d="M424.2,213.1c-1.6-1.9-2.3,3-2,25.1l0,0l1,355.9l2.9-346C426.1,231.5,426.1,215.3,424.2,213.1z"/>
<path class="st0" d="M428.6,213.1c-1.6-1.9-2.2,3.1-1.3,25.2l0,0l9.8,355.8l-5.8-345.9C430.9,231.5,430.5,215.3,428.6,213.1z"/>
<path class="st0" d="M426.4,213c-1.6-1.9-2.3,3.1-1.6,25.2l0,0l5.6,355.9l-1.6-346C428.5,231.5,428.3,215.2,426.4,213z"/>
<path class="st0" d="M430.9,213c-1.6-1.9-2.2,3.1-1.2,25.2l0,0l11.2,355.7L433.8,248C433.3,231.5,432.8,215.2,430.9,213z"/>
<path class="st0" d="M419.7,212.8c-1.4-1.6-3,10.5-3.4,27.1l0,0L410,593.8L421.6,246C422,229.3,421.1,214.5,419.7,212.8z
	 M418.1,273.7c-0.6-0.7-0.8-10.1-0.5-22.9s1.1-22.6,1.6-21.9s0.8,11.5,0.4,24.2C419.4,266,418.7,274.3,418.1,273.7z"/>
<path class="st0" d="M419.6,212.8c-1.1-1.2-2.2,5.3-2.9,15.8c1,0.2,2,0.3,3,0.5c0,1.4,0,3,0,4.6c0.2,4.4,0.2,11.6-0.1,19.6
	c-0.3,12.8-1,21.1-1.5,20.6c-0.6-0.7-0.8-10.1-0.5-22.9c0.2-6.5,0.4-12.2,0.8-16.2c-0.7-0.1-1.2-0.2-1.9-0.3
	c-0.1,1.7-0.1,3.7-0.2,5.6l-6.3,353.9L421.5,246C421.9,229.2,421.1,214.4,419.6,212.8z"/>
<path class="st1" d="M419.4,229C419.4,229,419.4,228.9,419.4,229L419.4,229L419.4,229c-0.9-0.2-1.7-0.3-2.5-0.4
	c-124.6-18.7-224.1-75.2-286-119.6C63.1,60.3,24.7,15.2,24.4,14.8c-1.1-1.2-2.9-1.3-4-0.4c-1.2,1.1-1.3,2.9-0.4,4.1
	C20.3,19,59,64.4,127.3,113.6c40.2,28.8,82.5,53.3,125.9,72.7c53.2,23.7,108,39.9,163.2,48.1c0.7,0.1,1.2,0.2,1.9,0.3
	c0.5,0.1,1,0.2,1.3,0.2c0-0.5,0-0.9,0-1.2C419.8,230.9,419.6,229.2,419.4,229z"/>
<path class="st0" d="M431.8,245.9l19.1,347.5l-13.9-353.7l0,0c-0.7-16.6-2.5-28.7-3.9-27C431.6,214.4,431,229.2,431.8,245.9z
	 M433.9,253c-0.7-12.7-0.7-23.5-0.1-24.2s1.5,9.1,2.1,21.9c0.6,12.8,0.6,22.2,0,22.9C435.3,274.2,434.4,265.8,433.9,253z"/>
<path class="st0" d="M431.8,245.9l19.1,347.5L437,239.8c-0.1-1.9-0.2-3.8-0.3-5.6c-0.7,0.1-1.2,0.2-1.9,0.3c0.5,4,0.8,9.7,1.1,16.2
	c0.6,12.8,0.6,22.2,0,22.9c-0.6,0.6-1.4-7.8-2-20.5c-0.5-8-0.6-15.2-0.5-19.6c0-1.6-0.1-3.2-0.1-4.6c1-0.2,2-0.3,3-0.5
	c-0.9-10.5-2.2-17-3.2-15.7C431.6,214.3,431.1,229.1,431.8,245.9z"/>
<path class="st1" d="M433.3,233.6c0,0.4,0,0.8,0,1.2c0.4,0,0.9-0.1,1.3-0.2c0.7-0.1,1.2-0.2,1.9-0.3c55-9.4,109.4-26.8,162.1-51.6
	c43-20.3,84.8-45.7,124.4-75.4c67.2-50.6,105-96.9,105.3-97.4c0.9-1.3,0.8-3.1-0.5-4.1c-1.2-0.9-3-0.8-4,0.5
	c-0.4,0.5-37.7,46.4-104.5,96.5C658.6,148.4,560.3,207,436.1,228.4c-0.8,0.1-1.6,0.2-2.5,0.4l0,0l0,0c0-0.1,0,0,0,0
	C433.4,229,433.3,230.8,433.3,233.6z"/>
</svg>
