<?xml version="1.0" encoding="utf-8"?>
<!-- Generator: Adobe Illustrator 16.0.0, SVG Export Plug-In . SVG Version: 6.00 Build 0)  -->
<!DOCTYPE svg PUBLIC "-//W3C//DTD SVG 1.1//EN" "http://www.w3.org/Graphics/SVG/1.1/DTD/svg11.dtd">
<svg version="1.1" xmlns="http://www.w3.org/2000/svg" xmlns:xlink="http://www.w3.org/1999/xlink" x="0px" y="0px"
	 width="1061.788px" height="935.813px" viewBox="0 0 1061.788 935.813" enable-background="new 0 0 1061.788 935.813"
	 xml:space="preserve" id="y3" class="svg">
<style>
        #y3{
            stroke-dasharray: 3000;
            stroke-dashoffset: 3000;
            transition: all 10s linear;
        }
	</style>
	<script>
	window.onload = function(){
		document.getElementsByClassName("svg")[0].style.cssText = "stroke-dashoffset: 0;";
	}
	</script>
<g id="_x30_3火车">
	<path fill="none" stroke="#000000" stroke-width="3" stroke-miterlimit="10" d="M71.975,758.264
		c0,0,495.392-49.908,726.006,103.444"/>
	<path fill="none" stroke="#000000" stroke-width="3" stroke-miterlimit="10" d="M71.975,698.129
		c158.109,3.469,321.513-13.886,321.513-13.886"/>
	
		<line fill="none" stroke="#000000" stroke-width="3" stroke-miterlimit="10" x1="393.487" y1="684.244" x2="853.791" y2="642.618"/>
	
		<line fill="none" stroke="#000000" stroke-width="3" stroke-miterlimit="10" x1="388.771" y1="628.731" x2="853.791" y2="581.315"/>
	<path fill="none" stroke="#000000" stroke-width="3" stroke-miterlimit="10" d="M368.046,378.92
		c-86.887,18.521-296.071,90.211-296.071,90.211"/>
	<path fill="none" stroke="#000000" stroke-width="3" stroke-miterlimit="10" d="M439.753,392.807l375.002-15.884
		c0,0,40.977-179.56-70.84-188.222c0,0-222.476-24.793-294.908,35.248C449.007,223.95,432.81,306.651,439.753,392.807"/>
	
		<line fill="none" stroke="#000000" stroke-width="3" stroke-miterlimit="10" x1="612.538" y1="187.639" x2="617.856" y2="385.392"/>
	<path fill="none" stroke="#000000" stroke-width="3" stroke-miterlimit="10" d="M490.339,139.026
		c-147.779,0-418.364,170.504-418.364,170.504"/>
	
		<line fill="none" stroke="#000000" stroke-width="3" stroke-miterlimit="10" x1="102.043" y1="346.543" x2="101.243" y2="460.212"/>
	<line fill="none" stroke="#000000" stroke-width="3" stroke-miterlimit="10" x1="102.043" y1="346.543" x2="173.75" y2="332.665"/>
	<line fill="none" stroke="#000000" stroke-width="3" stroke-miterlimit="10" x1="173.75" y1="332.665" x2="173.75" y2="438.122"/>
	<line fill="none" stroke="#000000" stroke-width="3" stroke-miterlimit="10" x1="213.507" y1="309.53" x2="213.507" y2="424.026"/>
	<line fill="none" stroke="#000000" stroke-width="3" stroke-miterlimit="10" x1="213.507" y1="309.53" x2="294.028" y2="288.717"/>
	
		<line fill="none" stroke="#000000" stroke-width="3" stroke-miterlimit="10" x1="294.028" y1="288.717" x2="287.781" y2="403.377"/>
	<path fill="none" stroke="#000000" stroke-width="3" stroke-miterlimit="10" d="M575.734,122.213
		c-70.788,9.684-152.944,31.259-182.247,78.601c0,0-53.204,172.327,0,483.43"/>
	<path fill="none" stroke="#000000" stroke-width="3" stroke-miterlimit="10" d="M828.66,159.503
		c-27.05-44.487-142.05-45.633-179.59-44.087"/>
	<path fill="none" stroke="#000000" stroke-width="3" stroke-miterlimit="10" d="M828.66,159.503
		c74.206,137.396,25.131,483.114,25.131,483.114"/>
	
		<line fill="none" stroke="#000000" stroke-width="3" stroke-miterlimit="10" x1="1013.758" y1="751.893" x2="388.771" y2="684.449"/>
	<path fill="none" stroke="#000000" stroke-width="3" stroke-miterlimit="10" d="M727.01,719.739
		c-76.191,4.988-134.513,62.251-134.513,62.251"/>
	<path fill="none" stroke="#000000" stroke-width="3" stroke-miterlimit="10" d="M890.462,736.803
		c-105.197,9.928-194.621,73.191-194.621,73.191"/>
	<path fill="none" stroke="#000000" stroke-width="3" stroke-miterlimit="10" d="M617.856,708.356c0,0-84.136,0-143.261,54.809"/>
	<path fill="none" stroke="#000000" stroke-width="3" stroke-miterlimit="10" d="M490.339,695.045
		c-82.973,17.543-89.4,60.463-89.4,60.463"/>
	
		<line fill="none" stroke="#000000" stroke-width="3" stroke-miterlimit="10" x1="374.594" y1="510.766" x2="509.144" y2="513.083"/>
	
		<line fill="none" stroke="#000000" stroke-width="3" stroke-miterlimit="10" x1="498.576" y1="563.967" x2="379.932" y2="563.967"/>
	
		<line fill="none" stroke="#000000" stroke-width="3" stroke-miterlimit="10" x1="858.127" y1="478.387" x2="769.804" y2="478.387"/>
	<path fill="none" stroke="#000000" stroke-width="3" stroke-miterlimit="10" d="M769.804,478.387
		c-20.104,0-31.669,53.203-31.669,53.203"/>
	<line fill="none" stroke="#000000" stroke-width="3" stroke-miterlimit="10" x1="738.135" y1="531.59" x2="858.127" y2="531.59"/>
	<path fill="none" stroke="#000000" stroke-width="3" stroke-miterlimit="10" d="M371.285,460.212
		c0,0,214.952-37.907,259.292,78.316c0,0,56.67-135.151,223.214-92.526"/>
	<path fill="none" stroke="#000000" stroke-width="3" stroke-miterlimit="10" d="M203.818,720.727
		c0,16.609-13.457,30.075-30.068,30.075c-16.607,0-30.068-13.466-30.068-30.075c0-16.607,13.461-23.133,30.068-23.133
		C185.028,697.594,203.818,698.785,203.818,720.727z"/>
	<path fill="none" stroke="#000000" stroke-width="3" stroke-miterlimit="10" d="M295.505,715.485
		c0,18.074-14.642,32.718-32.711,32.718c-18.063,0-32.71-14.644-32.71-32.718s14.646-18.84,32.71-18.84
		C280.863,696.645,295.505,697.411,295.505,715.485z"/>
	<path fill="none" stroke="#000000" stroke-width="3" stroke-miterlimit="10" d="M797.98,686.997
		c0,13.81-20.375,31.949-54.068,31.949c-33.683,0-54.063-18.133-54.063-31.949s20.37-31.952,54.063-31.952
		C777.605,655.044,797.98,673.18,797.98,686.997z"/>
	<path fill="none" stroke="#000000" stroke-width="3" stroke-miterlimit="10" d="M649.07,117.258
		c0,20.121-16.503,36.432-36.854,36.432c-20.354,0-36.853-16.311-36.853-36.432c0-20.118,16.498-36.429,36.853-36.429
		C632.567,80.83,649.07,97.14,649.07,117.258z"/>
	<path fill="none" stroke="#000000" stroke-width="3" stroke-miterlimit="10" d="M505.094,511.924
		c38.745,19.666,14.084,57.248-14.755,52.043"/>
	<path fill="none" stroke="#000000" stroke-width="3" stroke-miterlimit="10" d="M71.975,469.131"/>
	<path fill="none" stroke="#000000" stroke-width="3" stroke-miterlimit="10" d="M71.975,698.129"/>
	<path fill="none" stroke="#000000" stroke-width="3" stroke-miterlimit="10" d="M910.834,517.812"/>
	<path fill="none" stroke="#000000" stroke-width="3" stroke-miterlimit="10" d="M918.825,457.881"/>
</g>

</svg>
