<svg id="图层_1" data-name="图层 1" xmlns="http://www.w3.org/2000/svg" viewBox="0 0 750 1136"><defs><style>
  .cls-1{fill:#fff;}.cls-2,.cls-3,.cls-4{fill:none;stroke:#fff;stroke-miterlimit:10;}.cls-2{stroke-width:2.83px;}.cls-3{stroke-width:2.78px;}.cls-4{stroke-width:5.56px;}
  <!-- 车 -->
  #_编组_2{
  stroke-dasharray: 1800;
  stroke-dashoffset: 1800;
  -webkit-animation: dash 4.95s 26.85s linear forwards;
  animation: dash 4.95s 26.85s linear forwards;
  }
  <!-- 车独立部分 -->
  #_路径_40,#_路径_41,#_路径_42{
  stroke-dasharray: 1800;
  stroke-dashoffset: 1800;
  -webkit-animation: dash 2.2s 28.5s linear forwards;
  animation: dash 2.2s 28.5s linear forwards;
  }
  #_路径_43,#_路径_44,#_路径_45,#_路径_46,#_路径_47{
  stroke-dasharray: 1800;
  stroke-dashoffset: 1800;
  -webkit-animation: dash 1.7s 28.5s linear forwards;
  animation: dash 1.7s 28.5s linear forwards;
  }
  <!-- 连线 -->
  #line_lian{
  stroke-dasharray: 1800;
  stroke-dashoffset: 1800;
  -webkit-animation: dash 3.2s 32.75s linear forwards;
  animation: dash 3.2s 32.75s linear forwards;
  }
  <!-- 妈妈头 -->
  #ma_head_,#ma_head_2,#ma_head_3,#_路径_22{
  stroke-dasharray: 1000;
  stroke-dashoffset: 1000;
  -webkit-animation: dash 1.95s 33.15s linear forwards;
  animation: dash 1.95s 33.15s linear forwards;
  }
  <!-- 妈妈身 -->
  #ma_body,#ma_body2,#ma_body3{
  stroke-dasharray: 1800;
  stroke-dashoffset: 1800;
  -webkit-animation: dash 2.2s 33.5s linear forwards;
  animation: dash 2.2s 33.5s linear forwards;
  }
  #ma_body4{
  stroke-dasharray: 1800;
  stroke-dashoffset: 1800;
  -webkit-animation: dash 2.2s 33.85s linear forwards;
  animation: dash 2.2s 33.85s linear forwards;
  }
  #_路径_21{
  stroke-dasharray: 1800;
  stroke-dashoffset: 1800;
  -webkit-animation: dash 2.2s 34s linear forwards;
  animation: dash 2.2s 34s linear forwards;
  }
  <!-- 爸爸头 -->
  #bad_head,#_矩形_{
  stroke-dasharray: 1800;
  stroke-dashoffset: 1800;
  -webkit-animation: dash 2s 33.45s linear forwards;
  animation: dash 2s 33.45s linear forwards;
  }
  <!-- 爸爸身 -->
  #bad_body_one{
  stroke-dasharray: 1000;
  stroke-dashoffset: 1000;
  -webkit-animation: dash 1.2s 33.85s linear forwards;
  animation: dash 1.2s 33.85s linear forwards;
  }
  #bad_body{
  stroke-dasharray: 1800;
  stroke-dashoffset: 1800;
  -webkit-animation: dash 2.2s 35s linear forwards;
  animation: dash 2.2s 35s linear forwards;
  }
  <!-- 桌面 -->
  #_路径_18,#_路径_19,#_路径_20{
  stroke-dasharray: 1800;
  stroke-dashoffset: 1800;
  -webkit-animation: dash 2.2s 35s linear forwards;
  animation: dash 2.2s 35s linear forwards;
  }
  #table2{
  stroke-dasharray: 1800;
  stroke-dashoffset: 1800;
  -webkit-animation: dash 1.7s 35.25s linear forwards;
  animation: dash 1.7s 35.25s linear forwards;
  }
  <!-- 桌面鱼 -->
  #_编组_{
  stroke-dasharray: 1800;
  stroke-dashoffset: 1800;
  -webkit-animation: dash 2.2s 35.5s linear forwards;
  animation: dash 2.2s 35.5s linear forwards;
  }
  <!-- 桌里儿子头 -->
  #erzi_head{
  stroke-dasharray: 1800;
  stroke-dashoffset: 1800;
  -webkit-animation: dash 2.2s 35.85s linear forwards;
  animation: dash 2.2s 35.85s linear forwards;
  }
  <!-- 桌里儿子身 -->
  #_路径_10{
  stroke-dasharray: 1800;
  stroke-dashoffset: 1800;
  -webkit-animation: dash 4.2s 36s linear forwards;
  animation: dash 4.2s 36s linear forwards;
  }
  <!-- 桌里儿子手 -->
  #_路径_11{
  stroke-dasharray: 1800;
  stroke-dashoffset: 1800;
  -webkit-animation: dash 2.2s 36.25s linear forwards;
  animation: dash 2.2s 36.25s linear forwards;
  }
  <!-- 桌里儿子手袋 -->
  #_路径_12,#_路径_13,#_路径_14,#_路径_15,#_路径_16,#_路径_17{
  stroke-dasharray: 1800;
  stroke-dashoffset: 1800;
  -webkit-animation: dash 2.2s 36.5s linear forwards;
  animation: dash 2.2s 36.5s linear forwards;
  }
  <!-- 连接下个画面 -->
  #_lian_line_{
  stroke-dasharray: 1000;
  stroke-dashoffset: 1000;
  -webkit-animation: dash 3.45s 38.8s linear forwards;
  animation: dash 3.45s 38.8s linear forwards;
  }
  <!-- 文字 -->
  #_编组_wenzi1{
    opacity:0;
  -webkit-animation:4.2s 26s aniLogo ease-out forwards;
  }
  #_编组_wenzi2{
    opacity:0;
  -webkit-animation:4.2s 26.35s aniLogo2 ease-out forwards;
  }

  @-webkit-keyframes dash {
    to {
      stroke-dashoffset: 0;
    }
  }
  @keyframes dash {
    to {
      stroke-dashoffset: 0;
    }
  }
  @-webkit-keyframes aniLogo {
    0%{
      opacity:0;
      -webkit-transform: translateY(-2500px) translateZ(0);
    }
    60%{
      opacity:0;
      -webkit-transform: translateY(-2500px) translateZ(0);
    }
    62%{
      opacity:1;
      -webkit-transform: translateY(-2500px) translateZ(0);
    }
    100% {
      opacity:1;
      -webkit-transform: translateY(0px) translateZ(0);
    }
  }

  @-webkit-keyframes aniLogo2 {
    0%{
      opacity:0;
      -webkit-transform: translateY(2500px) translateZ(0);
    }
    60%{
      opacity:0;
      -webkit-transform: translateY(2500px) translateZ(0);
    }
    62%{
      opacity:1;
      -webkit-transform: translateY(2500px) translateZ(0);
    }
    100% {
      opacity:1;
      -webkit-transform: translateY(0px) translateZ(0);
    }
  }
</style></defs><title>h5</title>
<line id="_lian_line_" data-name="&lt;路径&gt;" class="cls-2" x1="748" y1="1084" x2="748" y2="1334"/>
<g id="_编组_wenzi1" data-name="&lt;编组&gt;">
<path class="cls-1" d="M600.07,107.83a133.88,133.88,0,0,1-13.42,14.93l1.39,1.45a139,139,0,0,0,13.11-14.49,73.65,73.65,0,0,0,12,15.38l1.45-1.45A70.44,70.44,0,0,1,602.46,108a84,84,0,0,0,10.9-18.84l-1.89-.69a81.62,81.62,0,0,1-10.08,17.64,96.09,96.09,0,0,1-9.33-27.54h12.6a6.61,6.61,0,0,0,4.85-2,6.89,6.89,0,0,0,2-4.85V68.89h-2v2.77a4.73,4.73,0,0,1-1.45,3.47,4.63,4.63,0,0,1-3.4,1.39h-13q-.69-3.78-1.2-8.82l-2,.25q.44,4.35,1.13,8.57h-31v2H590A96.89,96.89,0,0,0,600.07,107.83Z"/><path class="cls-1" d="M566.92,85.84a5.7,5.7,0,0,0-5.67,5.67v12.67a5.81,5.81,0,0,0,5.67,5.67h11.41a5.7,5.7,0,0,0,5.67-5.67V91.51a5.6,5.6,0,0,0-5.67-5.67ZM582,91.51v12.67a3.52,3.52,0,0,1-1.07,2.58,3.39,3.39,0,0,1-2.58,1.07H566.92a3.52,3.52,0,0,1-2.58-1.07,3.43,3.43,0,0,1-1.13-2.58V91.51a3.43,3.43,0,0,1,1.13-2.58,3.52,3.52,0,0,1,2.58-1.07h11.41A3.66,3.66,0,0,1,582,91.51Z"/><polygon class="cls-1" points="588.03 116.53 587.72 114.51 558.29 119.55 558.67 121.57 588.03 116.53"/><rect class="cls-1" x="564.59" y="135.87" width="2.02" height="11.59"/><path class="cls-1" d="M567.3,191.77a5.38,5.38,0,0,0,4,1.7h3.78v-2h-3.78a3.3,3.3,0,0,1-2.58-1.13,3.59,3.59,0,0,1-1.07-2.65V159.19a5.6,5.6,0,0,0-5.73-5.73h-4.54v2h4.54a3.66,3.66,0,0,1,3.72,3.72v28.48A5.69,5.69,0,0,0,567.3,191.77Z"/><polygon class="cls-1" points="595.78 167.88 595.78 146.71 612.8 146.71 612.8 144.69 580.66 144.69 584 137.26 582.11 136.38 577.51 146.71 593.77 146.71 593.77 167.88 574.04 167.88 574.04 169.84 593.77 169.84 593.77 194.92 595.78 194.92 595.78 169.84 615.51 169.84 615.51 167.88 595.78 167.88"/><path class="cls-1" d="M593.21,204.61l-1.38.17a104.58,104.58,0,0,0,1.85,11.74H577.43v-8.17l6.67-1.33-.26-1.38-16,3.18.21,1.38,8-1.59v7.91h-9.5v1.38h9.5v11l-9,4,.56,1.29,8.43-3.78v8.17a3.3,3.3,0,0,1-.95,2.36,3.36,3.36,0,0,1-2.41.95h-3.87v1.38h3.87a4.57,4.57,0,0,0,3.35-1.38,4.52,4.52,0,0,0,1.38-3.31v-8.77l6.79-3.05-.56-1.29-6.24,2.79V217.9H594a89,89,0,0,0,3.91,12.56,62.53,62.53,0,0,1-12,9l.73,1.25a62.47,62.47,0,0,0,11.78-8.81,92.72,92.72,0,0,0,6,12.08l1.2-.73a90.83,90.83,0,0,1-6.15-12.43,42,42,0,0,0,6-7.91l-1.25-.65a38.2,38.2,0,0,1-5.37,7.1,87.4,87.4,0,0,1-3.48-11.44h10.92v-1.38H595.1A104.14,104.14,0,0,1,593.21,204.61Z"/><rect class="cls-1" x="601.55" y="205.17" width="1.38" height="6.92"/><rect class="cls-1" x="581.13" y="260.47" width="1.38" height="30.01"/><path class="cls-1" d="M602.93,288.16a3.23,3.23,0,0,1-2.37,1h-4v1.38h4a4.52,4.52,0,0,0,3.31-1.38,4.59,4.59,0,0,0,1.42-3.35V257.89a4.58,4.58,0,0,0-1.42-3.35,4.52,4.52,0,0,0-3.31-1.38H586.63v1.38h13.93a3.31,3.31,0,0,1,3.35,3.35v27.91A3.14,3.14,0,0,1,602.93,288.16Z"/><polygon class="cls-1" points="568.61 261.71 573.69 256.6 573.69 290.48 575.06 290.48 575.06 253.37 567.62 260.77 568.61 261.71"/><rect class="cls-1" x="581.13" y="252.94" width="1.38" height="4.77"/><rect class="cls-1" x="573.69" y="299.51" width="1.38" height="6.49"/><path class="cls-1" d="M568.18,311.38h16.21a76.93,76.93,0,0,1-14.45,25.07l1,.9a80,80,0,0,0,14.88-26H600a3.31,3.31,0,0,1,2.37.95,3.23,3.23,0,0,1,1,2.37v17.93A3.38,3.38,0,0,1,600,336h-9.8v1.38H600a4.51,4.51,0,0,0,3.31-1.38,4.59,4.59,0,0,0,1.42-3.35V314.69a4.45,4.45,0,0,0-1.42-3.31A4.52,4.52,0,0,0,600,310H586.33a79.53,79.53,0,0,0,2.75-10.58l-1.38-.26A75.65,75.65,0,0,1,584.87,310H568.18Z"/><rect class="cls-1" x="591.92" y="319.98" width="1.38" height="7.01"/><path class="cls-1" d="M589.55,364.66V378.8a3.3,3.3,0,0,1-.95,2.37,3.36,3.36,0,0,1-2.41.95h-8.51v1.38h8.51a4.57,4.57,0,0,0,3.35-1.38,4.52,4.52,0,0,0,1.38-3.31V364.66a5.21,5.21,0,0,1,1.38-3.27l11.14-13.5h-34v1.38h31l-9.24,11.27A6.58,6.58,0,0,0,589.55,364.66Z"/><polygon class="cls-1" points="567.41 431.26 605.51 431.26 605.51 429.89 587.15 429.89 587.15 415.48 603.4 415.48 603.4 414.11 587.15 414.11 587.15 401.76 604.43 401.76 604.43 400.39 587.15 400.39 587.15 392.26 585.77 392.26 585.77 400.39 572.4 400.39 574.16 393.81 572.87 393.46 570.63 401.76 585.77 401.76 585.77 414.11 569.52 414.11 569.52 415.48 585.77 415.48 585.77 429.89 567.41 429.89 567.41 431.26"/><path class="cls-1" d="M592.48,442.57l12.17-.47-.09-1.38-25.58,1,.09,1.38,12-.47v10H577.34V454H591.1v7.57h-8a3.89,3.89,0,0,0-2.79,1.12,3.74,3.74,0,0,0-1.12,2.75v9.29a3.69,3.69,0,0,0,1.12,2.71,3.75,3.75,0,0,0,2.79,1.2h17.46a3.75,3.75,0,0,0,2.8-1.2,3.69,3.69,0,0,0,1.12-2.71v-9.29a3.74,3.74,0,0,0-1.12-2.75,3.89,3.89,0,0,0-2.8-1.12h-8V454h13.76v-1.38H592.48Zm8,20.38a2.46,2.46,0,0,1,1.81.73,2.32,2.32,0,0,1,.73,1.76v9.29a2.57,2.57,0,0,1-2.54,2.54H583.06a2.57,2.57,0,0,1-2.54-2.54v-9.29a2.32,2.32,0,0,1,.73-1.76,2.46,2.46,0,0,1,1.81-.73Z"/><rect class="cls-1" x="569.77" y="452.42" width="1.38" height="8.26"/><rect class="cls-1" x="569.77" y="440.12" width="1.38" height="8.34"/><polygon class="cls-1" points="566.63 478.39 567.88 479.04 575.28 465.19 574.03 464.55 566.63 478.39"/><polygon class="cls-1" points="597.21 496.71 598.5 497.1 601.38 488.28 600.09 487.89 597.21 496.71"/></g>
<g id="_编组_wenzi2" data-name="&lt;编组&gt;">
<path class="cls-1" d="M666.47,92.15,659.38,106l-1.2-.65,7.09-13.89Zm-4-25v8.3h-1.38v-8.3Zm0,12.26v8.26h-1.38V79.38Zm8.21,9,13.16,8.26a31.8,31.8,0,0,0,9.29-10.19H670V85.05h25.5a36.14,36.14,0,0,1-10.36,12.34l11.35,7.05-.73,1.12-11.78-7.35a70.28,70.28,0,0,1-14.41,7.44l-.47-1.29a72.24,72.24,0,0,0,13.63-6.88l-12.69-8ZM697,81.18h-.9a4.7,4.7,0,0,1-4.73-4.73v-4.6a3.3,3.3,0,0,0-3.35-3.35H677.22q-2.71,0-3.35,3.48L672,81.83l-1.38-.26,1.85-9.85q.86-4.6,4.73-4.6h10.84a4.58,4.58,0,0,1,3.35,1.42,4.51,4.51,0,0,1,1.38,3.31v4.6a3.38,3.38,0,0,0,3.35,3.35h.9Z"/><path class="cls-1" d="M666.13,139.15,659.08,153l-1.25-.64,7.1-13.89Zm-4-25.07v8.3H660.8v-8.3Zm0,12.25v8.34H660.8v-8.34Zm21.2-13V119H696.1v1.38H683.37v11.52h14v1.38H677l-4.82,17.89H690.9a3.38,3.38,0,0,0,3.35-3.35v-7.57h1.38v7.57a4.59,4.59,0,0,1-1.42,3.35,4.51,4.51,0,0,1-3.31,1.38H670.43l5.16-19.26H668v-1.38h14V120.36H669.36V119H682V113.3Z"/><path class="cls-1" d="M692.06,161.33l-2.62,5h2.49a3.82,3.82,0,0,1,3.91,3.91v3.05h-1.38v-3.05a2.5,2.5,0,0,0-2.54-2.54H663.25a2.31,2.31,0,0,0-1.76.73,2.45,2.45,0,0,0-.73,1.81v3.05h-1.38v-3.05a3.89,3.89,0,0,1,1.12-2.79,3.74,3.74,0,0,1,2.75-1.12h2.54l-2.62-5,1.25-.64,2.92,5.63h9.59v-6.15h1.38v6.15h9.59l2.92-5.63Zm-31.39,36V189a3.81,3.81,0,0,1,1.16-2.79,3.69,3.69,0,0,1,2.71-1.12h12.38V181H668a3.74,3.74,0,0,1-2.75-1.12,3.88,3.88,0,0,1-1.12-2.79v-1.63a3.88,3.88,0,0,1,1.12-2.79,3.74,3.74,0,0,1,2.75-1.12H687.2a3.82,3.82,0,0,1,3.91,3.91v1.63A3.82,3.82,0,0,1,687.2,181h-8.9v4.08h12.34a3.89,3.89,0,0,1,3.91,3.91v4.6a3.74,3.74,0,0,1-1.12,2.75,3.81,3.81,0,0,1-2.79,1.16l-1.94,0v-1.38l1.94,0a2.3,2.3,0,0,0,1.81-.77,2.4,2.4,0,0,0,.73-1.76V189a2.5,2.5,0,0,0-2.54-2.54H678.3v14.06h-1.38V186.49H664.54a2.31,2.31,0,0,0-1.76.73A2.45,2.45,0,0,0,662,189v8.3Zm26.53-17.67a2.5,2.5,0,0,0,2.54-2.54v-1.63a2.5,2.5,0,0,0-2.54-2.54H668a2.31,2.31,0,0,0-1.76.73,2.45,2.45,0,0,0-.73,1.81v1.63a2.45,2.45,0,0,0,.73,1.81,2.31,2.31,0,0,0,1.76.73Z"/><path class="cls-1" d="M658.09,217.41l7.87-7.57v37.5h-1.38V213.06l-5.5,5.33ZM684,207.6v18.58h13.16v1.38H684v9.63h13v1.38H684v8.73H682.6v-8.73h-13v-1.38h13v-9.63h-13v-1.38h13V207.6Zm-11.48,2.71,3.44,11.74-1.29.39L671.2,210.7Zm22.66.65A27.65,27.65,0,0,1,689.91,223l-1.16-.82a27.15,27.15,0,0,0,5-11.52Z"/><path class="cls-1" d="M666.3,266.81l13.46,11.65a47.35,47.35,0,0,0,8-12.21l1.29.56a45.72,45.72,0,0,1-8.17,12.6l15.27,13.16-.86,1-15.35-13.2a58.5,58.5,0,0,1-20.42,13.33l-.47-1.29a55.47,55.47,0,0,0,19.82-13L665.4,267.85Zm4.21-11.57a44.71,44.71,0,0,1-10,15l-.95-1a42.29,42.29,0,0,0,9.63-14.45Zm14.66-.34,9.59,14.71-1.16.73L684,255.63Z"/><path class="cls-1" d="M659.08,321.55h4.26V308.14a4.52,4.52,0,0,1,1.38-3.31,4.59,4.59,0,0,1,3.35-1.42h19.09a4.85,4.85,0,0,1,4.73,4.73v13.42h4.26v1.38h-4.26v12.73a4.59,4.59,0,0,1-1.42,3.35,4.52,4.52,0,0,1-3.31,1.38H668.07a4.7,4.7,0,0,1-4.73-4.73V322.93h-4.26Zm5.63,0h25.8V308.14a3.38,3.38,0,0,0-3.35-3.35H668.07a3.38,3.38,0,0,0-3.35,3.35ZM687.16,339a3.38,3.38,0,0,0,3.35-3.35V322.93h-25.8v12.73a3.38,3.38,0,0,0,3.35,3.35ZM674.9,308.78l6.28,9.85-1.12.73-6.32-9.89Zm0,16.68,6.28,9.85-1.12.73-6.32-9.85Z"/><path class="cls-1" d="M672.79,348.9q-.39,2.71-.9,5.33h24.94v1.38h-25.2a105.84,105.84,0,0,1-2.75,11.05h26.23V368h-13.2V386.1H697v1.38H665.4V386.1h15.14V368H668.45a83.64,83.64,0,0,1-9.16,19.52l-1.12-.73q8.43-13.11,12-31.22H658.13v-1.38h12.34q.39-1.94.95-5.5Z"/><path class="cls-1" d="M674.26,396.37q-.86,2.32-2.15,5.07h25.24v1.33H671.46a67.19,67.19,0,0,1-12.38,17.76l-.95-.95A63.2,63.2,0,0,0,670,402.78H657.87v-1.33H670.6q1.12-2.32,2.37-5.55Zm-5,39a4.7,4.7,0,0,1-4.73-4.73V417.23a4.51,4.51,0,0,1,1.38-3.31,4.59,4.59,0,0,1,3.35-1.42h19.65a4.85,4.85,0,0,1,4.73,4.73v13.42a4.58,4.58,0,0,1-1.42,3.35,4.52,4.52,0,0,1-3.31,1.38ZM688.92,434a3.22,3.22,0,0,0,2.37-1,3.14,3.14,0,0,0,1-2.37V417.23a3.38,3.38,0,0,0-3.35-3.35H669.27a3.38,3.38,0,0,0-3.35,3.35v13.42a3.13,3.13,0,0,0,1,2.37,3.22,3.22,0,0,0,2.37,1Z"/><path class="cls-1" d="M692.53,444.49l-2.88,8.82-1.29-.39,2.88-8.82Z"/><path class="cls-1" d="M689.78,518.28H659V516.9h30.75Zm6.36-22H665L663.59,507h26.88a4.52,4.52,0,0,1,3.31,1.38,4.59,4.59,0,0,1,1.42,3.35v11.7a4.58,4.58,0,0,1-1.42,3.35,4.51,4.51,0,0,1-3.31,1.38H672.19v-1.38h18.28a3.38,3.38,0,0,0,3.35-3.35v-11.7a3.31,3.31,0,0,0-3.35-3.35H662l2.45-18.15,1.38.17-.6,4.51h31Z"/><path class="cls-1" d="M696.45,556.55,686,564.16l10.66,10.11-1,1-15.78-15a2.29,2.29,0,0,1,0,.52l0,9.85a6.12,6.12,0,0,1-1.85,4.64,6.34,6.34,0,0,1-4.56,1.68V575.6a5.23,5.23,0,0,0,3.61-1.33,4.72,4.72,0,0,0,1.42-3.61l0-4.38q-6.49,6.19-19.82,8.6l-.26-1.37q14.66-2.58,20.08-9.16V560.8a5.48,5.48,0,0,0-.77-2.79q-6.36,7.91-19,10.54l-.26-1.38A38.3,38.3,0,0,0,669.4,563a24.4,24.4,0,0,0,7.57-6.11,7.32,7.32,0,0,0-4.82-2,35.85,35.85,0,0,1-13.33,6.23l-.34-1.38q11.31-2.84,16-9H660.11v-1.37h35.6v1.38H676.06a16,16,0,0,1-2.54,2.92,7.56,7.56,0,0,1,5.76,4.09l5.72,5.46,10.62-7.78Zm-1.55-9.63v-2.49a2.55,2.55,0,0,0-.73-1.81,2.46,2.46,0,0,0-1.81-.73H663.42a2.46,2.46,0,0,0-1.81.73,2.55,2.55,0,0,0-.73,1.81v2.49h-1.38v-2.49a3.89,3.89,0,0,1,3.91-3.91h13.8v-3.78h1.38v3.78h13.76a3.89,3.89,0,0,1,3.91,3.91v2.49Z"/><path class="cls-1" d="M678.47,585.27q-.77,4.65-1.85,8.73L697,622.17l-1.12.82-19.69-27.22a57.34,57.34,0,0,1-17,27.35l-.86-1.07q14.88-13.24,18.83-37Z"/><path class="cls-1" d="M692.06,631.76l-2.62,5h2.49a3.82,3.82,0,0,1,3.91,3.91v3.05h-1.38v-3.05a2.5,2.5,0,0,0-2.54-2.54H663.25a2.32,2.32,0,0,0-1.76.73,2.46,2.46,0,0,0-.73,1.81v3.05h-1.38v-3.05a3.88,3.88,0,0,1,1.12-2.79,3.74,3.74,0,0,1,2.75-1.12h2.54l-2.62-5,1.25-.65,2.92,5.63h9.59v-6.15h1.38v6.15h9.59l2.92-5.63Zm-31.39,36v-8.3a3.81,3.81,0,0,1,1.16-2.79,3.69,3.69,0,0,1,2.71-1.12h12.38v-4.09H668a3.74,3.74,0,0,1-2.75-1.12,3.88,3.88,0,0,1-1.12-2.79V645.9a3.88,3.88,0,0,1,1.12-2.79A3.74,3.74,0,0,1,668,642H687.2a3.82,3.82,0,0,1,3.91,3.91v1.63a3.82,3.82,0,0,1-3.91,3.91h-8.9v4.09h12.34a3.89,3.89,0,0,1,3.91,3.91V664a3.74,3.74,0,0,1-1.12,2.75,3.81,3.81,0,0,1-2.79,1.16l-1.94,0v-1.37l1.94,0a2.3,2.3,0,0,0,1.81-.78,2.4,2.4,0,0,0,.73-1.76v-4.6a2.5,2.5,0,0,0-2.54-2.54H678.3V671h-1.38V656.91H664.54a2.32,2.32,0,0,0-1.76.73,2.45,2.45,0,0,0-.73,1.81v8.3Zm26.53-17.67a2.5,2.5,0,0,0,2.54-2.54V645.9a2.5,2.5,0,0,0-2.54-2.54H668a2.32,2.32,0,0,0-1.76.73,2.45,2.45,0,0,0-.73,1.81v1.63a2.45,2.45,0,0,0,.73,1.8,2.31,2.31,0,0,0,1.76.73Z"/><path class="cls-1" d="M673.87,698v-3.53l-15.74.95-.09-1.37,3.48-.21V680.78h-3V679.4h19.65v1.38h-3V693l3.7-.26.09,1.38-3.78.26V698Zm3,20v-7.44q-7,4.26-18.45,5.72l-.17-1.37q11.82-1.55,18.62-5.89v-4.86q-6.84,4.13-18.32,5.55l-.13-1.33q11.65-1.46,18.45-5.8v-1.55H660v-1.37l33.63,0V701l-15.44,0v.56l8.17,6.06,9.12-4.56.65,1.25-8.51,4.21,9.5,7.05-.82,1.12-18.1-13.42v14.71ZM662.91,684h11v-3.22h-11Zm0,4.69h11v-3.31h-11Zm0,5.07,11-.64v-3.05h-11Zm18.83-10.58,7.14,6.11a20.73,20.73,0,0,0,5.55-8.69h-14.1v-1.38h15.82a22.94,22.94,0,0,1-6.24,10.92l7.18,6.15-.9,1.07-7.31-6.28a40.83,40.83,0,0,1-8.9,5.8l-.65-1.25a40.83,40.83,0,0,0,8.51-5.42l-7-6Z"/><path class="cls-1" d="M694.68,727.64a4.37,4.37,0,0,1,1.29,3.14,4.23,4.23,0,0,1-1.29,3.1,4.43,4.43,0,0,1-7.53-3.1,4.3,4.3,0,0,1,1.33-3.14,4.36,4.36,0,0,1,6.19,0Zm-5.25,1a3,3,0,0,0,0,4.3,2.84,2.84,0,0,0,2.15.9,2.93,2.93,0,0,0,2.15-.9,3.12,3.12,0,0,0,0-4.3,2.93,2.93,0,0,0-2.15-.9A2.84,2.84,0,0,0,689.44,728.63Z"/></g>
<g id="_编组_" data-name="&lt;编组&gt;"><path id="_路径_" data-name="&lt;路径&gt;" class="cls-2" d="M497.18,973.52c-38.48,0-69.67-16.49-69.67-36.83s31.19-36.83,69.67-36.83a128.7,128.7,0,0,1,19.1,1.4"/><path id="_路径_2" data-name="&lt;路径&gt;" class="cls-2" d="M519.84,944.44c-15.39,4.41-38.49,5.95-59-.59"/><path id="_路径_3" data-name="&lt;路径&gt;" class="cls-2" d="M446.52,925.86c-.65-6.84,10.33-5.33,13.67,0s2.67,23.8-6.33,22.4,1.84-7.4.42-15.4S447.18,932.86,446.52,925.86Z"/><path id="_路径_4" data-name="&lt;路径&gt;" class="cls-2" d="M482.52,912.52c8.67,8.33,6.42,23.67,3.21,26.33"/><line id="_路径_5" data-name="&lt;路径&gt;" class="cls-2" x1="470.85" y1="921.27" x2="476.52" y2="921.27"/><path id="_路径_6" data-name="&lt;路径&gt;" class="cls-2" d="M494.85,916.86a30.54,30.54,0,0,1,15.5,16.67"/><path id="_路径_7" data-name="&lt;路径&gt;" class="cls-2" d="M517.73,921.27c4.46,2.25,5.46,9.25,5.46,9.25"/><line id="_路径_8" data-name="&lt;路径&gt;" class="cls-2" x1="494.85" y1="930.52" x2="527.85" y2="925.19"/><path id="_路径_9" data-name="&lt;路径&gt;" class="cls-2" d="M493.52,921.27c6.67-3.75,17.83-5.75,17.83-5.75"/></g>
<g id="erzi_head" data-name="&lt;编组&gt;">
<path class="cls-2" d="M659.13,801a18.81,18.81,0,0,0-3-.06c-10.58.44-34.14,6.15-58,.16,3,12.54,9.48,22.84,17,29.11A29.72,29.72,0,0,0,625.79,836s35.95,6.51,45.45,23.51,15.29,61.06,32.5,59.5c0,3.5,6.29,8,6.29,8"/>
<path class="cls-2" d="M656.15,800.92a60.11,60.11,0,0,1,18.89-.75l5.2.62a61,61,0,0,1,53.29,67.56l-3.26,27.6c-2.1,17.77-13,28.85-28.38,35.51"/>
<path class="cls-2" d="M628,933.53c-18.23-9.17-26.37-31-23.83-52.47l3.26-27.6a60.27,60.27,0,0,1,7.75-23.27"/></g>
<rect id="_矩形_" data-name="&lt;矩形&gt;" class="cls-2" x="438.69" y="768.42" width="53.5" height="35" transform="translate(754.99 1652.22) rotate(-167.85)"/><path id="_路径_10" data-name="&lt;路径&gt;" class="cls-2" d="M573.24,974.06s19.86-4.89,34.5-21.5c22.5-25.54,37.5-29.79,55-30s59.5-8.5,63.5,83-22,81-22,81H818.71"/><path id="_路径_11" data-name="&lt;路径&gt;" class="cls-2" d="M615.24,991.06c-13,6-37.5,18.5-56.5,10s-23.5-48.5-23.5-48.5,8-10.5,20.5-9.5a208.26,208.26,0,0,0,28.61,26.79"/><path id="_路径_12" data-name="&lt;路径&gt;" class="cls-2" d="M555.74,943.06c1.5-14.5-6.5-21.06-13.5-20.78s-20,8.28-19,13.28,7,2.67,7,2.67,6.13-4.83,9.31,0-6.81,7.83-6.81,7.83l2.5,6.5"/><path id="_路径_13" data-name="&lt;路径&gt;" class="cls-2" d="M526.77,938.75c-11.28,8.31-18,21.56-16.53,27.31s9.25,0,9.25,0,6.24-15.57,13.25-20"/><path id="_路径_14" data-name="&lt;路径&gt;" class="cls-2" d="M512.25,956.17l-6.51-3.61-19.75,57s8.5,19.75,33.25,15.25c5-35.79,7-60,7-60l-4.85-3"/><line id="_路径_15" data-name="&lt;路径&gt;" class="cls-2" x1="505.74" y1="952.56" x2="517.56" y2="947.7"/><line id="_路径_16" data-name="&lt;路径&gt;" class="cls-2" x1="526.24" y1="964.81" x2="535.24" y2="960.81"/><path id="_路径_17" data-name="&lt;路径&gt;" class="cls-2" d="M519.24,1024.81s22.25-4.75,30-10.75l7.75-6-2.06-9.25"/><path id="_路径_18" data-name="&lt;路径&gt;" class="cls-2" d="M493.88,876.7c-69.33,9.09-121.31,46.79-121.31,91.91,0,51.91,68.8,94,153.67,94a236.21,236.21,0,0,0,67.83-9.63l1.67-1.43,8.1-55.32"/><path id="_路径_19" data-name="&lt;路径&gt;" class="cls-2" d="M603.86,887.47c-22.78-8.17-49.3-12.85-77.62-12.85"/><path id="_路径_20" data-name="&lt;路径&gt;" class="cls-2" d="M489.74,873.39c7.67,10.83,27.83,30.5,43,36"/><ellipse id="_路径_21" data-name="&lt;路径&gt;" class="cls-2" cx="327.49" cy="891.13" rx="15.25" ry="14.43"/><path id="_路径_22" data-name="&lt;路径&gt;" class="cls-2" d="M251.58,722.51c5.67,6.71,14.33,9.38,14.33,9.38"/>
<g id="table2" data-name="&lt;编组&gt;">
<path class="cls-2" d="M558.43,919.12c5.37,5.23,8.42,11.21,8.42,17.57a22.63,22.63,0,0,1-5.1,13.87"/><path class="cls-2" d="M453.85,922.53c21-25.67,69.67-13,79,0,1.5-3.38,1.83-4.29,3.76-5.93"/>
</g>
<g id="bad_head" data-name="&lt;编组&gt;">
<path class="cls-2" d="M540.54,784.2l1.4-6.5a60.06,60.06,0,0,0,1.31-15.08,61.09,61.09,0,0,0-48-57.22l-5.11-1.1A61,61,0,0,0,417.86,751L413.7,770.3"/>
<path class="cls-2" d="M407.92,798.64A47.59,47.59,0,0,0,409.65,817a48.49,48.49,0,0,0,36.24,33.78l29.43,6.34A48.56,48.56,0,0,0,532.84,820l.34-1.56"/>
<polygon class="cls-2" points="509.92 795.5 506.24 812.62 533.18 818.41 546.81 821.35 554.17 787.13 540.54 784.2 513.6 778.39 509.92 795.5"/><line class="cls-2" x1="509.92" y1="795.51" x2="491.59" y2="791.56"/><path class="cls-2" d="M512,835.49l-.42,2a2.85,2.85,0,0,1-3.37,2.18l-11.41-2.46a10.21,10.21,0,0,1-6.42-4.44,10.2,10.2,0,0,1-7.69,1.4l-11.4-2.45a2.85,2.85,0,0,1-2.17-3.37l.66-3.09A14.55,14.55,0,0,1,487,814.1a10.23,10.23,0,0,1,6.42,4.45,10.79,10.79,0,0,1,1.29-.71,10.17,10.17,0,0,1,6.4-.7,14.54,14.54,0,0,1,11.12,17.23Z"/><path class="cls-2" d="M543.26,762.62h0c-18.07-2.44-73.94-15-86.51-21.27,0,0-17.16-4-21.17,5.16S430,778.3,430,778.3"/><path class="cls-2" d="M421,803.47a53,53,0,0,1-13.08-4.83c-5.69-3.21-10.21-8.13-8.58-15.69,2.09-9.7,8.79-12.42,14.36-12.65a19.45,19.45,0,0,1,5.62.58c5.33,1.41,10.61,8.94,10.61,8.94"/></g>
<path class="cls-2" id="ma_body" d="M311.36,913.43a11.27,11.27,0,0,0,2.35-6.1c.75-6.25-14.25-9.25-14.25-9.25l1.76-6.43a25.34,25.34,0,0,0-5.59-.75c-2.77,0-5.79.58-7.8,2.8-2.52,2.78-3.13,12.29.94,18.23a10.91,10.91,0,0,0,8.22,4.9C304.77,917.61,309,916.15,311.36,913.43Z"/><path class="cls-2" id="ma_body2" d="M299.78,890.9c-.78-.25-1.73-.49-2.83-.76-8.74-2-27-5-43.43-19.81-11.09-10-9.33-30-9.33-30"/><path class="cls-2" id="ma_body3" d="M288.77,911.93c-15.58-2.6-39-7.58-49.25-14.27-7.66-5-11-14.67-11-14.67"/>
<g id="bad_body" data-name="&lt;编组&gt;">
<path class="cls-2" d="M516.57,846.85a37.42,37.42,0,0,1,.85,5.31,39.87,39.87,0,0,0,1.66,8.8c2.28,7.07,7.49,19.56,18,29.38a7.73,7.73,0,0,1-1.1,12.2c-.25.16-.49.34-.72.52-5.5,4.5-1,12.57,4.32,16s23.68,1,24.68-6.51-7.25-10.5-7.25-10.5,9.78-2.11,7.34-7c-2.59-5.17-12.09-7.5-24.09-.5"/>
</g>
<path id="bad_body_one" class="cls-2" d="M389,877.66V856.35A48,48,0,0,1,409.65,817"/>
<g id="ma_body4" data-name="&lt;编组&gt;">
<polyline class="cls-2" points="389.04 889.45 389.04 889.09 389.04 888.48"/><path class="cls-2" d="M295.63,890.9l1.32-.76a63.27,63.27,0,0,1,15.29-5.37"/><path class="cls-2" d="M389,888.48l.84.36c6.52,2.92,10.36,6.5,10.36,10.37,0,9.83-24.84,17.81-55.5,17.81a144.71,144.71,0,0,1-33.38-3.59"/><path class="cls-2" d="M365.66,882.7l1.78.25c1.22.17,2.42.36,3.59.56"/><path class="cls-2" d="M320.74,878.19c16-8.14,40-7.91,45.75,2.85.34.64.66,1.28.95,1.91a29.28,29.28,0,0,1,1.88,5.09c1.32,5.07.67,9.73-3.24,13.09-2.34,2-5.86,3.55-10.84,4.43-17,3-27.75,0-27.75,0"/><path class="cls-2" d="M366.08,901.13a16.62,16.62,0,0,0,5,5.1c3.36,2.16,11.88,2,18-.31,3.58-1.34,6.33-3.42,6.7-6.2.84-6.32-4.88-9.44-6.7-10.27-.35-.16-.55-.23-.55-.23l.55-.13c.22-.06.51-.14.84-.25,2.6-.79,7.8-2.9,5.95-6.62-1.11-2.21-3.49-3.9-6.79-4.56-4.4-.89-10.44.06-17.3,4.06"/><path class="cls-2" d="M330.49,808c10.13,7.85,17.35,18.84,18.43,31.3a39.87,39.87,0,0,0,1.66,8.8c2.28,7.07,7.49,19.56,18,29.38a7.74,7.74,0,0,1,.76,10.54"/><path class="cls-2" d="M220.54,896.67V843.51a48,48,0,0,1,20.27-39.12"/></g>
<path id="ma_head_2" class="cls-2" d="M227.46,785.6a48.75,48.75,0,0,0,13.35,18.79,48.17,48.17,0,0,0,30.56,11.86l30.09.69A48.56,48.56,0,0,0,351,769.64l1-43.24a60.25,60.25,0,0,0-6.62-28.91,61.5,61.5,0,0,0-18.6-21.75"/><path id="ma_head_" class="cls-2" d="M332.43,680.44q-2.87-2.51-5.69-4.7c-42-32.53-77.86-14.19-93.5.49-30,23.66-56.66,103.3-19.33,110.65a21.35,21.35,0,0,0,13.55-1.28c4.57-2.15,8.1-6.11,10.86-11.17,4.37-8,6.86-18.64,8.63-29.29.56-3.36,1-6.71,1.5-10,1.53-11.07,2.65-21.11,4.79-26.72a15,15,0,0,1,.67-1.55c3.22-6.45,10.19-14.56,20-20.91a62.94,62.94,0,0,1,29.68-10.25A64.11,64.11,0,0,1,332.43,680.44Z"/><g id="ma_head_3" data-name="&lt;编组&gt;"><path class="cls-2" d="M238.32,774.43c6.59,5.46,17.26,1.46,17.26,1.46"/><path class="cls-2" d="M246.95,745.14c6.6-.91,8.63,10.09,8.63,10.09"/><path class="cls-2" d="M253.24,708.44c11.34,9.45,28.67,14.08,28.67,14.08"/><path class="cls-2" d="M248.45,735.16a19.7,19.7,0,0,0,10.2,5.34"/><path class="cls-2" d="M273.86,686c11.38,4.91,23.72,20.58,23.72,20.58"/><path class="cls-2" d="M303.54,675.73c12.7,8.83,15.37,20.54,15.37,20.54"/><path class="cls-2" d="M332.43,680.44a146.43,146.43,0,0,1,3.81,17.79"/><line class="cls-2" x1="344.74" y1="702.94" x2="345.34" y2="697.49"/><path class="cls-2" d="M316.24,786.88a23.81,23.81,0,0,0-10.27,9.8,19.3,19.3,0,0,0-2.43,9.21"/><path id="_路径_23" data-name="&lt;路径&gt;" class="cls-2" d="M313.73,750.15c-4.51-3.07-15.82-2.26-24.49,0,0,0-9,12.33,0,13s4.33-11.3,4.33-11.3"/><path id="_路径_24" data-name="&lt;路径&gt;" class="cls-2" d="M344.74,750.15a5.47,5.47,0,0,1,6.67,0"/><path id="_路径_25" data-name="&lt;路径&gt;" class="cls-2" d="M332.43,783.22s8.81-2,10.31-4.83-1.5-13.84-4.17-26.17c0,0-3-12.8,1-14.4s11.84,0,11.84,0"/><path id="_路径_26" data-name="&lt;路径&gt;" class="cls-2" d="M295.58,731.89c8-2.33,18-.79,20.67,3.27"/><path id="_路径_27" data-name="&lt;路径&gt;" class="cls-2" d="M339.24,785.92c2.33,4,2.68,10.46,2.68,10.46"/><path id="_路径_28" data-name="&lt;路径&gt;" class="cls-2" d="M318.91,795.5c6.33,1.39,17.33-2,17.33-2"/></g><g id="_编组_2" data-name="&lt;编组&gt;"><line id="_路径_29" data-name="&lt;路径&gt;" class="cls-3" x1="319.12" y1="408.09" x2="-15.96" y2="408.09"/><path id="_路径_30" data-name="&lt;路径&gt;" class="cls-3" d="M-136.56,408.09H-227s13-27,16.32-33.6c0,0,41.29-92.17,127.7-101.77S27.43,257.35,42.8,234.31,70.64,174.78,111,172.86s185.3-17.28,254.43,14.4,133.46,124.82,147.86,166.1,12.48,54.73,12.48,54.73H440.09"/><path id="_路径_31" data-name="&lt;路径&gt;" class="cls-3" d="M-177,409.12A106.57,106.57,0,0,1-70.43,302.55,106.57,106.57,0,0,1,36.15,409.12"/><circle id="_路径_32" data-name="&lt;路径&gt;" class="cls-3" cx="379.61" cy="403.29" r="28.8"/><circle id="_路径_33" data-name="&lt;路径&gt;" class="cls-4" cx="379.61" cy="403.29" r="60.49"/><polygon id="_路径_34" data-name="&lt;路径&gt;" class="cls-3" points="202.18 408.09 36.15 408.09 31.27 281.03 202.18 281.03 202.18 408.09"/><path id="_路径_35" data-name="&lt;路径&gt;" class="cls-3" d="M66.48,272.71h126.1V195.9H102.32S58.8,240.71,66.48,272.71Z"/><path id="_路径_36" data-name="&lt;路径&gt;" class="cls-3" d="M335.63,272.71H209.53V195.9h90.25S343.31,240.71,335.63,272.71Z"/><path id="_路径_37" data-name="&lt;路径&gt;" class="cls-3" d="M486.18,409.12a106.59,106.59,0,0,0-95.68-106,107.83,107.83,0,0,0-10.9-.55A106.57,106.57,0,0,0,273,409.12l-58.69-1V281s150.34-4.72,182.89,23"/><path id="_路径_38" data-name="&lt;路径&gt;" class="cls-3" d="M299.78,195.9S413.06,271.76,448,327.39"/><path id="_路径_39" data-name="&lt;路径&gt;" class="cls-3" d="M69.91,244.29S45.2,280.23,31.27,281-89.42,296-111.78,309.83"/></g><path id="_路径_40" data-name="&lt;路径&gt;" class="cls-2" d="M110.7,273.33c1.67-25.67,8-40.33,8-40.33s-7.5,1-10.08-7.33c10.08-2,40.08-14.33,59.75-5s16,54.13,16,54.13"/><path id="_路径_41" data-name="&lt;路径&gt;" class="cls-2" d="M121.21,255.33c10.16-2.33,17.49,0,17.49,0"/><path id="_路径_42" data-name="&lt;路径&gt;" class="cls-2" d="M125.36,245.82A42.51,42.51,0,0,1,137,246"/><polyline id="_路径_43" data-name="&lt;路径&gt;" class="cls-2" points="264.7 274.8 264.7 255.33 285.03 261.67 285.03 274.8"/><line id="_路径_44" data-name="&lt;路径&gt;" class="cls-2" x1="285.03" y1="261.67" x2="330.82" y2="253.24"/><polyline id="_路径_45" data-name="&lt;路径&gt;" class="cls-2" points="264.7 255.33 258.36 253.24 258.36 237 285.03 244.33 325.27 238.73"/><line id="_路径_46" data-name="&lt;路径&gt;" class="cls-2" x1="258.36" y1="237" x2="319.87" y2="228.76"/><path id="_路径_47" data-name="&lt;路径&gt;" class="cls-2" d="M301.36,235.63c-7,.37-33.67-.3-29.67-11.3s12.5-17,17.42-16.33,18.81,22.36,18.81,22.36-12.73-8.71-18.81-8.54-4.42,2.82-3.09,6.94S301.36,235.63,301.36,235.63Z"/><path id="line_lian" class="cls-2" d="M525.74,408.09S454.09,596.19,251.26,664"/></svg>
