<svg id="图层_1" data-name="图层 1" xmlns="http://www.w3.org/2000/svg" viewBox="0 0 750 1136"><defs><style>
  .cls-1{fill:#fff;}.cls-2{fill:none;stroke:#fff;stroke-miterlimit:10;stroke-width:2.83px;}
  <!-- 进入画面连线 -->
  #_lian_line_1{
  stroke-dasharray: 2000;
  stroke-dashoffset: 2000;
  -webkit-animation: dash 3.95s 39.2s linear forwards;
  animation: dash 3.95s 39.2s linear forwards;
  }
  #_lian_line_2{
  stroke-dasharray: 1000;
  stroke-dashoffset: 1000;
  -webkit-animation: dash 3.7s 40.6s linear forwards;
  animation: dash 3.7s 40.6s linear forwards;
  }
  <!-- 心形 -->
  #xin_xing{
  stroke-dasharray: 2000;
  stroke-dashoffset: 2000;
  -webkit-animation: dash 5.2s 41.6s linear forwards;
  animation: dash 5.2s 41.6s linear forwards;
  }
  <!-- 身 -->
  #_路径_13{
  stroke-dasharray: 1000;
  stroke-dashoffset: 1000;
  -webkit-animation: dash 2.2s 47.5s linear forwards;
  animation: dash 2.2s 47.5s linear forwards;
  }
  <!-- 人脸 -->
  #_路径_3{
  stroke-dasharray: 1000;
  stroke-dashoffset: 1000;
  -webkit-animation: dash 2.2s 48.1s linear forwards;
  animation: dash 2.2s 48.1s linear forwards;
  }
  <!-- 五官 -->
  #_路径_5,#_路径_6,#_路径_7,#_路径_8,#_路径_9{
  stroke-dasharray: 100;
  stroke-dashoffset: 100;
  -webkit-animation: dash 2.2s 48.2s linear forwards;
  animation: dash 2.2s 48.2s linear forwards;
  }
  <!-- 衣领 -->
  #_路径_,#_路径_2,#_路径_4{
  stroke-dasharray: 100;
  stroke-dashoffset: 100;
  -webkit-animation: dash 2.2s 48.3s linear forwards;
  animation: dash 2.2s 48.3s linear forwards;
  }
  <!-- 手 -->
  #_路径_14,#_路径_15,#_路径_10,#_路径_11{
  stroke-dasharray: 1000;
  stroke-dashoffset: 1000;
  -webkit-animation: dash 2.2s 48.5s linear forwards;
  animation: dash 2.2s 48.5s linear forwards;
  }
  <!-- 连接下个画面 -->
  #_路径_12{
  stroke-dasharray: 2000;
  stroke-dashoffset: 2000;
  -webkit-animation: dash 5.2s 49s linear forwards;
  animation: dash 5.2s 49s linear forwards;
  }
  <!-- #_lian_line_3{
  stroke-dasharray: 1000;
  stroke-dashoffset: 1000;
  -webkit-animation: dash 4.2s 52.65s linear forwards;
  animation: dash 4.2s 52.65s linear forwards;
  }
  #_lian_line_4{
  stroke-dasharray: 1000;
  stroke-dashoffset: 1000;
  -webkit-animation: dash 3.2s 53.5s linear forwards;
  animation: dash 3.2s 53.5s linear forwards;
  } -->
  <!-- 文字 -->
  #_wenzi_{
  opacity:0;
  -webkit-animation:6.2s 37s aniLogo2 ease-out forwards;
  }
  @-webkit-keyframes dash {
    to {
      stroke-dashoffset: 0;
    }
  }
  @keyframes dash {
    to {
      stroke-dashoffset: 0;
    }
  }
  @-webkit-keyframes aniLogo {
    0%{
      opacity:0;
      -webkit-transform: translateY(-2500px) translateZ(0);
    }
    60%{
      opacity:0;
      -webkit-transform: translateY(-2500px) translateZ(0);
    }
    62%{
      opacity:1;
      -webkit-transform: translateY(-2500px) translateZ(0);
    }
    100% {
      opacity:1;
      -webkit-transform: translateY(0px) translateZ(0);
    }
  }

  @-webkit-keyframes aniLogo2 {
    0%{
      opacity:0;
      -webkit-transform: translateY(7500px) translateZ(0);
    }
    60%{
      opacity:0;
      -webkit-transform: translateY(7500px) translateZ(0);
    }
    62%{
      opacity:1;
      -webkit-transform: translateY(7500px) translateZ(0);
    }
    100% {
      opacity:1;
      -webkit-transform: translateY(0px) translateZ(0);
    }
  }
</style></defs><title>h5</title>
<line id="_lian_line_1" data-name="&lt;路径&gt;" class="cls-2" x1="748" y1="-200" x2="748" y2="468"/>
<line id="_lian_line_2" data-name="&lt;路径&gt;" class="cls-2" x1="750" y1="468" x2="485" y2="468"/>
<!-- <line id="_lian_line_3" data-name="&lt;路径&gt;" class="cls-2" x1="432" y1="1150" x2="0" y2="1150"/> -->
<!-- <line id="_lian_line_3" data-name="&lt;路径&gt;" class="cls-2" x1="2" y1="1136" x2="2" y2="1334"/> -->
<g id="_wenzi_" data-name="&lt;编组&gt;">
<polygon class="cls-1" points="333.28 625.41 340.42 618.39 340.42 670.36 345.54 670.36 345.54 606.2 329.71 621.85 333.28 625.41"/><path class="cls-1" d="M362.29,655.54h22.94a8.86,8.86,0,0,0,6.47-2.68,8.77,8.77,0,0,0,2.78-6.5V617.15a9.45,9.45,0,0,0-9.26-9.25H362.29a9,9,0,0,0-6.56,2.77,8.89,8.89,0,0,0-2.7,6.49v29.21a9.2,9.2,0,0,0,9.26,9.18Zm-4.14-25.78V617.15a4,4,0,0,1,1.2-3,4.07,4.07,0,0,1,2.94-1.17h22.94a4.06,4.06,0,0,1,4.14,4.14v12.62Zm27.08,20.66H362.29a4,4,0,0,1-2.92-1.15,3.94,3.94,0,0,1-1.22-2.92V634.88h31.22v11.48a3.93,3.93,0,0,1-1.2,2.9A4.07,4.07,0,0,1,385.23,650.43Z"/><rect class="cls-1" x="350.11" y="664.82" width="47.22" height="5.11"/><polygon class="cls-1" points="378.78 682.11 377.49 681.72 374.61 690.53 375.89 690.92 378.78 682.11"/><path class="cls-1" d="M344.51,765.14l.39,1.29q14.62-4.9,18.32-16.77h2.36l16.73,17,.95-.95-15.78-16.08h15.87v-1.37H363.6a43.27,43.27,0,0,0,1.16-10.54V737h17.93V735.6h-6.41a40.89,40.89,0,0,0,3-7.44l-1.29-.39a32.47,32.47,0,0,1-3.27,7.83h-21l-3.31-7.7-1.29.56,3.05,7.14H345V737h18.36v.77a39.2,39.2,0,0,1-1.25,10.54H344.38v1.38H361.7Q358.14,760.54,344.51,765.14Z"/><rect class="cls-1" x="346.18" y="775.5" width="36.64" height="1.38"/><path class="cls-1" d="M382.69,790.68v-1.89a3.82,3.82,0,0,0-3.91-3.91h-.3v-5.33H377.1v5.33H365v-5.33H363.6v5.33H351.86v-5.33h-1.38v5.33h-.26a3.82,3.82,0,0,0-3.91,3.91v1.89h1.38v-1.89a2.5,2.5,0,0,1,2.54-2.54h28.55a2.5,2.5,0,0,1,2.54,2.54v1.89Z"/><path class="cls-1" d="M350.4,803.28l15.31,4.86a83.39,83.39,0,0,1-15,4.08l.26,1.38a80,80,0,0,0,16.51-4.86l15.39,4.86.39-1.29-13.93-4.43q8.51-4,11.74-8.73H351.86q.73-2.19,1.38-4.51H383v-1.38H353.62q.3-1,.82-3.14l-1.38-.34-.9,3.48h-6.58v1.38h6.19a95.15,95.15,0,0,1-7.4,18.58l1.2.64A103.18,103.18,0,0,0,350.4,803.28Zm1-2.75h27q-3.23,3.57-10.75,6.84L350.87,802Z"/><polygon class="cls-1" points="345.62 861.12 352.72 847.23 351.51 846.58 344.42 860.47 345.62 861.12"/><path class="cls-1" d="M383.29,834.89h-.9a3.38,3.38,0,0,1-3.35-3.35v-4.6a4.51,4.51,0,0,0-1.38-3.31,4.58,4.58,0,0,0-3.35-1.42H363.47q-3.87,0-4.73,4.6l-1.85,9.85,1.38.26,1.85-9.85q.65-3.48,3.35-3.48H374.3a3.3,3.3,0,0,1,3.35,3.35v4.6a4.7,4.7,0,0,0,4.73,4.73h.9Z"/><path class="cls-1" d="M355.77,860.73a70.28,70.28,0,0,0,14.41-7.44L382,860.64l.73-1.12-11.35-7.05a36.14,36.14,0,0,0,10.36-12.34H356.2v1.38h23.22a31.8,31.8,0,0,1-9.29,10.19L357,843.44l-.73,1.16,12.69,8a72.24,72.24,0,0,1-13.63,6.88Z"/><rect class="cls-1" x="347.39" y="834.46" width="1.38" height="8.26"/><rect class="cls-1" x="347.39" y="822.2" width="1.38" height="8.3"/><path class="cls-1" d="M383.25,874.92v-1.33H358.91q.86-1.68,1.85-4.13l-1.29-.52q-1.16,2.71-2.11,4.64h-12v1.33h11.35a57.48,57.48,0,0,1-12.25,16l.9,1a66.31,66.31,0,0,0,6.36-6.75,3.52,3.52,0,0,0-.09.9l0,22.4H353l0-8.38h25.58v3.35a3.38,3.38,0,0,1-3.35,3.35h-2.88v1.38h2.88a4.52,4.52,0,0,0,3.31-1.37,4.59,4.59,0,0,0,1.42-3.35V886.14a4.44,4.44,0,0,0-1.42-3.31,4.51,4.51,0,0,0-3.31-1.38H356.33a4.29,4.29,0,0,0-2.28.6,63.14,63.14,0,0,0,4.21-7.14Zm-4.69,23.86H353v-7.22h25.58Zm-22.23-16h18.88a3.3,3.3,0,0,1,2.37.95,3.23,3.23,0,0,1,1,2.37v4H353v-4a3.23,3.23,0,0,1,1-2.37A3.3,3.3,0,0,1,356.33,882.83Z"/><path class="cls-1" d="M359.38,949.48,354,950.81V940h6V938.6h-6v-6.71h1.5a3.06,3.06,0,0,0,2.24-.95,3,3,0,0,0,.9-2.19V920a3.08,3.08,0,0,0-.9-2.19,3.13,3.13,0,0,0-2.24-.9h-6.58a3.08,3.08,0,0,0-3.1,3.1v8.77a3.16,3.16,0,0,0,3.1,3.14h3.7v19.22l-4.95,1.2v-16.6h-1.38v16.94l-2.49.6.3,1.38,15.57-3.78Zm-10.45-19a1.54,1.54,0,0,1-1.72-1.76V920a1.52,1.52,0,0,1,1.72-1.72h6.58a1.54,1.54,0,0,1,1.76,1.72v8.77a1.56,1.56,0,0,1-1.76,1.76Z"/><path class="cls-1" d="M364.2,918.52a4.51,4.51,0,0,0-1.38,3.31V950a4.7,4.7,0,0,0,4.73,4.73h16.34v-1.38H367.55A3.38,3.38,0,0,1,364.2,950v-6.92H378.6a3.82,3.82,0,0,0,3.91-3.91v-7.57a3.74,3.74,0,0,0-1.12-2.75,3.89,3.89,0,0,0-2.79-1.12H364.2v-5.93a3.38,3.38,0,0,1,3.35-3.35h16.34V917.1H367.55A4.59,4.59,0,0,0,364.2,918.52Zm14.41,10.62a2.45,2.45,0,0,1,1.81.73,2.31,2.31,0,0,1,.73,1.76v7.57a2.5,2.5,0,0,1-2.54,2.54H364.2v-12.6Z"/><polygon class="cls-1" points="364.54 962.38 363.17 962.38 363.17 966.08 344.42 966.08 344.42 967.45 383.29 967.45 383.29 966.08 364.54 966.08 364.54 962.38"/><path class="cls-1" d="M371.16,994.29a2.45,2.45,0,0,1-.73,1.81,2.39,2.39,0,0,1-1.81.77h-12l3.48-9.29h16.25a3.38,3.38,0,0,1,3.35,3.35v6.75a3.14,3.14,0,0,1-1,2.36,3.23,3.23,0,0,1-2.37,1H373.4v1.38h2.92a4.52,4.52,0,0,0,3.31-1.37,4.57,4.57,0,0,0,1.38-3.35v-6.75a4.51,4.51,0,0,0-1.38-3.31,4.44,4.44,0,0,0-3.31-1.42H360.59l1.5-4h13.54a3.94,3.94,0,0,0,2.84-1.12,3.88,3.88,0,0,0,1.12-2.79v-8.08h-1.38v8.08a2.39,2.39,0,0,1-.77,1.81,2.45,2.45,0,0,1-1.81.73H352.07a2.57,2.57,0,0,1-2.54-2.54v-8.08h-1.38v8.08a3.74,3.74,0,0,0,1.2,2.79,3.69,3.69,0,0,0,2.71,1.12h8.56l-1.51,4h-7.74a4.58,4.58,0,0,0-3.35,1.42,4.51,4.51,0,0,0-1.38,3.31v11.65H348V990.93a3.38,3.38,0,0,1,3.35-3.35h7.22l-4,10.66h14a3.89,3.89,0,0,0,3.91-4v-2.75h-1.38Z"/><path class="cls-1" d="M353.15,978.2a103.7,103.7,0,0,0,11.61-3.31l10.19,3.53.52-1.29-8.6-3q4.17-1.59,7.78-3.4l-.64-1.2a68,68,0,0,1-9.2,3.87l-10.66-3.7-.47,1.29,9,3.14q-4.26,1.38-9.89,2.67Z"/><path class="cls-1" d="M377.83,1011a4.22,4.22,0,0,0-3.1,1.29,4.29,4.29,0,0,0-1.33,3.14,4.38,4.38,0,0,0,7.53,3.1,4.22,4.22,0,0,0,1.29-3.1,4.37,4.37,0,0,0-1.29-3.14A4.22,4.22,0,0,0,377.83,1011Zm2.15,6.58a2.94,2.94,0,0,1-2.15.9,2.85,2.85,0,0,1-2.15-.9,3,3,0,0,1,0-4.3,2.85,2.85,0,0,1,2.15-.9,2.94,2.94,0,0,1,2.15.9,3.12,3.12,0,0,1,0,4.3Z"/></g>
<path id="_路径_" data-name="&lt;路径&gt;" class="cls-2" d="M342.05,465.69l-3,10.85c-1.46,5.22,2.74,10.07,6.55,7.58l23.62-15.45"/><path id="_路径_2" data-name="&lt;路径&gt;" class="cls-2" d="M399.16,465.69l3,10.85c1.46,5.22-2.74,10.07-6.55,7.58L372,468.68"/><path id="_路径_3" data-name="&lt;路径&gt;" class="cls-2" d="M374.63,341.72H369.4a60.31,60.31,0,0,0-18.64,2.95c-10.44,1.67-33.19,10.12-57.57,7,4.5,12.1,12.1,21.57,20.33,26.93a60.27,60.27,0,0,0-5,24v17.67A48.55,48.55,0,0,0,357,468.65h30.1a48.55,48.55,0,0,0,48.41-48.41V402.57A61,61,0,0,0,374.63,341.72Z"/><circle id="_路径_4" data-name="&lt;路径&gt;" class="cls-2" cx="370.2" cy="487.3" r="5.67"/><path id="_路径_5" data-name="&lt;路径&gt;" class="cls-2" d="M319.36,420.47c3,.67,13.5,2.33,17.33,1.42"/><path id="_路径_6" data-name="&lt;路径&gt;" class="cls-2" d="M375.49,422.18c3.07.11,21.24-1.55,17.3-1.76,0,0,4,9.46-.19,9.8s-3.33-4.9-3.33-4.9"/><path id="_路径_7" data-name="&lt;路径&gt;" class="cls-2" d="M350.7,450.8s13.47,1.83,21.32-.67"/><path id="_路径_8" data-name="&lt;路径&gt;" class="cls-2" d="M328.47,399.16c4.82,0,9.73,2.9,9.73,2.9"/><path id="_路径_9" data-name="&lt;路径&gt;" class="cls-2" d="M374.49,401.68c4.23-2.32,9.92-2.14,9.92-2.14"/><path id="_路径_10" data-name="&lt;路径&gt;" class="cls-2" d="M378.53,519.85c7.37,10.2,13.6,17.84,19.27,17.58,6.33-.29,6.67-9,6.67-9"/><path id="_路径_11" data-name="&lt;路径&gt;" class="cls-2" d="M422.8,514.71c-1,35.08-8,45.42-27,45.42-12.46,0-25.07-14.49-32.27-24.46"/><path id="_路径_12" data-name="&lt;路径&gt;" class="cls-2" d="M400.17,466.53a48.19,48.19,0,0,1,33.06,45.6v715.94"/><path id="_路径_13" data-name="&lt;路径&gt;" class="cls-2" d="M363.52,535.67c-8,8.32-22.07,20.45-35.05,19.79-19.66-1-17.66-43.33-17.66-43.33a48.19,48.19,0,0,1,34.12-45.94"/><path id="_路径_14" data-name="&lt;路径&gt;" class="cls-2" d="M330.8,514.71c0,5.08-1.33,12.08,2.54,13.08s7.46-4.33,22.79-13.08c11.67,1.58,14.07,13.42,14.07,13.42s-2.54,3.27-6.67,7.54"/><path id="_路径_15" data-name="&lt;路径&gt;" class="cls-2" d="M357.5,514.71c.75-7.12,3.05-15,7-12.87s4,4.25,4,4.25,4.63-11.5,11.38-6.87,2.64,21.88-9.68,27.57"/><path id="xin_xing" class="cls-2" d="M487,467.38S686.71,383,555.79,218c0,0-103-91.94-184,56,0,0-87.25-164.55-201.1-35.79,0,0-58.15,72,0,163.86,0,0,22.9,31.9,140.1,110.07"/>
</svg>
