<svg id="图层_1" data-name="图层 1" xmlns="http://www.w3.org/2000/svg" viewBox="0 0 750 1136"><defs><style>
    .cls-1,.cls-2{fill:#fff;}.cls-1,.cls-3,.cls-4{stroke:#fff;stroke-miterlimit:10;}.cls-1,.cls-4{stroke-width:2.83px;}.cls-3,.cls-4{fill:none;}.cls-3{stroke-width:2.83px;}
  <!-- 线 -->
  #_路径_59{
  stroke-dasharray: 1300;
  stroke-dashoffset: 1300;
  -webkit-animation: dash 1.05s 13s linear forwards;
  animation: dash 1.05s 13s linear forwards;
  }
  #_路径_5,#_矩形_{
  stroke-dasharray: 300;
  stroke-dashoffset: 300;
  -webkit-animation: dash 1.05s 14.5s linear forwards;
  animation: dash 1.05s 14.5s linear forwards;
  }
  #_路径_17,#_路径_18,#_路径_19,#_路径_20,#_路径_21,#_路径_22,#_路径_23,#_路径_24,#_路径_25,#_路径_26{
  stroke-dasharray: 300;
  stroke-dashoffset: 300;
  -webkit-animation: dash 1.05s 14.65s linear forwards;
  animation: dash 1.05s 14.65s linear forwards;
  }
  #_矩形_2-2,#_矩形_2-3,#_矩形_3,#_矩形_4,#_路径_11,#_路径_12,#_路径_13,#_路径_14,#_路径_14-2{
  stroke-dasharray: 300;
  stroke-dashoffset: 300;
  -webkit-animation: dash 1.05s 14.45s linear forwards;
  animation: dash 1.05s 14.45s linear forwards;
  }
  #_矩形_2,#_路径_9,#_路径_10,#_路径_15,#_路径_16{
  stroke-dasharray: 300;
  stroke-dashoffset: 300;
  -webkit-animation: dash 1.05s 14.95s linear forwards;
  animation: dash 1.05s 14.95s linear forwards;
  }
  #_路径_9-2,#_路径_8-2,#_路径_8-3,#_路径_8-4,#_路径_6-2,#_路径_4,#_路径_7{
  stroke-dasharray: 300;
  stroke-dashoffset: 300;
  -webkit-animation: dash 1.05s 15.05s linear forwards;
  animation: dash 1.05s 15.05s linear forwards;
  }
  #_路径_6,#_路径_8{
  stroke-dasharray: 300;
  stroke-dashoffset: 300;
  -webkit-animation: dash 1.05s 15.15s linear forwards;
  animation: dash 1.05s 15.15s linear forwards;
  }
  #xin_1{
  stroke-dasharray: 2000;
  stroke-dashoffset: 2000;
  -webkit-animation: dash 4.2s 18.35s linear forwards;
  animation: dash 4.2s 18.35s linear forwards;
  }
  #_路径_{
  stroke-dasharray: 200;
  stroke-dashoffset: 200;
  -webkit-animation: dash 0.6s 21.45s linear forwards;
  animation: dash 0.6s 21.45s linear forwards;
  }
  #_路径_2,#_路径_35,#_路径_36{
  stroke-dasharray: 500;
  stroke-dashoffset: 500;
  -webkit-animation: dash 1.975s 21.7s linear forwards;
  animation: dash 1.975s 21.7s linear forwards;
  }
  #_路径_37,#_路径_38,#_路径_38{
  stroke-dasharray: 500;
  stroke-dashoffset: 500;
  -webkit-animation: dash 0.975s 21.95s linear forwards;
  animation: dash 0.975s 21.95s linear forwards;
  }
  #_路径_2-2,#_路径_3,#_路径_28,#_路径_29,#_路径_30,#_路径_31,#_路径_32,#_路径_33,#_路径_34{
  stroke-dasharray: 500;
  stroke-dashoffset: 500;
  -webkit-animation: dash 0.975s 22.2s linear forwards;
  animation: dash 0.975s 22.2s linear forwards;
  }
  #_路径_43,#_路径_42,#_矩形_5,#_路径_41,#_路径_40{
  stroke-dasharray: 500;
  stroke-dashoffset: 500;
  -webkit-animation: dash 0.975s 22.45s linear forwards;
  animation: dash 0.975s 22.45s linear forwards;
  }
  #_路径_39{
  stroke-dasharray: 1500;
  stroke-dashoffset: 1500;
  -webkit-animation: dash 1.975s 22.7s linear forwards;
  animation: dash 1.975s 22.7s linear forwards;
  }
  #cls_3_2{
  stroke-dasharray: 1500;
  stroke-dashoffset: 1500;
  -webkit-animation: dash 1.975s 13.9s linear forwards;
  animation: dash 1.975s 13.9s linear forwards;
  }
  #_路径_60{
  stroke-dasharray: 500;
  stroke-dashoffset: 500;
  -webkit-animation: dash 1.175s 23.35s linear forwards;
  animation: dash 1.175s 23.35s linear forwards;
  }
  #_路径_61{
  stroke-dasharray: 2000;
  stroke-dashoffset: 2000;
  -webkit-animation: dash 3.75s 25.5s linear forwards;
  animation: dash 3.75s 25.5s linear forwards;
  }
<!-- 老人 -->

<!-- 文字 -->
#_编组_{
  opacity:0;
  -webkit-animation:3s 13.5s aniLogo2 ease-out forwards;
}
#_编组_2{
  opacity:0;
  -webkit-animation:3s 14s aniLogo2 ease-out forwards;
}

  @-webkit-keyframes dash {
    to {
      stroke-dashoffset: 0;
    }
  }
  @keyframes dash {
    to {
      stroke-dashoffset: 0;
    }
  }
  @-webkit-keyframes aniLogo {
    0%{
      opacity:0;
      -webkit-transform: translateY(-2000px) translateZ(0);
    }
    60%{
      opacity:0;
      -webkit-transform: translateY(-2000px) translateZ(0);
    }
    62%{
      opacity:1;
      -webkit-transform: translateY(-2000px) translateZ(0);
    }
    100% {
      opacity:1;
      -webkit-transform: translateY(0px) translateZ(0);
    }
  }

  @-webkit-keyframes aniLogo2 {
    0%{
      opacity:0;
      -webkit-transform: translateY(2000px) translateZ(0);
    }
    60%{
      opacity:0;
      -webkit-transform: translateY(2000px) translateZ(0);
    }
    62%{
      opacity:1;
      -webkit-transform: translateY(2000px) translateZ(0);
    }
    100% {
      opacity:1;
      -webkit-transform: translateY(0px) translateZ(0);
    }
  }
</style></defs><title>h5-02-1</title>
<line id="_路径_59" data-name="&lt;路径&gt;" class="cls-1" x1="748" y1="-500" x2="748" y2="298"/>
<line id="_路径_60" data-name="&lt;路径&gt;" class="cls-1" x1="699" y1="1150" x2="750" y2="1150"/>
<line id="_路径_61" data-name="&lt;路径&gt;" class="cls-1" x1="748" y1="1168" x2="748" y2="310"/>
<g id="_编组_" data-name=" 编组 "><path class="cls-1" d="M51.44,378l12.82-12.11V429H62V371.13l-9,8.55Zm28.79,11.4a188.87,188.87,0,0,1-6.63,38l-2.1-.74a176.07,176.07,0,0,0,6.44-37.36Zm1.35-25.22-3.21,8.62H114l-5.49,12-2-.93,4.06-8.76H75.16l4.28-11.81Zm1.85,62.27h3.21a5.56,5.56,0,0,0,4-1.57A5.47,5.47,0,0,0,92.21,421V381.54H94.5V421a7.48,7.48,0,0,1-2.28,5.49,7.57,7.57,0,0,1-5.56,2.28H83.43Zm23.3-37.76L113.86,427l-2.28.43-7.12-38.33Z"/><path class="cls-1" d="M55.5,441.74v12.54H53.22V441.74Zm56.64,63.91H61.06a7.78,7.78,0,0,1-7.84-7.72s0-.08,0-.12V459H55.5v38.83a5.2,5.2,0,0,0,1.64,3.92,5.35,5.35,0,0,0,3.92,1.61h51.09Zm-48-61h47.45v2.28H87.13Q79.58,477.5,64,495.81l-1.77-1.46Q77.3,476.68,84.71,447H64.12ZM88.79,457v41H86.5V457Zm8.05-.43,15,37.55-2.14.78-15-37.48Z"/><path class="cls-1" d="M49.73,538.35h5.13a6.44,6.44,0,0,1,4.64,1.86,6.53,6.53,0,0,1,1.85,4.7v32.21a4.14,4.14,0,0,0,4,4.23h4.3v2.28H65.5A6.11,6.11,0,0,1,61,581.78a6.2,6.2,0,0,1-2-4.63V544.91a4.07,4.07,0,0,0-1.21-3,4,4,0,0,0-3-1.28H49.73ZM60.2,518.48v13.11H57.92V518.48Zm15.75,2h28.21a8,8,0,0,1,7.84,7.87v14.5a7.37,7.37,0,0,1-2.35,5.49,7.48,7.48,0,0,1-5.49,2.28H84.35a5.2,5.2,0,0,0-3.92,1.64,5.35,5.35,0,0,0-1.64,3.92V576a5.47,5.47,0,0,0,5.45,5.49h31.39v2.28H84.35a7.56,7.56,0,0,1-5.56-2.28A7.48,7.48,0,0,1,76.5,576V556.17a7.48,7.48,0,0,1,2.28-5.49,7.6,7.6,0,0,1,5.57-2.33h19.81a5.32,5.32,0,0,0,3.92-1.57,5.2,5.2,0,0,0,1.64-3.92V528.35a5.6,5.6,0,0,0-5.56-5.56H75.95Z"/><path class="cls-1" d="M49.8,616.73,67,597.49l1.78,1.5L51.58,618.23ZM50,631.41l13.25-15v46.81H61V622.43l-4.56,5.2q-3.06,3.56-4.63,5.27Zm21.87-.5h43.68v2.28h-8.69v8.16h8.69v2.28h-8.69v11.61a7.6,7.6,0,0,1-2.35,5.56A7.48,7.48,0,0,1,99,663.08H92.9V660.8H99a5.47,5.47,0,0,0,5.56-5.38q0-.09,0-.18V643.6H69.89v-2.25h34.7v-8.12H71.89Zm3.35-26.22a6.33,6.33,0,0,1,6.18-6.48H105.5a6.12,6.12,0,0,1,4.49,1.85,6.32,6.32,0,0,1,1.92,4.63v13.39a6.32,6.32,0,0,1-1.92,4.63,6.11,6.11,0,0,1-4.49,1.85H81.72a6.33,6.33,0,0,1-6.48-6.18q0-.15,0-.3Zm2.42,42.75,10.54,8.83L86.69,658l-10.53-8.83Zm-.15-37.19h32.13v-5.56a4.07,4.07,0,0,0-1.21-3,4,4,0,0,0-2.92-1.21H81.72a4.14,4.14,0,0,0-4.2,4.08s0,.08,0,.12Zm28,12a4,4,0,0,0,2.92-1.21,4.07,4.07,0,0,0,1.21-3v-5.56H77.5V618a4.14,4.14,0,0,0,4.08,4.2H105.5Z"/></g><g id="_编组_2" data-name=" 编组 2"><path class="cls-2" d="M160.68,362.61v9.89h20.94v1.38H160.68V398h22.45v1.39H144.38V398H159.3V362.61Z"/><path class="cls-2" d="M144.5,426.86h38.57v1.38H144.5Z"/><path class="cls-2" d="M153.24,476.87l-7.44,16.86-1.29-.56,7.44-16.82ZM149.76,459v10.58h-1.38V459Zm19.35,7.61a53.1,53.1,0,0,1-.69,8L183,494.35l-1.12.82L168,476.35q-2.79,12.69-13.29,18.53l-.64-1.2q13.46-7.57,13.63-27.13Zm-8.17-10.15-1,5.16h21.29l-2.54,9.33-1.29-.3,2.06-7.65h-21.2l1.33-6.79Z"/><path class="cls-2" d="M145.84,540.76h3.44a2.52,2.52,0,0,0,2-1,3.6,3.6,0,0,0,.82-2.36v-10l-7.78,3.48-.56-1.29,8.34-3.74V511h-7.91v-1.38h7.91V503h1.4v6.62h6.71V511H153.5v14.1l7.1-3.18.56,1.29-7.66,3.44v10.75a4.82,4.82,0,0,1-1.25,3.35,3.79,3.79,0,0,1-3,1.38h-3.44Zm37.88-34.92h-6.36v31.3a4.58,4.58,0,0,1-1.42,3.35,4.51,4.51,0,0,1-3.31,1.38h-5.85v-1.38h5.85a3.23,3.23,0,0,0,2.36-1,3.14,3.14,0,0,0,1-2.37V505.85h-14.8v-1.38h22.53Z"/><path class="cls-2" d="M163,549.79v5.5h10.88a4.85,4.85,0,0,1,4.73,4.73v13.85a4.58,4.58,0,0,1-1.42,3.35,4.51,4.51,0,0,1-3.31,1.38H163V584a3.38,3.38,0,0,0,3.35,3.35H182v1.38H166.35a4.7,4.7,0,0,1-4.73-4.67s0,0,0-.06V578.6H150.27a4.7,4.7,0,0,1-4.73-4.67s0,0,0-.06V560a4.52,4.52,0,0,1,1.38-3.31,4.59,4.59,0,0,1,3.35-1.42h11.35v-5.5Zm-16.08,16.68h14.71v-9.8H150.27a3.38,3.38,0,0,0-3.35,3.35Zm0,7.4a3.38,3.38,0,0,0,3.35,3.35h11.35v-9.37h-14.7ZM163,556.67v9.8h14.23V560a3.38,3.38,0,0,0-3.35-3.35Zm10.88,20.55a3.38,3.38,0,0,0,3.35-3.35v-6H163v9.37Z"/><path class="cls-2" d="M144,608.83h3.1A3.89,3.89,0,0,1,151,612.7s0,0,0,0v19.48a2.5,2.5,0,0,0,2.46,2.54h2.57v1.38h-2.49a3.74,3.74,0,0,1-2.79-1.2,3.69,3.69,0,0,1-1.12-2.71V612.75a2.55,2.55,0,0,0-.73-1.81,2.46,2.46,0,0,0-1.81-.73H144Zm6.32-12v8H149v-8Zm7.31,2.49,24.73-1.08.09,1.38-11.7.47v10.06H183.5v1.38H170.78v7.57h7a3.81,3.81,0,0,1,2.79,1.16,3.69,3.69,0,0,1,1.12,2.71v9.29a3.69,3.69,0,0,1-1.12,2.71,3.74,3.74,0,0,1-2.79,1.2H162.44a3.74,3.74,0,0,1-2.79-1.2,3.69,3.69,0,0,1-1.12-2.71V623a3.89,3.89,0,0,1,3.91-3.87h7v-7.57H156.68v-1.38H169.4v-10l-11.65.47Zm20.08,35.47a2.5,2.5,0,0,0,2.54-2.46s0-.05,0-.08V623a2.31,2.31,0,0,0-.73-1.76,2.46,2.46,0,0,0-1.81-.73h-15.3a2.45,2.45,0,0,0-1.81.73,2.31,2.31,0,0,0-.73,1.76v9.29a2.5,2.5,0,0,0,2.46,2.54h15.38Z"/><path class="cls-2" d="M157.36,682.23h-13.2v-1.38h13.2Zm-1.55-26.44L147.64,673h8.94v1.38H145.5l5.76-12.06h-6l7.61-17.76,1.29.56L147.37,661h4.51l2.71-5.72Zm3.4,5.12,4.29-12.65a4.21,4.21,0,0,1,4.26-3.1h7.05a4.17,4.17,0,0,1,4.26,3.1l4.3,12.64-1.29.43-4.3-12.64a2.89,2.89,0,0,0-3-2.15h-7.05a3,3,0,0,0-3,2.15l-4.23,12.66Zm5.42,22.32a3.82,3.82,0,0,1-3.91-3.73q0-.09,0-.18v-11a3.82,3.82,0,0,1,3.73-3.91h13.47a3.74,3.74,0,0,1,2.75,1.12,3.89,3.89,0,0,1,1.12,2.79v11a3.88,3.88,0,0,1-1.12,2.79,3.74,3.74,0,0,1-2.75,1.12Zm13.29-1.38a2.32,2.32,0,0,0,1.76-.73,2.46,2.46,0,0,0,.73-1.81v-11a2.45,2.45,0,0,0-.73-1.81,2.32,2.32,0,0,0-1.76-.73H164.63a2.46,2.46,0,0,0-1.81.73,2.39,2.39,0,0,0-.77,1.81v11a2.39,2.39,0,0,0,.77,1.81,2.46,2.46,0,0,0,1.81.73Zm-14.36-23.18h15.39V660H163.56Z"/><path class="cls-2" d="M182.61,710.83l-10.41,7.61,10.66,10.11-1,1-15.78-15a2.32,2.32,0,0,1,0,.52v9.85a6.12,6.12,0,0,1-1.85,4.64,6.35,6.35,0,0,1-4.56,1.68v-1.38a5.23,5.23,0,0,0,3.61-1.33,4.72,4.72,0,0,0,1.42-3.61v-4.39q-6.49,6.19-19.82,8.6l-.26-1.38q14.66-2.58,20.08-9.16v-3.53a5.48,5.48,0,0,0-.77-2.79q-6.36,7.91-19,10.54l-.26-1.38a38.25,38.25,0,0,0,10.88-4.17,24.37,24.37,0,0,0,7.57-6.11,7.33,7.33,0,0,0-4.82-2,35.8,35.8,0,0,1-13.32,6.2l-.34-1.38q11.31-2.84,16-9H146.27v-1.32h35.6V705H162.22a16,16,0,0,1-2.54,2.92,7.56,7.56,0,0,1,5.76,4.08l5.72,5.46,10.62-7.78Zm-1.55-9.63v-2.49a2.55,2.55,0,0,0-.73-1.81,2.45,2.45,0,0,0-1.81-.73H149.58a2.45,2.45,0,0,0-1.81.73,2.55,2.55,0,0,0-.73,1.81v2.49h-1.38v-2.49a3.89,3.89,0,0,1,3.87-3.91h13.84V691h1.38v3.78H178.5a3.89,3.89,0,0,1,3.91,3.87s0,0,0,0v2.49Z"/><path class="cls-2" d="M164.63,739.55q-.77,4.64-1.85,8.73l20.34,28.16-1.12.82L162.31,750a57.34,57.34,0,0,1-17,27.35l-.86-1.08q14.88-13.24,18.83-37Z"/><path class="cls-2" d="M144.55,805.77h37.8v1.38H164.29v6.62H181.1v1.38H164.29v7.57h18.83v1.38H163.34a13.6,13.6,0,0,1-7-1.94,13.26,13.26,0,0,1-5.07-5q-1.29,4.26-6.19,7.31l-.73-1.12q6.15-4,6.15-10.58v-3.31h1.38v3.31a16.31,16.31,0,0,1-.13,2.11,11.61,11.61,0,0,0,4.39,5.55,12.39,12.39,0,0,0,6.75,2.28V807.15H144.55Zm8.86-4.26a4.51,4.51,0,0,1-3.31-1.38,4.56,4.56,0,0,1-1.38-3.35v-6.19a4.51,4.51,0,0,1,1.38-3.31,4.44,4.44,0,0,1,3.31-1.42h20.51a4.85,4.85,0,0,1,4.73,4.73v6.19a4.58,4.58,0,0,1-1.42,3.35,4.51,4.51,0,0,1-3.31,1.38ZM150.1,793h27.18v-2.41a3.3,3.3,0,0,0-3.25-3.35H153.41a3.3,3.3,0,0,0-2.36,1,3.35,3.35,0,0,0-.95,2.41Zm23.82,7.14a3.22,3.22,0,0,0,2.36-1,3.14,3.14,0,0,0,1-2.36v-2.43H150.1v2.41a3.3,3.3,0,0,0,3.25,3.35h.06Z"/><path class="cls-2" d="M144,843l7.48-8.08v36.89h-1.38V838.41l-5.12,5.5Zm25.33-10.62v16.9H183.5v1.38H169.4v21H168v-21H154.5v-1.38H168v-16.9Z"/><path class="cls-2" d="M160.59,880.46A79.63,79.63,0,0,1,146.5,900l-1-1a75.8,75.8,0,0,0,13.85-19.18ZM182,904.75v8.38a3.82,3.82,0,0,1-3.73,3.91H148a110.59,110.59,0,0,0,19.78-28.64l1.2.56a109.6,109.6,0,0,1-17.76,26.7h26.88a2.5,2.5,0,0,0,2.54-2.46s0-.05,0-.08v-8.38Z"/><path class="cls-2" d="M148,963.84a3.82,3.82,0,0,1-3.91-3.73q0-.09,0-.18V933.35a3.82,3.82,0,0,1,3.73-3.91H154a3.94,3.94,0,0,1,2.84,1.12,3.89,3.89,0,0,1,1.12,2.79v26.53a3.88,3.88,0,0,1-1.12,2.79,3.94,3.94,0,0,1-2.84,1.12ZM145.5,946h11.14V933.35a2.39,2.39,0,0,0-.77-1.81,2.45,2.45,0,0,0-1.81-.73h-6a2.5,2.5,0,0,0-2.56,2.44s0,.07,0,.1Zm8.56,16.47a2.45,2.45,0,0,0,1.81-.73,2.39,2.39,0,0,0,.77-1.81V947.35H145.5v12.6a2.5,2.5,0,0,0,2.46,2.54H148Zm6.54-31h17.8v-5.55h1.38v5.55h3.61v1.38h-3.61v27.78a4.45,4.45,0,0,1-1.42,3.31,4.52,4.52,0,0,1-3.31,1.38h-5v-1.38h5a3.3,3.3,0,0,0,2.37-1,3.23,3.23,0,0,0,1-2.37V932.88h-17.8Zm4.73,8.43,5.33,16.9-1.29.43L164,940.35Z"/><path class="cls-2" d="M143.95,983.62l7.27-8.17v37.9h-1.38v-34.2L145,984.53Zm12.94-3.91v29.2H155.5v-29.2Zm3.44,20.3h9.93a37,37,0,0,0,.6-7.35h-9.07l1.59-6.32,1.29.43-1.12,4.52h19.13v1.38H172.24a41.57,41.57,0,0,1-.56,7.35h11.91v1.33H173.06l10,10.88-.95,1-10.79-11.65q-2.11,8.21-11.22,11.31l-.39-1.29q8.17-2.88,10.19-10.23h-9.59Zm0-15.91H179.5v-4.75a2.89,2.89,0,0,0-.56-1.81,1.83,1.83,0,0,0-1.46-.73h-16v-1.36h16a3.14,3.14,0,0,1,2.41,1.16,4.22,4.22,0,0,1,1,2.75v4.73h2.71v1.38H160.33Z"/><path class="cls-2" d="M149.24,1058.53a4.7,4.7,0,0,1-4.73-4.67s0,0,0-.06v-26.45a4.7,4.7,0,0,1,4.67-4.73h3a4.52,4.52,0,0,1,3.31,1.38,4.58,4.58,0,0,1,1.42,3.35v26.4a4.59,4.59,0,0,1-1.42,3.35,4.52,4.52,0,0,1-3.31,1.38Zm2.92-1.38a3.23,3.23,0,0,0,2.37-1,3.14,3.14,0,0,0,1-2.37v-26.43a3.31,3.31,0,0,0-3.27-3.35h-3a3.21,3.21,0,0,0-2.37,1,3.28,3.28,0,0,0-1,2.41v26.4a3.38,3.38,0,0,0,3.35,3.35Zm7-7.65h18.62v1.38H159.17Zm1.46-27.91h16a4.85,4.85,0,0,1,4.73,4.73V1038H180v-11.62a3.38,3.38,0,0,0-3.35-3.35h-16Zm4.3,5.38-1.5,13.2H178.3a4.7,4.7,0,0,1,4.73,4.67s0,0,0,.06v10.45a4.7,4.7,0,0,1-4.67,4.73H165v-1.38h13.33a3.3,3.3,0,0,0,3.35-3.25s0-.07,0-.1v-10.41a3.24,3.24,0,0,0-3.13-3.35H161.88l1.68-14.75Z"/><path class="cls-2" d="M169.23,1069.45a44.88,44.88,0,0,1,6.58-.65q7.87,0,7.61,6.45-.13,2.37-3.53,6-4.73,4.73-4.73,9.63h-1.38q0-4.95,5.12-10.62,3-3.18,3.14-5.12.17-5-6.24-5a45.86,45.86,0,0,0-6.36.65Zm6,24.42v4.95h-1.38v-4.95Z"/></g><path id="_路径_4" data-name=" 路径 4" class="cls-3" d="M175.6,285.82s-1.55-12.89-1.77-17.21c-.2-3.9,0-15.63,0-15.63"/><path id="_路径_5" data-name=" 路径 5" class="cls-3" d="M173.83,102.4l23.84-11.5s61.75-15.75,82.75,26,29,91.93,21.75,97.22-16.27,5.15-16.27,5.15"/><path id="_矩形_" data-name=" 矩形 " class="cls-3" d="M179.75,108.84a60.57,60.57,0,0,1,29.64-14l5.16-.88a60.85,60.85,0,0,1,70.24,49.72l7.29,42.63a48.41,48.41,0,0,1-39.55,55.88h0l-8,1.37"/><path id="_路径_6" data-name=" 路径 6" class="cls-3" d="M221.84,231.91c.11-5.57.48-9.13.48-9.13L246.76,226s4.71,25.41-18.45,27.47a44.42,44.42,0,0,1-29.16-7.32"/><path id="_路径_6-2" data-name=" 路径 6" class="cls-3" d="M200.61,195.92s-7.51,12.86-3.51,20.54q.36.7.78,1.38"/><polyline id="_路径_7" data-name=" 路径 7" class="cls-3" points="222.33 222.78 214.68 224.52 212.35 229.38"/><path id="_路径_8" data-name=" 路径 8" class="cls-3" d="M173.82,254.41a7.22,7.22,0,0,0,4.53.92"/><path id="_路径_8-2" data-name=" 路径 8" class="cls-3" d="M164.89,232.73c.66,6.72,1.9,12.47,3.21,15.14,1.8,3.66,3.9,5.56,5.72,6.54"/><path id="_路径_8-3" data-name=" 路径 8" class="cls-3" d="M209.1,227.89c.57-6.3-4-8.44-7.5-9-5.42-.91-11.5,4.25-11.5,4.25s-2.23-10.55-6.4-16"/><path id="_路径_8-4" data-name=" 路径 8" class="cls-3" d="M201.6,245.34a51.37,51.37,0,0,0,6.78-14,16.63,16.63,0,0,0,.72-3.44"/><path id="_路径_9" data-name=" 路径 9" class="cls-3" d="M61.67,199.23A48.09,48.09,0,0,0,40.47,239v53.17"/><path id="_路径_9-2" data-name=" 路径 9" class="cls-3" d="M175.6,285.82s2-7.75,2-30.75c8.75,0,23.25-10,23.25-10s14.5,30.89,14.5,43.57-15,26-38.75,17.93C152.21,298.32,162.91,239,162.91,239a48.59,48.59,0,0,0-.42-6.25"/><path id="_矩形_2" data-name=" 矩形 2" class="cls-3" d="M184.32,202.64a48.41,48.41,0,0,1-57.51,37.14h0l-29.43-6.34A48.41,48.41,0,0,1,59.55,179.6"/><path id="_矩形_2-2" data-name=" 矩形 2" class="cls-3" d="M174.46,102.1a60.83,60.83,0,0,1,19,58.22h0L192,166.86"/><path id="_矩形_2-3" data-name=" 矩形 2" class="cls-3" d="M65.15,152.93l4.16-19.3a60.85,60.85,0,0,1,72.27-46.72h0L146.75,88a60.57,60.57,0,0,1,27.71,14.07"/><path id="_路径_10" data-name=" 路径 10" class="cls-3" d="M119.61,289.39c-2.89-.7-9.76-2-13.39,2s-3.3,21.88,9.16,23.13,16-3.25,16.71-9.5-14.25-9.25-14.25-9.25Z"/><rect id="_矩形_3" data-name=" 矩形 3" class="cls-3" x="164.16" y="161.78" width="35" height="41.5" transform="translate(-35.02 321.7) rotate(-77.85)"/><rect id="_矩形_4" data-name=" 矩形 4" class="cls-3" x="99.38" y="141.83" width="35" height="53.5" transform="translate(-72.52 247.36) rotate(-77.85)"/><line id="_路径_11" data-name=" 路径 11" class="cls-3" x1="161.38" y1="178.16" x2="143.05" y2="174.21"/><path id="_路径_12" data-name=" 路径 12" class="cls-3" d="M138.47,196.75h0a10.22,10.22,0,0,1,6.43,4.44,10.22,10.22,0,0,1,7.68-1.4A14.54,14.54,0,0,1,163.7,217l-.67,3.09a2.84,2.84,0,0,1-3.37,2.17l-11.4-2.46a10.22,10.22,0,0,1-6.43-4.44,10.22,10.22,0,0,1-7.68,1.4l-11.39-2.44a2.84,2.84,0,0,1-2.17-3.37l.67-3.09A14.54,14.54,0,0,1,138.47,196.75Z"/><path id="_路径_13" data-name=" 路径 13" class="cls-3" d="M194.72,145.27c-18.06-2.44-73.95-15-86.52-21.28,0,0-17.16-4-21.17,5.16s-5.56,31.8-5.56,31.8"/><path id="_路径_14" data-name=" 路径 14" class="cls-3" d="M59.11,181.1c-5.56-3.21-9.91-8.09-8.31-15.52,2.89-13.44,14.66-13.46,20-12.06s10.61,8.93,10.61,8.93"/><path id="_路径_14-2" data-name=" 路径 14" class="cls-3" d="M72.47,186.11a53.22,53.22,0,0,1-13.36-5"/><path id="_路径_15" data-name=" 路径 15" class="cls-3" d="M118.17,288.65c-6.92-2.24-27.79-3.91-46.25-20.57-11.09-10-9.33-30-9.33-30"/><path id="_路径_16" data-name=" 路径 16" class="cls-3" d="M107.16,309.67c-15.58-2.6-39-7.57-49.24-14.27-7.67-5-11-14.67-11-14.67"/><path id="_路径_17" data-name=" 路径 17" class="cls-3" d="M263.1,215.93c-3.25,2.9-15.5,7.95-24.25,6.42"/><path id="_路径_18" data-name=" 路径 18" class="cls-3" d="M240.35,161s14.25,25.29,13.5,30.29-15,5.11-15,5.11"/><path id="_路径_19" data-name=" 路径 19" class="cls-3" d="M259.35,193.07c6.75,1,14,16.31,14,16.31"/><path id="_路径_20" data-name=" 路径 20" class="cls-3" d="M232.6,201.23c-3,4.09,0,21.12,0,21.12"/><path id="_路径_21" data-name=" 路径 21" class="cls-3" d="M273.35,154.34c-6.75-1.25-15.69,1.25-19.47,4"/><path id="_路径_22" data-name=" 路径 22" class="cls-3" d="M222.33,167.34c-9-.25-15.48,6.88-15.48,6.88"/><path id="_路径_23" data-name=" 路径 23" class="cls-3" d="M256.6,123.14s-18.49-30-46-28.55"/><line id="_路径_24" data-name=" 路径 24" class="cls-3" x1="225.8" y1="128.07" x2="208" y2="95.06"/><path id="_路径_25" data-name=" 路径 25" class="cls-3" d="M194.76,99.82c-4.66,9.75-4.3,25.4-4.3,25.4"/><line id="_路径_26" data-name=" 路径 26" class="cls-3" x1="194.76" y1="144.07" x2="198.35" y2="148.07"/><path id="_路径_" data-name=" 路径 " class="cls-4" d="M591.22,863.94a8.59,8.59,0,0,1-9.08,2.67l-15.33-4.75"/><path id="_路径_2" data-name=" 路径 " class="cls-4" d="M562.92,845.46l12.45-40.21a8.59,8.59,0,0,1,10.71-5.65l5.12,1.58"/><path id="_路径_2-2" data-name=" 路径 2" class="cls-4" d="M652.64,751.14a60.89,60.89,0,0,1,20.67,3.78l4.9,1.82A61,61,0,0,1,714,835l-9.68,26c-7,18.72-24.37,27.09-43.24,28.84a78.53,78.53,0,0,1-26.88-2.37l-23.35-6c-25-9.28-34.77-39.68-25.49-64.64l9.68-26A60.8,60.8,0,0,1,608.14,770"/><path id="_路径_3" data-name=" 路径 3" class="cls-4" d="M617,778.11c-10.55-6.06-18.55-21.83-18.55-40.5,24.09,12.69,51.26,11.33,59.23,14.29"/><path id="_路径_28" data-name=" 路径 28" class="cls-4" d="M598.44,803.39c5.12,0,12.45,5.33,12.45,5.33"/><path id="_路径_29" data-name=" 路径 29" class="cls-4" d="M635.12,819.13c7-1.07,13.13,4.09,14.11,6.76"/><path id="_路径_30" data-name=" 路径 30" class="cls-4" d="M605.73,790.23c3.33,0,7.5,1.33,8.33,2.83"/><path id="_路径_31" data-name=" 路径 31" class="cls-4" d="M640.52,801.72c4.33,0,12.33,3.17,13.67,6"/><path id="_路径_32" data-name=" 路径 32" class="cls-4" d="M617.39,798.89c-9,14.17-19,27.17-16.67,33.17s11.5,8.33,11.5,8.33"/><path id="_路径_33" data-name=" 路径 33" class="cls-4" d="M600.38,846.81c1.34,7.58,1.39,12.75,4.28,14.25,1.24.64,4.3-.46,7.39-1.92a4.19,4.19,0,0,0-.39-7.73c-6.49-2.35-13.76-5.3-15.61-8.35"/><path id="_路径_34" data-name=" 路径 34" class="cls-4" d="M682.68,833.11c20.77,1.92,21.21,16.18,13.39,24.79s-17.72,10.79-24,6-3.55-10.25-3.55-10.25"/><path id="_路径_35" data-name=" 路径 35" class="cls-4" d="M587.06,859.08l-11.66-4.21a5.41,5.41,0,0,1-3.32-6.72c3.19-10.08,8.68-27.52,10.71-33.7"/><path id="_路径_36" data-name=" 路径 36" class="cls-4" d="M544.52,848.72c0-10,5.17-24.24,24.82-24.12-2.11,6.33-6.15,19.87-6.15,19.87s3.33-2.09,7.17,1.25-.5,11.75-7.67,15l-.21.1A11.54,11.54,0,0,1,547.32,855Z"/><path id="_路径_37" data-name=" 路径 37" class="cls-4" d="M575.73,911.89s-3.17,16-26.17,11.33-4.54-73.5-4.54-73.5,5.7,9.49,8.21,12,11.5,3.14,13.21.8l3.54,34"/><path id="_路径_38" data-name=" 路径 38" class="cls-4" d="M568.28,885.89c5.67-4.83,19.4-13.78,29.23-12.62"/><path id="_路径_39" data-name=" 路径 39" class="cls-4" d="M667.93,889.13c21,16.7,30.38,51.51,29.63,84.26l3.19,197.66"/><path id="_路径_40" data-name=" 路径 40" class="cls-4" d="M584.11,893.06c-8.39,12-14.2,48-12.29,69.5"/><path id="_路径_41" data-name=" 路径 41" class="cls-4" d="M662.52,926.91s9.33,27.31,8.5,44"/><path id="_路径_42" data-name=" 路径 42" class="cls-4" d="M632.19,886.91,641,903.8a3.78,3.78,0,0,0,6.47.39l9.61-14.07"/><path id="_路径_43" data-name=" 路径 43" class="cls-4" d="M613.21,882l-14.63,6.84a3.07,3.07,0,0,1-4.25-3.65l3.19-10.79"/><rect id="_矩形_5" data-name=" 矩形 5" class="cls-4" x="610.56" y="898.06" width="10.67" height="10.67" rx="5.33" ry="5.33"/><path id="cls_3_2" class="cls-3" d="M752.71,297.06H362.64s-55.88-3.81-67.27-28.72c0,0-5.48-12.9-3.77-21.49s-5.27-24.78-7.53-25.71"/><path id="xin_1" class="cls-4" d="M236.26,250.26s-24.78,22.12-11.24,88S238.62,467.79,337.3,586.35c0,0,75.42,78.49,152.72,77.86s115.69-21.37,123.83-56.67S598,519.48,538,526.53c0,0,35.4-77.15-50-100.39,0,0-103.62-26.78-98.63,214C394,860.91,578,864.6,578,864.6"/></svg>
