<svg id="图层_1" data-name="图层 1" xmlns="http://www.w3.org/2000/svg" viewBox="0 0 750 1136"><defs><style>
    .cls-1,.cls-3{fill:none;}.cls-1,.cls-2,.cls-3,.cls-4,.cls-5{stroke:#fff;stroke-miterlimit:10;}.cls-1,.cls-2{stroke-width:2.83px;}.cls-2,.cls-4,.cls-5{fill:#fff;}.cls-3,.cls-5{stroke-width:2.83px;}
  <!-- page1 -->
  <!-- 父亲 -->
  #_路径_39,#_路径_8{
  stroke-dasharray: 1000;
  stroke-dashoffset: 1000;
  -webkit-animation: dash 1s 1s linear forwards;
  animation: dash 1s 1s linear forwards;
}
#_矩形_3,#_矩形_4,#_路径_4,#_矩形_7,#_路径_7,#_矩形_8,#_路径_9,#_路径_46,#_路径_47,#_路径_48,#_路径_49,#_路径_50,#_路径_51,#_路径_52,#_路径_53,#_路径_54,#_路径_55,#_路径_56,#_路径_44,#_路径_45,#_路径_43,#_路径_41,#_路径_40{
stroke-dasharray: 300;
stroke-dashoffset: 300;
-webkit-animation: dash 1.2s 1s linear forwards;
animation: dash 1.2s 1s linear forwards;
}

<!-- 连线 -->
#_路径_105{
stroke-dasharray: 800;
stroke-dashoffset: 800;
-webkit-animation: dash 2s 1.75s linear forwards;
animation: dash 2s 1.75s linear forwards;
}
#_路径_104{
stroke-dasharray: 1500;
stroke-dashoffset: 1500;
-webkit-animation: dash 4s 2.1s linear forwards;
animation: dash 4s 2.1s linear forwards;
}
#_路径_3{
stroke-dasharray: 1000;
stroke-dashoffset: 1000;
-webkit-animation: dash 4s 6.85s linear forwards;
animation: dash 4s 6.85s linear forwards;
}
<!-- 儿子 -->
#_路径_10{
stroke-dasharray: 1000;
stroke-dashoffset: 1000;
-webkit-animation: dash 0.8s 8.5s linear forwards;
animation: dash 0.8s 8.5s linear forwards;
}
#_路径_42,#_路径_43,#_路径_44,#_路径_45,#_路径_46{
opacity:0;
stroke-dasharray: 200;
stroke-dashoffset: 200;
-webkit-animation: dash2 0.8s 8.5s linear forwards;
animation: dash2 0.8s 8.5s linear forwards;
}
#_路径_6,#_路径_11{
stroke-dasharray: 100;
stroke-dashoffset: 100;
-webkit-animation: dash 0.8s 8.625s linear forwards;
animation: dash 0.8s 8.625s linear forwards;
}
#_路径_2,#_路径_5,#_路径_38,#_路径_39,#_路径_40,#_路径_41,#_路径_58{
stroke-dasharray: 100;
stroke-dashoffset: 100;
-webkit-animation: dash 0.7s 8.75s linear forwards;
animation: dash 0.7s 8.75s linear forwards;
}
<!-- 办公品 -->
#_路径_12,#_路径_{
stroke-dasharray: 200;
stroke-dashoffset: 200;
-webkit-animation: dash 0.95s 8.95s linear forwards;
animation: dash 0.95s 8.95s linear forwards;
}
#_路径_36{
opacity:0;
stroke-dasharray: 200;
stroke-dashoffset: 200;
-webkit-animation: dash2 0.95s 9s linear forwards;
animation: dash2 0.95s 9s linear forwards;
}
#_路径_37{
stroke-dasharray: 500;
stroke-dashoffset: 500;
-webkit-animation: dash 0.95s 9.15s linear forwards;
animation: dash 0.95s 9.15s linear forwards;
}
#_编组_{
opacity:0;
stroke-dasharray: 1000;
stroke-dashoffset: 1000;
-webkit-animation: dash2 1.45s 9.45s linear forwards;
animation: dash2 1.45s 9.45s linear forwards;
}
#_矩形_2{
stroke-dasharray: 500;
stroke-dashoffset: 500;
-webkit-animation: dash 1.2s 9.5s linear forwards;
animation: dash 1.2s 9.5s linear forwards;
}
#_路径_57{
stroke-dasharray: 1000;
stroke-dashoffset: 1000;
-webkit-animation: dash 1.7s 9.625s linear forwards;
animation: dash 1.7s 9.625s linear forwards;
}
<!-- 连接下个画面 -->
#_路径_59{
stroke-dasharray: 300;
stroke-dashoffset: 300;
-webkit-animation: dash 1s 12.25s linear forwards;
animation: dash 1s 12.25s linear forwards;
}
<!-- 文字 -->
#_编组_2{
  opacity:0;
  -webkit-animation:1s 3.2S aniLogo ease-out forwards;
}
#_编组_3{
  opacity:0;
  -webkit-animation:1.5s 3.2s aniLogo2 ease-out forwards;
}
#_编组_4{
  opacity:0;
  -webkit-animation:2.25s 3.2s aniLogo ease-out forwards;
}

  @-webkit-keyframes dash {
    to {
      stroke-dashoffset: 0;
    }
  }
  @keyframes dash {
    to {
      stroke-dashoffset: 0;
    }
  }

  @-webkit-keyframes dash2 {
    to {
      opacity:1;
      stroke-dashoffset: 0;
    }
  }
  @keyframes dash2 {
    to {
      opacity:1;
      stroke-dashoffset: 0;
    }
  }

  @-webkit-keyframes dash3 {
    to {
      stroke-dashoffset: 922;
    }
  }
  @keyframes dash3 {
    to {
      stroke-dashoffset: 922;
    }
  }

  @-webkit-keyframes aniLogo {
  	0%{
  		opacity:0;
  		-webkit-transform: translateY(-1000px) translateZ(0);
  	}
  	60%{
  		opacity:0;
  		-webkit-transform: translateY(-1000px) translateZ(0);
  	}
  	62%{
  		opacity:1;
  		-webkit-transform: translateY(-1000px) translateZ(0);
  	}
  	100% {
      opacity:1;
  		-webkit-transform: translateY(0px) translateZ(0);
  	}
  }

  @-webkit-keyframes aniLogo2 {
  	0%{
  		opacity:0;
  		-webkit-transform: translateY(1000px) translateZ(0);
  	}
  	60%{
  		opacity:0;
  		-webkit-transform: translateY(1000px) translateZ(0);
  	}
  	62%{
  		opacity:1;
  		-webkit-transform: translateY(1000px) translateZ(0);
  	}
  	100% {
      opacity:1;
  		-webkit-transform: translateY(0px) translateZ(0);
  	}
  }

</style></defs><title>h5</title><polyline id="_路径_" data-name="&lt;路径&gt;" class="cls-1" points="490.25 1071.88 490.25 1082.51 455.25 1110.76 454.38 1100.88"/><path id="_路径_2" data-name="&lt;路径&gt;" class="cls-1" d="M464.82,985.86c-17.26,7.6-32.28,19.1-32.28,40.11"/>
<path id="_路径_3" data-name="&lt;路径&gt;" class="cls-1" d="M663.7,814.64v269.82h-108V1031.3a48.18,48.18,0,0,0-31.46-45"/>
<polyline id="_路径_104" data-name="&lt;路径&gt;" class="cls-1" points="254.35 457.56 253 814.64 663.7 814.64"/>
<path id="_路径_105" data-name="&lt;路径&gt;" class="cls-1" d="M226.32,360.78a48.16,48.16,0,0,1,28,43.62v53.17"/>

<path id="_路径_4" data-name="&lt;路径&gt;" class="cls-1" d="M130.87,404.4a46.9,46.9,0,0,1,2.19-14.32"/><path id="_路径_5" data-name="&lt;路径&gt;" class="cls-1" d="M463.48,984.86l-3,10.85c-1.46,5.22,2.74,10.07,6.55,7.58l23.62-15.45"/><path id="_路径_6" data-name="&lt;路径&gt;" class="cls-1" d="M520.59,984.86l3,10.85c1.46,5.22-2.74,10.07-6.55,7.58l-23.62-15.45"/><path id="_路径_7" data-name="&lt;路径&gt;" class="cls-1" d="M225.25,360.78A48.6,48.6,0,0,1,179.64,393h-30.1a48.55,48.55,0,0,1-48.41-48.41V343"/><path id="_路径_8" data-name="&lt;路径&gt;" class="cls-1" d="M227.75,350a47.88,47.88,0,0,1-2.5,10.78"/><path id="_路径_9" data-name="&lt;路径&gt;" class="cls-1" d="M101.13,308v-6.65A61,61,0,0,1,162,240.48h5.23a61,61,0,0,1,60.85,60.85v19.77"/><path id="_路径_10" data-name="&lt;路径&gt;" class="cls-1" d="M446.13,902.3c-12-2-25-14-31.5-31.5,27,3.5,49.66-7.16,58.16-7.16a60.35,60.35,0,0,1,18-2.75h5.23a61,61,0,0,1,60.85,60.85V939.4a48.55,48.55,0,0,1-48.41,48.41H478.4A48.55,48.55,0,0,1,430,939.4V921.74a60.29,60.29,0,0,1,5-24"/><circle id="_路径_11" data-name="&lt;路径&gt;" class="cls-1" cx="491.63" cy="1006.47" r="5.67"/><polyline id="_路径_12" data-name="&lt;路径&gt;" class="cls-1" points="453.58 1073.39 487.63 1073.39 455.99 1097.99"/><g id="_编组_" data-name="&lt;编组&gt;"><polyline id="_路径_13" data-name="&lt;路径&gt;" class="cls-1" points="344.64 950.64 225.31 950.64 199.31 969.97"/><line id="_路径_14" data-name="&lt;路径&gt;" class="cls-1" x1="335.13" y1="1088.67" x2="319.98" y2="1104.64"/><polyline id="_路径_15" data-name="&lt;路径&gt;" class="cls-1" points="319.98 969.97 344.64 952.39 344.64 1025.97"/><rect id="_矩形_" data-name="&lt;矩形&gt;" class="cls-1" x="199.31" y="969.97" width="120.67" height="134.67"/><line id="_路径_16" data-name="&lt;路径&gt;" class="cls-1" x1="199.31" y1="976.31" x2="319.98" y2="976.31"/><line id="_路径_17" data-name="&lt;路径&gt;" class="cls-1" x1="198.31" y1="982.97" x2="318.98" y2="982.97"/><line id="_路径_18" data-name="&lt;路径&gt;" class="cls-1" x1="200.31" y1="989.64" x2="320.98" y2="989.64"/><line id="_路径_19" data-name="&lt;路径&gt;" class="cls-1" x1="199.31" y1="996.31" x2="319.98" y2="996.31"/><line id="_路径_20" data-name="&lt;路径&gt;" class="cls-1" x1="199.98" y1="1002.64" x2="320.64" y2="1002.64"/><line id="_路径_21" data-name="&lt;路径&gt;" class="cls-1" x1="198.98" y1="1009.31" x2="319.64" y2="1009.31"/><line id="_路径_22" data-name="&lt;路径&gt;" class="cls-1" x1="199.64" y1="1015.31" x2="320.31" y2="1015.31"/><line id="_路径_23" data-name="&lt;路径&gt;" class="cls-1" x1="198.64" y1="1021.97" x2="319.31" y2="1021.97"/><line id="_路径_24" data-name="&lt;路径&gt;" class="cls-1" x1="198.98" y1="1028.52" x2="319.64" y2="1028.52"/><line id="_路径_25" data-name="&lt;路径&gt;" class="cls-1" x1="197.98" y1="1035.18" x2="318.64" y2="1035.18"/><line id="_路径_26" data-name="&lt;路径&gt;" class="cls-1" x1="200.31" y1="1039.9" x2="320.65" y2="1039.9"/><line id="_路径_27" data-name="&lt;路径&gt;" class="cls-1" x1="200.31" y1="1046.57" x2="319.66" y2="1046.57"/><line id="_路径_28" data-name="&lt;路径&gt;" class="cls-1" x1="199.98" y1="1053.23" x2="321.64" y2="1053.23"/><line id="_路径_29" data-name="&lt;路径&gt;" class="cls-1" x1="198.98" y1="1059.9" x2="320.65" y2="1059.9"/><line id="_路径_30" data-name="&lt;路径&gt;" class="cls-1" x1="198.98" y1="1066.23" x2="321.31" y2="1066.23"/><line id="_路径_31" data-name="&lt;路径&gt;" class="cls-1" x1="199.64" y1="1072.9" x2="320.32" y2="1072.9"/><line id="_路径_32" data-name="&lt;路径&gt;" class="cls-1" x1="200.31" y1="1078.9" x2="320.98" y2="1078.9"/><line id="_路径_33" data-name="&lt;路径&gt;" class="cls-1" x1="200.64" y1="1085.57" x2="319.99" y2="1085.57"/><line id="_路径_34" data-name="&lt;路径&gt;" class="cls-1" x1="199.98" y1="1092.11" x2="320.32" y2="1092.11"/><line id="_路径_35" data-name="&lt;路径&gt;" class="cls-1" x1="199.98" y1="1098.78" x2="319.33" y2="1098.78"/></g><polyline id="_路径_36" data-name="&lt;路径&gt;" class="cls-1" points="453.75 1100.3 458.63 1095.26 442.63 1025.97 329.12 1025.97 322.63 1033.63"/><polygon id="_路径_37" data-name="&lt;路径&gt;" class="cls-1" points="452.96 1100.3 337.63 1100.3 323.45 1034.31 438.79 1034.31 452.96 1100.3"/><rect id="_矩形_2" data-name="&lt;矩形&gt;" class="cls-1" x="337.63" y="1100.3" width="115.95" height="11.33"/><path id="_路径_38" data-name="&lt;路径&gt;" class="cls-1" d="M527.81,1021.2c1,22.25.25,47.26-9.75,50.26"/><path id="_路径_39" data-name="&lt;路径&gt;" class="cls-1" d="M530.5,1090.84v6.31H497.83v-6.31a13.09,13.09,0,0,1,4.46-9.85"/><path id="_路径_40" data-name="&lt;路径&gt;" class="cls-1" d="M502.29,1081a13.08,13.08,0,0,1,8.67-3.27h6.42a13.13,13.13,0,0,1,13.13,13.13"/><path id="_路径_41" data-name="&lt;路径&gt;" class="cls-1" d="M537.29,1085c4.83-2.54,11.81-11.86,11.83-18.54"/><path id="_路径_42" data-name="&lt;路径&gt;" class="cls-2" d="M440.79,939.64c3,.67,13.5,2.33,17.33,1.42"/><path id="_路径_43" data-name="&lt;路径&gt;" class="cls-2" d="M496.92,941.35c3.07.11,21.24-1.55,17.3-1.76"/><path id="_路径_44" data-name="&lt;路径&gt;" class="cls-2" d="M472.13,970s13.47,1.83,21.32-.67"/><path id="_路径_45" data-name="&lt;路径&gt;" class="cls-2" d="M449.9,918.33c4.82,0,9.73,2.9,9.73,2.9"/><path id="_路径_46" data-name="&lt;路径&gt;" class="cls-2" d="M495.92,920.85c4.23-2.32,9.92-2.14,9.92-2.14"/><path id="_路径_47" data-name="&lt;路径&gt;" class="cls-1" d="M175.82,461.56c-6.83-31.63-24.88-58.08-24.88-58.08H66.43s25.5,36.5,30,50.5c1,3.18,2,6.43,3,9.69"/><path id="_路径_48" data-name="&lt;路径&gt;" class="cls-1" d="M103.18,486.18a29,29,0,0,1-1.24,8.29c15.5,8,61,10,75.5,2.5a83.8,83.8,0,0,0,.88-16.48"/><path id="_路径_49" data-name="&lt;路径&gt;" class="cls-1" d="M99.11,464c-7.12,2.26-11.93,8-10.68,11.25s2.5,13.75,18,10.25-5.7-18-5.7-18Z"/><path id="_路径_50" data-name="&lt;路径&gt;" class="cls-1" d="M174.17,454.8c2.89-.7,9.76-1.95,13.39,2.05s3.3,21.88-9.16,23.13-16-3.25-16.71-9.5,14.25-9.25,14.25-9.25Z"/><rect id="_矩形_3" data-name="&lt;矩形&gt;" class="cls-1" x="87.18" y="307.98" width="41.5" height="35"/><rect id="_矩形_4" data-name="&lt;矩形&gt;" class="cls-1" x="147.43" y="307.98" width="53.5" height="35"/><line id="_路径_51" data-name="&lt;路径&gt;" class="cls-2" x1="128.68" y1="325.48" x2="147.43" y2="325.48"/><path id="_路径_52" data-name="&lt;路径&gt;" class="cls-1" d="M147.16,348.48h0a10.22,10.22,0,0,0-7.22,3,10.22,10.22,0,0,0-7.22-3,14.54,14.54,0,0,0-14.5,14.5v3.17a2.84,2.84,0,0,0,2.83,2.83h11.67a10.22,10.22,0,0,0,7.22-3,10.22,10.22,0,0,0,7.22,3h11.67a2.84,2.84,0,0,0,2.83-2.83V363A14.54,14.54,0,0,0,147.16,348.48Z"/><path id="_路径_53" data-name="&lt;路径&gt;" class="cls-1" d="M103,286.31c18.17,1.41,75.45.91,89.06-2.59,0,0,17.61-.25,19.61,9.5s-1.25,32.25-1.25,32.25"/><path id="_路径_54" data-name="&lt;路径&gt;" class="cls-1" d="M213.93,352c8.25-.25,25.5-1.75,25.5-15.5s-11.5-16.25-17-16-12.25,6.5-12.25,6.5"/><g id="_编组_2" data-name="&lt;编组&gt;"><path class="cls-3" d="M470,116.33h9.19V100a7.48,7.48,0,0,1,2.28-5.49A7.6,7.6,0,0,1,487,92.18h18.88v-13H476.29l3.85-9.76,2.14.78-2.64,6.7h55.72v2.28H508.14v13h26.29v2.28H508.14v21.87h27.93v2.28H508.14v16.74h-2.28V118.61H470Zm11.47,0h24.44V94.46H487a5.6,5.6,0,0,0-5.56,5.56Z"/><path class="cls-3" d="M528.52,148.32a67.88,67.88,0,0,1-4.92,12.33h10.62v2.28H504.51v1.28a71.6,71.6,0,0,1-1.92,17.46h32.7v2.28H509l26.15,26.65-1.57,1.57-27.72-28.22h-3.92q-6.13,19.67-30.35,27.79l-.64-2.14q22.59-7.62,28.5-25.65H470.74v-2.28h29.43a64.94,64.94,0,0,0,2.07-17.46v-1.28H471.8v-2.28h11.83l-5.06-11.83,2.14-.93,5.49,12.75H521a53.81,53.81,0,0,0,5.42-13Z"/><path class="cls-3" d="M470.09,238h15V224.49h2.28v66.69h-2.28V268.1l-13.18,11.33-1.5-1.78,14.68-12.54v-24.8h-15Zm28.14,2.49,12,10q12.68-6.27,19.17-16.67H497.53l4.35-8.69,2,.93-2.78,5.49h32.21q-11.83,20.88-40.4,27.22l-.5-2.28a79.77,79.77,0,0,0,15.46-4.92l-11-9.41Zm-5.42,22.94H526.1v-9.69h2.28v9.69h7.55v2.28h-7.55v17.31a7.6,7.6,0,0,1-2.35,5.56,7.48,7.48,0,0,1-5.49,2.28h-8.26v-2.28h8.26a5.48,5.48,0,0,0,5.56-5.56V265.74H492.82Zm6.77,6.77L509,280.49l-1.78,1.42-9.33-10.19Z"/><path class="cls-3" d="M471.73,306h63.2v2.28h-49.8l-4.27,20.95h39.83a5.6,5.6,0,0,0,5.56-5.56v-7.48h2.28v7.48a7.6,7.6,0,0,1-2.35,5.56,7.48,7.48,0,0,1-5.49,2.28h-16.6V344.9h27.79v2.28H504.08v18.24h31.85v2.28H470v-2.28H501.8V347.18H474.08V344.9H501.8V331.51H477.93l4.84-23.23h-11Z"/></g><g id="_编组_3" data-name="&lt;编组&gt;"><path class="cls-4" d="M555.08,119.63l8.54-8.07v42h-1.47V115l-6,5.69Zm19.17,7.59a125.67,125.67,0,0,1-4.41,25.29l-1.42-.47a117.27,117.27,0,0,0,4.32-24.91Zm.9-16.79L573,116.17h23.72l-3.65,8-1.33-.62,2.7-5.84H570.87l2.85-7.83Zm1.23,41.47h2.13a3.71,3.71,0,0,0,2.66-1,3.65,3.65,0,0,0,1-2.61V122h1.52v26.29a5,5,0,0,1-1.52,3.65,5,5,0,0,1-3.7,1.52h-2.13Zm15.51-25.15,4.75,25.48-1.52.28L590.37,127Z"/><path class="cls-4" d="M554.7,184.25h41.7v1.52H576.47v7.31H595v1.52H576.47v8.35l20.78,0v1.52l-21.82,0a15,15,0,0,1-7.69-2.13,14.62,14.62,0,0,1-5.6-5.5q-1.42,4.7-6.83,8.07l-.81-1.23q6.78-4.37,6.78-11.67l0-3.65h1.52l0,3.65a18,18,0,0,1-.14,2.33,12.81,12.81,0,0,0,4.84,6.12,13.67,13.67,0,0,0,7.45,2.51V185.77H554.7Zm9.77-4.7a5,5,0,0,1-3.65-1.52,5,5,0,0,1-1.52-3.7V167.5a5,5,0,0,1,1.52-3.65,4.91,4.91,0,0,1,3.65-1.57H587.1a5.35,5.35,0,0,1,5.22,5.22v6.83a5.06,5.06,0,0,1-1.57,3.7,5,5,0,0,1-3.65,1.52Zm-3.65-9.39h30V167.5a3.65,3.65,0,0,0-3.7-3.7H564.47a3.64,3.64,0,0,0-2.61,1,3.7,3.7,0,0,0-1,2.66ZM587.1,178a3.56,3.56,0,0,0,2.61-1.09,3.46,3.46,0,0,0,1.09-2.61v-2.66h-30v2.66a3.64,3.64,0,0,0,3.65,3.7Z"/><path class="cls-4" d="M598.11,216.33h-21q-6,9.39-21.87,21l-.9-1.23q15.37-11.1,21.07-19.74H553.7v-1.52h44.41ZM557.54,245.6a5,5,0,0,1,1.52-3.65,5.06,5.06,0,0,1,3.7-1.57H589a5.35,5.35,0,0,1,5.22,5.22v5.88a5.06,5.06,0,0,1-1.57,3.7A5,5,0,0,1,589,256.7H562.76a5.19,5.19,0,0,1-5.22-5.22Zm1.52,5.88a3.56,3.56,0,0,0,1.09,2.61,3.46,3.46,0,0,0,2.61,1.09H589a3.65,3.65,0,0,0,3.7-3.7V245.6a3.65,3.65,0,0,0-3.7-3.7H562.76a3.46,3.46,0,0,0-2.61,1.09,3.56,3.56,0,0,0-1.09,2.61Zm16.08-13.57V221.5h1.52v16.42Zm4.79-18.84,17.27,17-1,1.09-17.32-17Z"/><path class="cls-4" d="M597.4,308h-33a5.18,5.18,0,0,1-5.22-5.22V279.19q-1.23.24-4.46.76l-.29-1.52,4.75-.76v-10.3h1.52v10L575,275V266.1h1.52v8.63l18.93-3.18-.85,19.78A5.33,5.33,0,0,1,593,295a4.83,4.83,0,0,1-3.61,1.52h-5.5V295h5.5A3.41,3.41,0,0,0,592,293.9a4.09,4.09,0,0,0,1.14-2.66l.76-17.93-17.32,2.94v21.21H575v-21L560.67,279v23.82a3.73,3.73,0,0,0,3.7,3.7h33Z"/><path class="cls-4" d="M564.75,317v5.36h8.35v1.52h-8.35v19.93h-1.52V323.88h-8.35v-1.52h8.35V317Zm-3.84,28.7a51.44,51.44,0,0,1-4.55,15.18l-1.33-.66a48.29,48.29,0,0,0,4.37-14.71Zm-1.85-19.55q0,11.2-2,17.84l-1.42-.43q1.9-6.55,1.9-17.41Zm28.66,34.21h-16a4.72,4.72,0,0,1-3.42-1.28A4,4,0,0,1,567,356V346h1.52v10a2.54,2.54,0,0,0,.85,2,3.31,3.31,0,0,0,2.37.85h16ZM571,326.54v17.27H569.5V326.54Zm9.25,17a4.12,4.12,0,0,1-3-1.23,4.29,4.29,0,0,1-1.23-3.08V323.69a4.29,4.29,0,0,1,1.23-3.08,4.05,4.05,0,0,1,3-1.28h11.05a4.29,4.29,0,0,1,3.08,1.23,4.34,4.34,0,0,1,1.23,3.13v15.51a4.22,4.22,0,0,1-4.32,4.32Zm-2.75-16.89h16.61v-2.94a2.71,2.71,0,0,0-.81-2,2.63,2.63,0,0,0-2-.85H580.27a2.48,2.48,0,0,0-1.95.85,2.7,2.7,0,0,0-.81,2Zm0,7.69h16.61v-6.17H577.52ZM591.32,342a2.76,2.76,0,0,0,2.8-2.8v-3.37H577.52v3.37a2.7,2.7,0,0,0,.81,2,2.55,2.55,0,0,0,1.95.81Zm-11.77,4v8.35H578V346Zm12.29-.62,5,15.23-1.42.43-5.08-15.18Z"/><path class="cls-4" d="M566.13,369.43v5.84h7.45v1.52h-7.45v10.15h8.49v1.52h-8.3v8.45h8.07v1.47h-8.07v11.86a13.37,13.37,0,0,0,4,.57h27.28v1.52H570.35q-8.78,0-11.72-7.64a29.49,29.49,0,0,1-3.13,8.54l-1.33-.71A36.77,36.77,0,0,0,558,397.94l.47-5.69,1.52.1-.47,5.69q-.19,2.18-.33,3.23,1.52,6.36,5.6,8.4V388.46h-8.59v-1.52h8.4V376.78h-7.4v-1.52h7.4v-5.84Zm31.12,36.34H582.78a4,4,0,0,1-3-1.28,4.28,4.28,0,0,1-1.23-3.08v-11.1a4.29,4.29,0,0,1,4.27-4.27h8.83a2.55,2.55,0,0,0,1.95-.81,2.65,2.65,0,0,0,.81-1.95v-7.4a2.65,2.65,0,0,0-.81-1.95,2.56,2.56,0,0,0-1.95-.81H577.23v-1.52h14.38a4.29,4.29,0,0,1,4.27,4.27v7.4a4.29,4.29,0,0,1-4.27,4.27h-8.83a2.7,2.7,0,0,0-2,.81,2.65,2.65,0,0,0-.81,1.95v11.1a2.71,2.71,0,0,0,.81,2,2.63,2.63,0,0,0,2,.85h14.47Z"/><path class="cls-4" d="M557.16,423.8h37.48l-12.29,14.9a5.74,5.74,0,0,0-1.52,3.61v15.61a5,5,0,0,1-1.52,3.65,5,5,0,0,1-3.7,1.52h-9.39v-1.52h9.39a3.7,3.7,0,0,0,2.66-1,3.64,3.64,0,0,0,1-2.61V442.3a7.27,7.27,0,0,1,1.9-4.55l10.2-12.43H557.16Z"/><path class="cls-4" d="M596.68,494.73l-11.48,8.4L597,514.28l-1.09,1.09-17.41-16.51a2.55,2.55,0,0,1,0,.57l0,10.87a6.75,6.75,0,0,1-2,5.12,7,7,0,0,1-5,1.85v-1.52a5.77,5.77,0,0,0,4-1.47,5.21,5.21,0,0,0,1.57-4l0-4.84q-7.16,6.83-21.87,9.49l-.28-1.52Q571,510.58,577,503.32v-3.89a6.05,6.05,0,0,0-.85-3.08q-7,8.73-21,11.62l-.28-1.52a42.18,42.18,0,0,0,12-4.6,26.9,26.9,0,0,0,8.35-6.74,8.07,8.07,0,0,0-5.31-2.23,39.51,39.51,0,0,1-14.71,6.88l-.38-1.52q12.48-3.13,17.6-9.92h-15.8v-1.52h39.29v1.52H574.2a17.65,17.65,0,0,1-2.8,3.23,8.35,8.35,0,0,1,6.36,4.51l6.31,6,11.72-8.59ZM595,484.1v-2.75a2.81,2.81,0,0,0-.81-2,2.71,2.71,0,0,0-2-.81H560.25a2.71,2.71,0,0,0-2,.81,2.81,2.81,0,0,0-.81,2v2.75h-1.52v-2.75a4.29,4.29,0,0,1,4.32-4.32h15.23v-4.17H577V477h15.18a4.29,4.29,0,0,1,4.32,4.32v2.75Z"/><path class="cls-4" d="M575.14,567.94V559.3H561.48a5.18,5.18,0,0,1-5.22-5.22V539.47a5,5,0,0,1,1.52-3.65,5.06,5.06,0,0,1,3.7-1.57h13.66v-8.11h1.52v8.11h13.66a5.35,5.35,0,0,1,5.22,5.22v14.61a5.06,5.06,0,0,1-1.57,3.7,5,5,0,0,1-3.65,1.52H576.66v8.64Zm0-10.15v-22H561.48a3.72,3.72,0,0,0-3.7,3.7v14.61a3.73,3.73,0,0,0,3.7,3.7Zm1.52-22v22h13.66a3.73,3.73,0,0,0,3.7-3.7V539.47a3.73,3.73,0,0,0-3.7-3.7Z"/></g><g id="_编组_4" data-name="&lt;编组&gt;"><path class="cls-5" d="M618.64,214a5.6,5.6,0,0,1-5.73-5.73V169.36a5.6,5.6,0,0,1,5.73-5.73h8.82a5.77,5.77,0,0,1,4.16,1.64,5.7,5.7,0,0,1,1.64,4.1v38.88a5.69,5.69,0,0,1-1.64,4.1,5.77,5.77,0,0,1-4.16,1.64Zm-3.72-26.15h16.32V169.36a3.49,3.49,0,0,0-1.13-2.65,3.6,3.6,0,0,0-2.65-1.07h-8.82a3.66,3.66,0,0,0-3.72,3.72ZM627.46,212a3.59,3.59,0,0,0,2.65-1.07,3.49,3.49,0,0,0,1.13-2.65V189.78H614.92v18.46a3.66,3.66,0,0,0,3.72,3.72ZM637,166.59h26.09v-8.13h2v8.13h5.29v2h-5.29v40.71a6.52,6.52,0,0,1-2.08,4.85,6.62,6.62,0,0,1-4.85,2H650.9v-2h7.31a4.84,4.84,0,0,0,3.47-1.39,4.73,4.73,0,0,0,1.45-3.47V168.61H637ZM644,178.94l7.81,24.76-1.89.63-7.81-24.77Z"/><path class="cls-5" d="M618.64,282.91a5.6,5.6,0,0,1-5.73-5.73V238.3a5.6,5.6,0,0,1,5.73-5.73h8.82a5.77,5.77,0,0,1,4.16,1.64,5.7,5.7,0,0,1,1.64,4.1v38.88a5.69,5.69,0,0,1-1.64,4.1,5.77,5.77,0,0,1-4.16,1.64Zm-3.72-26.15h16.32V238.3a3.49,3.49,0,0,0-1.13-2.65,3.59,3.59,0,0,0-2.65-1.07h-8.82a3.66,3.66,0,0,0-3.72,3.72Zm12.54,24.13a3.59,3.59,0,0,0,2.65-1.07,3.49,3.49,0,0,0,1.13-2.65V258.72H614.92v18.46a3.66,3.66,0,0,0,3.72,3.72ZM637,235.53h26.09V227.4h2v8.13h5.29v2h-5.29v40.71a6.51,6.51,0,0,1-2.08,4.85,6.62,6.62,0,0,1-4.85,2H650.9v-2h7.31a4.84,4.84,0,0,0,3.47-1.39,4.73,4.73,0,0,0,1.45-3.46V237.54H637ZM644,247.88l7.81,24.76-1.89.63-7.81-24.76Z"/><path class="cls-5" d="M633.19,296.34V303H651v2H630.36l-10.78,18.08h14.93a72.82,72.82,0,0,0,5.92-9.45l1.76.95a65.21,65.21,0,0,1-27,26.91l-.95-1.76q12.16-6.62,18.71-14.62H616.05L628,305H613.41v-2h17.77v-6.68Zm14.93,28.86a88.41,88.41,0,0,1-10.4,13.17L651,353.24l-1.51,1.32-13.23-14.75q-8,7.75-21.17,14l-.82-1.76a77.23,77.23,0,0,0,32.2-27.92Zm8.82,27.29h6.36a4.33,4.33,0,0,0,3.34-1.45,5,5,0,0,0,1.26-3.47V296.4h2v51.17a6.93,6.93,0,0,1-1.89,4.92,6.21,6.21,0,0,1-4.73,2h-6.36Zm2.27-51.74v45h-2v-45Z"/><path class="cls-5" d="M633.19,365.27V372H651v2H630.36l-10.78,18.08h14.93a72.74,72.74,0,0,0,5.92-9.45l1.76.95a65.2,65.2,0,0,1-27,26.91l-.95-1.76q12.16-6.62,18.71-14.62H616.05L628,374H613.41v-2h17.77v-6.68Zm14.93,28.86a88.36,88.36,0,0,1-10.4,13.17L651,422.18l-1.51,1.32-13.23-14.75q-8,7.75-21.17,14l-.82-1.77a77.23,77.23,0,0,0,32.2-27.92Zm8.82,27.29h6.36a4.33,4.33,0,0,0,3.34-1.45,5,5,0,0,0,1.26-3.47V365.34h2V416.5a6.92,6.92,0,0,1-1.89,4.92,6.21,6.21,0,0,1-4.73,2h-6.36Zm2.27-51.73v45h-2v-45Z"/><path class="cls-4" d="M630.55,433.81v5.36h8.35v1.52h-8.35v19.93H629V440.69h-8.35v-1.52H629v-5.36Zm-3.84,28.7a51.44,51.44,0,0,1-4.55,15.18l-1.33-.66a48.29,48.29,0,0,0,4.37-14.71ZM624.86,443q0,11.2-2,17.84l-1.42-.43q1.9-6.55,1.9-17.41Zm28.66,34.21h-16a4.72,4.72,0,0,1-3.42-1.28,4,4,0,0,1-1.33-3.08v-10h1.52v10a2.54,2.54,0,0,0,.85,2,3.31,3.31,0,0,0,2.37.85h16Zm-16.7-33.83v17.27h-1.52V443.35Zm9.25,17a4.12,4.12,0,0,1-3-1.23,4.28,4.28,0,0,1-1.23-3.08V440.5a4.29,4.29,0,0,1,1.23-3.08,4,4,0,0,1,3-1.28h11.05a4.29,4.29,0,0,1,3.08,1.23,4.35,4.35,0,0,1,1.23,3.13V456a4.22,4.22,0,0,1-4.32,4.32Zm-2.75-16.89h16.61V440.5a2.71,2.71,0,0,0-.81-2,2.63,2.63,0,0,0-2-.85H646.07a2.48,2.48,0,0,0-1.95.85,2.7,2.7,0,0,0-.81,2Zm0,7.69h16.61V445H643.31Zm13.81,7.69a2.76,2.76,0,0,0,2.8-2.8v-3.37H643.31V456a2.7,2.7,0,0,0,.81,2,2.55,2.55,0,0,0,1.95.81Zm-11.77,4v8.35h-1.52v-8.35Zm12.29-.62,5,15.23-1.42.43-5.08-15.18Z"/><path class="cls-4" d="M626.66,514.89a54.55,54.55,0,0,1-4.55,14.71l-1.33-.66a52,52,0,0,0,4.37-14.28ZM661.29,504l-6-12.29q-1.57-3.08-4.41-3.08H633a4.8,4.8,0,0,0-4.46,3.08l-6,12.29-1.33-.62,6-12.34q1.95-3.94,5.79-3.94h17.89q3.8,0,5.74,3.94l6,12.34Zm-33.54-4.08h13.38v-6.12h1.52v6.12h13.52a15.67,15.67,0,0,1-6.17,8.4q-5.69,4.32-14.76,5.74l-.28-1.47A34.83,34.83,0,0,0,648.2,508a14.34,14.34,0,0,0,5.93-6.5H627.75Zm25.76,28.94H638a5.18,5.18,0,0,1-5.17-5.17v-8.45h1.52v8.45a3.57,3.57,0,0,0,3.65,3.65h15.56Zm-8.16-13.66v6.45h-1.52v-6.45Zm12.24-.66,5,14.9-1.42.43-5-14.9Z"/><path class="cls-4" d="M620.87,547.87l8.54-8.07v42h-1.47V543.27L622,549ZM640,555.46a125.67,125.67,0,0,1-4.41,25.29l-1.42-.47a117.25,117.25,0,0,0,4.32-24.91Zm.9-16.8-2.13,5.74h23.72l-3.65,8-1.33-.62,2.7-5.84H636.67l2.85-7.83Zm1.23,41.47h2.13a3.71,3.71,0,0,0,2.66-1,3.65,3.65,0,0,0,1-2.61V550.19h1.52v26.29a5,5,0,0,1-1.52,3.65,5,5,0,0,1-3.7,1.52h-2.13ZM657.69,555l4.75,25.48-1.52.28-4.74-25.53Z"/><path class="cls-4" d="M620.78,600.53A4.34,4.34,0,0,1,622,597.4a4.29,4.29,0,0,1,3.08-1.23h3V590h1.52v6.17h5.17a4.29,4.29,0,0,1,3.08,1.23,4.35,4.35,0,0,1,1.23,3.13v27.75a4.22,4.22,0,0,1-4.32,4.32h-9.73a4.22,4.22,0,0,1-4.32-4.32Zm1.52,12.76h15.33V600.53a2.71,2.71,0,0,0-.81-2,2.63,2.63,0,0,0-2-.85h-9.73a2.63,2.63,0,0,0-2,.85,2.71,2.71,0,0,0-.81,2Zm12.53,17.79a2.76,2.76,0,0,0,2.8-2.8V614.81H622.29v13.47a2.76,2.76,0,0,0,2.8,2.8Zm12-40.57-2.23,5H657.4a5.35,5.35,0,0,1,5.22,5.22v27a5.06,5.06,0,0,1-1.57,3.7,5,5,0,0,1-3.65,1.52h-7.35v-1.52h7.35a3.73,3.73,0,0,0,3.7-3.7v-27a3.73,3.73,0,0,0-3.7-3.7H642.17l3.23-7.12Zm-.09,14.28,6.07,18.31-1.42.47-6.07-18.36Z"/><path class="cls-4" d="M629.22,655.19,644.07,668a52.22,52.22,0,0,0,8.83-13.47l1.42.62a50.45,50.45,0,0,1-9,13.9l16.84,14.52-.95,1.14-16.94-14.57a64.52,64.52,0,0,1-22.54,14.71l-.52-1.42a61.19,61.19,0,0,0,21.87-14.33l-14.85-12.81Zm4.65-12.76a49.33,49.33,0,0,1-11.05,16.51l-1-1.09A46.66,46.66,0,0,0,632.4,641.9Zm16.18-.38,10.58,16.23-1.28.81-10.58-16.23Z"/><path class="cls-4" d="M621.25,715.59h4.7v-14.8a5,5,0,0,1,1.52-3.65,5.06,5.06,0,0,1,3.7-1.57h21.07a5.35,5.35,0,0,1,5.22,5.22v14.8h4.7v1.52h-4.7v14a5.06,5.06,0,0,1-1.57,3.7,5,5,0,0,1-3.65,1.52H631.17a5.19,5.19,0,0,1-5.22-5.22v-14h-4.7Zm6.22,0h28.47v-14.8a3.73,3.73,0,0,0-3.7-3.7H631.17a3.72,3.72,0,0,0-3.7,3.7Zm24.77,19.26a3.73,3.73,0,0,0,3.7-3.7v-14H627.47v14a3.72,3.72,0,0,0,3.7,3.7ZM638.71,701.5l6.93,10.87-1.23.81-7-10.91Zm0,18.41,6.93,10.87-1.23.81-7-10.87Z"/><path class="cls-4" d="M647.73,747.71A49.59,49.59,0,0,1,655,747q8.68,0,8.4,7.12-.14,2.61-3.89,6.64-5.22,5.22-5.22,10.63h-1.52q0-5.46,5.65-11.72,3.32-3.51,3.46-5.65.19-5.5-6.88-5.5a50.67,50.67,0,0,0-7,.71Zm6.59,26.95v5.46H652.8v-5.46Z"/></g><path id="_路径_55" data-name="&lt;路径&gt;" class="cls-1" d="M175.61,454.05c6.92-2.24,27.79-3.91,46.25-20.57,11.09-10,9.33-30,9.33-30"/><path id="_路径_56" data-name="&lt;路径&gt;" class="cls-1" d="M186.62,475.08c15.58-2.6,39-7.57,49.24-14.27,7.67-5,11-14.67,11-14.67"/><line id="_路径_57" data-name="&lt;路径&gt;" class="cls-1" x1="455.25" y1="1110.76" x2="809.89" y2="1111.64"/><line id="_路径_59" data-name="&lt;路径&gt;" class="cls-1" x1="748" y1="1110.76" x2="748" y2="1336"/><path id="_路径_58" data-name="&lt;路径&gt;" class="cls-1" d="M502.71,1080.81a13.13,13.13,0,0,1,12.71-9.84h8.75a13.12,13.12,0,0,1,13.13,13.13v.92a6.31,6.31,0,0,1-6.31,6.31"/></svg>
