<svg id="图层_1" data-name="图层 1" xmlns="http://www.w3.org/2000/svg" xmlns:xlink="http://www.w3.org/1999/xlink" viewBox="0 0 750 1136"><defs><style>
  .cls-1,.cls-4,.cls-5{fill:none;stroke:#fff;stroke-miterlimit:10;}.cls-2{fill:#fff;}.cls-3{clip-path:url(#clip-path);}.cls-4{stroke-width:2.34px;}.cls-5{stroke-width:2.46px;}
  <!-- 连线 -->
  #_lian_line_1{
  stroke-dasharray: 1000;
  stroke-dashoffset: 1000;
  -webkit-animation: dash 5s 54s linear forwards;
  animation: dash 5s 54s linear forwards;
  }
  #_lian_line_11{
  stroke-dasharray: 1000;
  stroke-dashoffset: 1000;
  -webkit-animation: dash 3.5s 61s linear forwards;
  animation: dash 3.5s 61s linear forwards;
  }
  #_lian_line_111{
  stroke-dasharray: 1000;
  stroke-dashoffset: 1000;
  -webkit-animation: dash 4s 62.5s linear forwards;
  animation: dash 4s 62.5s linear forwards;
  }
  #_lian_line_2{
  stroke-dasharray: 1000;
  stroke-dashoffset: 1000;
  -webkit-animation: dash 2s 64.25s linear forwards;
  animation: dash 2s 64.25s linear forwards;
  }
  <!-- 手机 -->
  #_phone_{
  stroke-dasharray: 5000;
  stroke-dashoffset: 5000;
  -webkit-animation: dash 7s 65s linear forwards;
  animation: dash 7s 65s linear forwards;
  }

  <!-- 文字 -->
  #_wenzi_{
  opacity:0;
  -webkit-animation:3.2s 56s wenzi_12 ease-out forwards;
  }
  <!-- ._wenzi_{-webkit-animation:3s 44s wenzi ease-out forwards;} -->
  <!-- 手机按钮 -->
  <!-- #_btn_1{
  opacity:0;
  -webkit-animation:2.2s 46s aniLogo4 ease-out forwards;
  }
  #_btn_2{
  opacity:0;
  -webkit-animation:2.2s 46s aniLogo3 ease-out forwards;
  } -->

  @-webkit-keyframes dash {
    to {
      stroke-dashoffset: 0;
    }
  }
  @keyframes dash {
    to {
      stroke-dashoffset: 0;
    }
  }
  @-webkit-keyframes aniLogo {
    0%{
      opacity:1;
      -webkit-transform: translateX(1400px) translateZ(0);
    }
    30%{
      opacity:1;
      -webkit-transform: translateX(0px) translateZ(0);
    }
    62%{
      opacity:1;
      -webkit-transform: translateX(0px) translateZ(0);
    }
    100% {
      opacity:1;
      -webkit-transform: translateX(1400px) translateZ(0);
    }
  }

  @-webkit-keyframes aniLogo2 {
    0%{
      opacity:0;
      -webkit-transform: translateY(2500px) translateZ(0);
    }
    60%{
      opacity:0;
      -webkit-transform: translateY(2500px) translateZ(0);
    }
    62%{
      opacity:1;
      -webkit-transform: translateY(2500px) translateZ(0);
    }
    100% {opacity:1;
      -webkit-transform: translateY(0px) translateZ(0);
    }
  }
  @-webkit-keyframes aniLogo3 {
    0%{
      opacity:0;
      -webkit-transform: translateX(2500px) translateZ(0);
    }
    60%{
      opacity:0;
      -webkit-transform: translateX(2500px) translateZ(0);
    }
    62%{
      opacity:1;
      -webkit-transform: translateX(2500px) translateZ(0);
    }
    100% {opacity:1;
      -webkit-transform: translateX(0px) translateZ(0);
    }
  }
  @-webkit-keyframes wenzi_12 {
    0%{
      opacity:0;
      -webkit-transform: translateX(1500px) translateZ(0);
    }
    10%{
    opacity:1;
      -webkit-transform: translateX(0px) translateZ(0);
    }
    20%{
    opacity:1;
      -webkit-transform: translateX(0px) translateZ(0);
    }
    30%{
    opacity:1;
      -webkit-transform: translateX(0px) translateZ(0);
    }
    40%{
    opacity:1;
      -webkit-transform: translateX(0px) translateZ(0);
    }
    50%{
    opacity:1;
      -webkit-transform: translateX(0px) translateZ(0);
    }
    60%{
    opacity:1;
      -webkit-transform: translateX(0px) translateZ(0);
    }
    70%{
    opacity:1;
      -webkit-transform: translateX(0px) translateZ(0);
    }
    80%{
    opacity:1;
      -webkit-transform: translateX(0px) translateZ(0);
    }
    90%{
    opacity:1;
      -webkit-transform: translateX(0px) translateZ(0);
    }
    100% {opacity:1;
      -webkit-transform: translateX(-1500px) translateZ(0);
    }
  }
  @-webkit-keyframes aniLogo4 {
    0%{
      opacity:0;
      -webkit-transform: translateX(-2500px) translateZ(0);
    }
    60%{
      opacity:0;
      -webkit-transform: translateX(-2500px) translateZ(0);
    }
    62%{
      opacity:1;
      -webkit-transform: translateX(-2500px) translateZ(0);
    }
    100% {opacity:1;
      -webkit-transform: translateX(0px) translateZ(0);
    }
  }

  @-webkit-keyframes wenzi{
    0%{
      opacity:1;
      -webkit-transform: translateX(0) translateZ(0);
    }
    60%{
      opacity:0;
      -webkit-transform: translateX(0) translateZ(0);
    }
    62%{
      opacity:1;
      -webkit-transform: translateX(0) translateZ(0);
    }
    100% {opacity:0;
      -webkit-transform: translateX(-2500px) translateZ(0);
    }
  }
  @-webkit-keyframes _hBtn {
  	0%{
  		opacity:0.9;
  		-webkit-transform:scale(1);
  	}
  	100% {
  		opacity:1;
  		-webkit-transform:scale(1.1);
  	}
  }
</style><clipPath id="clip-path"><rect class="cls-1" y="313.1" width="750" height="822.9"/></clipPath></defs><title>h5</title>
<line id="_lian_line_1" data-name="&lt;路径&gt;" class="cls-4" x1="434" y1="-200" x2="434" y2="30"/>
<line id="_lian_line_11" data-name="&lt;路径&gt;" class="cls-4" x1="434" y1="29" x2="30" y2="29"/>
<line id="_lian_line_111" data-name="&lt;路径&gt;" class="cls-4" x1="29" y1="29" x2="29" y2="435"/>
<line id="_lian_line_2" data-name="&lt;路径&gt;" class="cls-4" x1="29" y1="433" x2="150" y2="433"/>
<g id="_wenzi_" class="_wenzi_" data-name="&lt;编组&gt;">
<path class="cls-2" d="M190.77,177.73a2.45,2.45,0,0,1-.73-1.81V156.44a3.69,3.69,0,0,0-1.12-2.71,3.81,3.81,0,0,0-2.79-1.16H183v1.38h3.1a2.46,2.46,0,0,1,1.81.73,2.4,2.4,0,0,1,.73,1.76v19.48a3.82,3.82,0,0,0,3.91,3.91h2.54v-1.38h-2.54A2.46,2.46,0,0,1,190.77,177.73Z"/><rect class="cls-2" x="187.97" y="140.53" width="1.38" height="7.96"/><polygon class="cls-2" points="208.66 153.3 221.64 153.3 221.64 151.93 208.66 151.93 208.66 140.36 207.28 140.36 207.28 177.64 197.22 177.64 197.22 179.02 222.76 179.02 222.76 177.64 208.66 177.64 208.66 153.3"/><path class="cls-2" d="M289.91,157.93v-4.85H261.35a67.58,67.58,0,0,0,1.33-13.74H289v-4.85h-8.5a74,74,0,0,0,3.39-9.06l.43-1.37-4.63-1.39-.4,1.37A48.16,48.16,0,0,1,275,134.49H246l-5-11.73-4.49,1.94,4.18,9.78h-9.73v4.85h26.91a57.92,57.92,0,0,1-1.5,13.74H230v4.85h24.79c-3.68,9.17-11.62,15.87-23.64,19.93l-1.3.44,1.38,4.6,1.39-.46c14.26-4.78,23.48-13,27.42-24.5h1.84L287,183.48l3.39-3.39-21.75-22.16Z"/><rect class="cls-2" x="298.67" y="129.19" width="4.85" height="47.57"/><polygon class="cls-2" points="321.48 143.18 313.47 143.18 313.47 122.01 308.62 122.01 308.62 183.95 313.47 183.95 313.47 148.03 321.48 148.03 321.48 143.18"/><path class="cls-2" d="M341.45,138.08v-4.6h-2.13q.63-2,1.21-3.91H359.1v-4.85h-40v4.85h16.45a169.5,169.5,0,0,1-19.13,40.17l-.73,1.15,4,2.74.8-1.22a167.1,167.1,0,0,0,16.18-31.26V184h4.85V141.46l15,32.6,4.3-2.15L344.61,136.4Z"/><path class="cls-2" d="M405.23,158.55a36.34,36.34,0,0,1-5.93,8.86,105.62,105.62,0,0,1-6.67-20.08h7.7a4.42,4.42,0,0,0,3.31-1.37A4.57,4.57,0,0,0,405,142.6v-1.29h-1.38v1.29a3.21,3.21,0,0,1-.95,2.37,3.14,3.14,0,0,1-2.37,1h-8q-.73-3.1-1.07-5.2l-1.38.26q.47,2.67,1,4.95h-15a4.54,4.54,0,0,0-3.27,1.33,4.83,4.83,0,0,0-1.46,3.31l-2,29.41,1.38.09,1.59-23.61h11a2.46,2.46,0,0,1,1.81.73,2.4,2.4,0,0,1,.73,1.76v15.39a2.5,2.5,0,0,1-2.54,2.54h-3.7v1.38h3.7a3.82,3.82,0,0,0,3.91-3.91V159a3.69,3.69,0,0,0-1.12-2.71,3.81,3.81,0,0,0-2.8-1.16H372.2l.3-4.43a3.52,3.52,0,0,1,1-2.36,3.09,3.09,0,0,1,2.32-1h15.35a113.48,113.48,0,0,0,7.09,21.16,53.37,53.37,0,0,1-8.47,7.18l.82,1.16a57.07,57.07,0,0,0,8.3-7,59,59,0,0,0,6.32,10.36l1-.82a57.44,57.44,0,0,1-6.36-10.62,42.78,42.78,0,0,0,6.49-9.63Z"/><path class="cls-2" d="M448.36,152.27H434.73a79.49,79.49,0,0,0,2.75-10.58l-1.38-.26a75.61,75.61,0,0,1-2.84,10.84H416.58v1.38h16.21a76.94,76.94,0,0,1-14.45,25.07l1,.9a80,80,0,0,0,14.88-26h14.1a3.31,3.31,0,0,1,2.37.95,3.23,3.23,0,0,1,1,2.37v17.93a3.38,3.38,0,0,1-3.35,3.35h-9.8v1.38h9.8a4.52,4.52,0,0,0,3.31-1.37,4.59,4.59,0,0,0,1.42-3.35V157a4.45,4.45,0,0,0-1.42-3.31A4.51,4.51,0,0,0,448.36,152.27Z"/><rect class="cls-2" x="422.08" y="141.78" width="1.38" height="6.49"/><rect class="cls-2" x="440.32" y="162.25" width="1.38" height="7.01"/><rect class="cls-2" x="462.59" y="158.64" width="38.57" height="1.38"/><polygon class="cls-2" points="518.66 143.89 525.67 143.37 525.59 142 509.98 143.11 510.06 144.49 517.29 143.97 517.29 149.56 509.42 149.56 509.42 150.94 517.29 150.94 517.29 180.05 518.66 180.05 518.66 150.94 526.23 150.94 526.23 149.56 518.66 149.56 518.66 143.89"/><path class="cls-2" d="M511.78,156.74q0,14.83-2,22.83l1.38.3q2-8.17,2-23.13v-2.58h-1.38Z"/><path class="cls-2" d="M544.07,147.8h-4.43v-7.48h-1.38v7.48h-4.43a4,4,0,0,0-3.1,1.42,4.77,4.77,0,0,0-1.29,3.31v14.1a4.73,4.73,0,0,0,1.29,3.35,4.09,4.09,0,0,0,3.1,1.38h4.43v9.25h1.38v-9.25h4.43a4,4,0,0,0,3.05-1.37,4.73,4.73,0,0,0,1.29-3.35v-14.1a4.77,4.77,0,0,0-1.29-3.31A4,4,0,0,0,544.07,147.8ZM538.27,170h-4.43a2.82,2.82,0,0,1-2.15-1,3.48,3.48,0,0,1-.86-2.37v-14.1a3.48,3.48,0,0,1,.86-2.36,2.82,2.82,0,0,1,2.15-1h4.43Zm8.77-3.35a3.48,3.48,0,0,1-.86,2.37,2.69,2.69,0,0,1-2.11,1h-4.43V149.18h4.43a2.69,2.69,0,0,1,2.11,1,3.48,3.48,0,0,1,.86,2.36Z"/><rect class="cls-2" x="523.56" y="154.16" width="1.38" height="25.46"/><path class="cls-2" d="M589.83,143.24H557.4v1.38h32.42a3.14,3.14,0,0,1,2.37,1,3.21,3.21,0,0,1,.95,2.36v26.57a3.21,3.21,0,0,1-.95,2.36,3.14,3.14,0,0,1-2.37,1h-7.74v1.38h7.74a4.43,4.43,0,0,0,3.31-1.37,4.57,4.57,0,0,0,1.38-3.35V148a4.52,4.52,0,0,0-1.38-3.31A4.45,4.45,0,0,0,589.83,143.24Z"/><rect class="cls-2" x="559.17" y="154.51" width="24.34" height="1.38"/><path class="cls-2" d="M583.12,163.75A78.09,78.09,0,0,1,559,173.39l.34,1.38a79,79,0,0,0,24.51-9.89Z"/><path class="cls-2" d="M639.92,148.7v-4.17a3.08,3.08,0,0,0-3.1-3.1H622.12a3.08,3.08,0,0,0-3.1,3.1v4.17h-2.75V150H619v4a3.08,3.08,0,0,0,3.1,3.1h14.71a3.08,3.08,0,0,0,3.1-3.1v-4h2.79V148.7Zm-11.14,7.05h-6.67A1.52,1.52,0,0,1,620.4,154v-4h8.38Zm0-7.05H620.4v-4.17a1.52,1.52,0,0,1,1.72-1.72h6.67Zm9.76,5.33a1.52,1.52,0,0,1-1.72,1.72h-6.67V150h8.39Zm0-5.33h-8.39v-5.89h6.67a1.52,1.52,0,0,1,1.72,1.72Z"/><path class="cls-2" d="M641,173.13v-8.94a3.89,3.89,0,0,0-3.91-3.91H621.9a3.9,3.9,0,0,0-2.79,1.16,3.86,3.86,0,0,0-1.16,2.75v8.94h1.38v-8.94a2.57,2.57,0,0,1,2.58-2.54H637a2.46,2.46,0,0,1,1.81.73,2.55,2.55,0,0,1,.73,1.81v8.94Z"/><path class="cls-2" d="M630.42,163.84l-1.38-.09a18.1,18.1,0,0,1-2.62,8.86q-3,4.47-9.85,6.19l.3,1.33q9.2-2.45,12-9.07l12.51,9.33.77-1.12-12.81-9.59A23.86,23.86,0,0,0,630.42,163.84Z"/><rect class="cls-2" x="603.29" y="145.22" width="1.38" height="30.53"/><polygon class="cls-2" points="611.07 140.32 609.69 140.32 609.69 180.65 611.07 180.65 611.07 156.14 616.1 156.14 616.1 154.77 611.07 154.77 611.07 140.32"/></g>
<g class="cls-3" id="_phone_"><line id="_路径_" data-name="&lt;路径&gt;" class="cls-4" x1="533.66" y1="873.71" x2="244.39" y2="873.71"/><path id="_路径_2" data-name="&lt;路径&gt;" class="cls-4" d="M133.64,534.68l16.75-111A59.53,59.53,0,0,1,209.26,373H540.74a59.53,59.53,0,0,1,58.86,50.64l17.22,114.09"/><path id="_路径_3" data-name="&lt;路径&gt;" class="cls-4" d="M149.34,430.69C88.4,460.1-13.6,572.16-33.09,623.37s-70.5,462.19-70.5,462.19,198,42,348,15c0,0,18-70.5,9-177s-96-142.49-96-142.49,18-123,25.5-157.71-6-100.28-49.25-88.7S77.9,640.09,0,731.58"/><line id="_路径_4" data-name="&lt;路径&gt;" class="cls-4" x1="244.39" y1="1100.56" x2="244.39" y2="1142.56"/><path id="_路径_5" data-name="&lt;路径&gt;" class="cls-4" d="M556.72,831.73c-102.6.77-338.51-1.15-338.51-1.15"/><polyline id="_路径_6" data-name="&lt;路径&gt;" class="cls-4" points="177.21 561.44 189 405 557 405 610.86 781 160.65 781 164.27 733.02"/><rect id="_矩形_" data-name="&lt;矩形&gt;" class="cls-4" x="334.67" y="385.67" width="61.1" height="10" rx="5" ry="5"/><ellipse id="_路径_7" data-name="&lt;路径&gt;" class="cls-4" cx="385.76" cy="801.03" rx="34" ry="13.33"/><path id="_路径_8" data-name="&lt;路径&gt;" class="cls-4" d="M89,614c16-3,56-.25,64,9.37,7.65-46.37,23-85-10-88.7S89,614,89,614Z"/><path id="_路径_9" data-name="&lt;路径&gt;" class="cls-4" d="M600.66,430.69C661.6,460.1,789.54,572.16,809,623.37s70.5,462.19,70.5,462.19-198,42-348,15c0,0-18-70.5-9-177s96-142.49,96-142.49-18-123-25.5-157.71,6-100.28,49.25-88.7S698,640.09,775.94,731.58"/><line id="_路径_10" data-name="&lt;路径&gt;" class="cls-4" x1="531.55" y1="1100.56" x2="531.55" y2="1142.56"/><path id="_路径_11" data-name="&lt;路径&gt;" class="cls-4" d="M686.94,614c-16-3-56-.25-64,9.37-7.65-46.37-23-85,10-88.7S686.94,614,686.94,614Z"/><ellipse id="_路径_12" data-name="&lt;路径&gt;" class="cls-4" cx="381" cy="466.5" rx="77" ry="28.5"/><path id="_路径_13" data-name="&lt;路径&gt;" class="cls-4" d="M326.33,455.41s28-11.74,29-11.74S381,461,381,461v25l-59-9Z"/><polyline id="_路径_14" data-name="&lt;路径&gt;" class="cls-4" points="355.33 443.67 413 445.33 443 459.67 443 480 381 486"/><line id="_路径_15" data-name="&lt;路径&gt;" class="cls-4" x1="381" y1="461" x2="428.67" y2="461"/></g>
</svg>
