<?xml version="1.0" encoding="utf-8"?>
<!-- Generator: Adobe Illustrator 21.1.0, SVG Export Plug-In . SVG Version: 6.00 Build 0)  -->
<svg version="1.1" id="图层_1" xmlns="http://www.w3.org/2000/svg" xmlns:xlink="http://www.w3.org/1999/xlink" x="0px" y="0px"
	 viewBox="0 0 841.9 595.3" style="enable-background:new 0 0 841.9 595.3;" xml:space="preserve">
<g id="蜘蛛">
	<g>
		<g>
			<g>
				<path d="M567.9,469.4c0,0-5.4,9.8-5,28.5c0,0-5,7.1-25.7,11c0,0-16.8-0.2-20,6.3c0,0,14.1-5.6,18.5-3.5c0,0,7.4,1.8,24.3-6.2
					c0,0,9.4-3.1,9.7-11.6c0,0-1.3-20.8,2-22.9L567.9,469.4z"/>
			</g>
			<g>
				<path d="M575.8,474c0,0,0.2,22.5,30.6,45.4l11.4,10c0,0,26.3,8.8,27.7,11.7c0,0-15.2-12.2-22.7-12.6c0,0-8.5-7.9-13.5-11.9
					c0,0-29.6-26.2-24.6-35.3C584.8,481.3,581.3,471.1,575.8,474z"/>
			</g>
			<g>
				<path d="M562.2,467.8c-11.3,0.3-32.7-12.9-32.7-12.9c-2.2-3-21.3-14.5-21.3-14.5l22.4,20.6l40.3,18.7c5,1.1,3.6-5.7,3.6-5.7
					L562.2,467.8z"/>
			</g>
			<g>
				<path d="M557.9,460.9c0,0-19.1,0.2-3.8,12.9c0,0,1.7,6.5,8.7,9c0,0-10.8,1.6-10.8,3.6l-6.6,1.2l-2.8,0.5l-6.8,2l-6.3,1.4
					c0,0-12.2-6.2-16.5-1.4c0,0,8.1,0.9,15.3,4.5l2.4,0.7c0,0,30.5-6.7,34.6-7.1c0,0,13.3,2.5,4.2-10.1L557.9,460.9z"/>
			</g>
		</g>
		<g>
			<g>
				<path d="M575.6,451c-3.6-10.8-23.1-26.5-23.1-26.5c-3.6-1.1-20.9-15.2-20.9-15.2l26.9,14.1l31.1,31.6c2.8,4.4-4.2,5.3-4.2,5.3
					L575.6,451z"/>
			</g>
			<g>
				<path d="M577,454.4c0,0,7.4-8.4,25.2-14.3c0,0,5-7.1,1.7-27.9c0,0-5.9-15.8-0.8-20.9c0,0-0.5,15.2,2.9,18.6
					c0,0,4.2,6.4,2.3,24.9c0,0,0.3,9.9-7.7,13c0,0-20.1,5.8-20.8,9.6L577,454.4z"/>
			</g>
			<g>
				<path d="M583.3,461.3c0,0,21.2-7.4,53.1,13.6l13.2,7.4c0,0,17.2,21.8,20.3,22.1c0,0-16.6-10.2-19.5-17.1c0,0-10.3-5.3-15.7-8.7
					c0,0-34.6-19.1-41.6-11.3C593.2,467.3,582.4,467.5,583.3,461.3z"/>
			</g>
			<g>
				<path d="M567.6,449.2c0,0-6.2-18,10.9-7.9c0,0,6.7-0.6,11.4,5.1c0,0-2.1-10.7-0.3-11.3l-1.1-6.6l-0.5-2.8l-0.4-7.1l-0.8-6.4
					c0,0-9.9-9.4-6.9-15c0,0,3.6,7.4,9.4,12.9l1.5,2c0,0,3.9,30.9,4.9,35c0,0,6.9,11.6-8.1,7.4L567.6,449.2z"/>
			</g>
		</g>
		<g>
			<g>
				<path d="M618,493.8c2-30.1-29.5-29.5-29.5-29.5c-3.3-14-26.3-18.5-26.3-18.5c-8.6-7.5-8-2-8-2l-2.1,5.1l1-1"/>
			</g>
			<g>
				<path d="M553.4,446.9l-4.1,3.7c0,0-5.3,1.3,4.6,6.9c0,0,12,20.1,26.3,18.5c0,0,7.7,30.3,37.7,17.8"/>
			</g>
		</g>
		<g>
			<path d="M575.6,451"/>
		</g>
		<g>
			<g>
				<ellipse transform="matrix(0.5762 -0.8173 0.8173 0.5762 -139.2007 692.5806)" cx="598.2" cy="480.5" rx="5.9" ry="16"/>
			</g>
			<g>
				<ellipse transform="matrix(0.5762 -0.8173 0.8173 0.5762 -134.4886 664.6644)" cx="573.7" cy="462" rx="4.2" ry="5.9"/>
			</g>
			<g>
				<ellipse transform="matrix(0.5762 -0.8173 0.8173 0.5762 -133.0309 649.9282)" cx="560.2" cy="453.2" rx="2.5" ry="5.9"/>
			</g>
		</g>
		<g>
			<ellipse transform="matrix(0.5762 -0.8173 0.8173 0.5762 -140.0882 699.5814)" cx="604.5" cy="484.9" rx="2" ry="5.5"/>
		</g>
		<g>
			<ellipse transform="matrix(0.5762 -0.8173 0.8173 0.5762 -134.8192 667.3855)" cx="576.1" cy="463.7" rx="1.4" ry="2"/>
		</g>
		<g>
			<ellipse transform="matrix(0.5762 -0.8173 0.8173 0.5762 -133.2649 651.8319)" cx="561.9" cy="454.4" rx="0.9" ry="2"/>
		</g>
		<g>
			<path d="M556.9,467.2c0.9,6.5,7,10.2,10.2,15.4c0.1,0.2,0.4,0.3,0.6,0.2c0.2-0.1,0.3-0.3,0.2-0.6
				C564.8,476.7,558.8,473.5,556.9,467.2C556.9,467.2,556.9,467.2,556.9,467.2C556.9,467.2,556.8,467.2,556.9,467.2L556.9,467.2z"/>
		</g>
		<g>
			<path d="M564.4,492.7c0.6,1.5,1.4,3.7-0.1,5.1c-0.1,0.1,0,0.2,0.1,0.3c0.1,0,0.2,0,0.3-0.1C566,496.5,565.6,494.2,564.4,492.7
				L564.4,492.7L564.4,492.7L564.4,492.7z"/>
		</g>
		<g>
			<path d="M582.8,490.3c2.3,5.8,6.7,10.3,10.3,15.2c0,0.1,0.2,0.1,0.2,0c0.1-0.1,0.1-0.2,0-0.3C590,500.2,585.5,496,582.8,490.3
				L582.8,490.3L582.8,490.3L582.8,490.3z"/>
		</g>
		<g>
			<path d="M526.4,455.7c2.1,3.8,6.2,6.4,10.6,6.4c0.1,0,0.2-0.1,0.3-0.2c0-0.1-0.1-0.2-0.2-0.2
				C532.7,461.6,529.1,458.9,526.4,455.7L526.4,455.7L526.4,455.7L526.4,455.7z"/>
		</g>
		<g>
			<path d="M554.7,457.8c0,0-12.2,3.5-10.2-4.8c0,0-2.3-8.4-5.6,0.4c0,0-1.3,5.9,17.1,6.7l4.2-0.4L554.7,457.8z M541.1,454.4
				c-0.6-0.4-0.7-1.2-0.3-1.8c0.4-0.6,1.2-0.7,1.8-0.3c0.6,0.4,0.7,1.2,0.3,1.8C542.4,454.7,541.6,454.8,541.1,454.4z"/>
		</g>
		<g>
			<path d="M572.3,445.4c6.4-1.3,12,3.1,18,4.4c0.2,0,0.4,0.2,0.4,0.5c0,0.2-0.2,0.4-0.5,0.3C583.9,449.7,578.8,445.1,572.3,445.4
				C572.2,445.5,572.2,445.4,572.3,445.4C572.2,445.4,572.2,445.4,572.3,445.4L572.3,445.4z"/>
		</g>
		<g>
			<path d="M598.8,444c1.6,0.1,4,0.1,4.7-1.8c0.1-0.1,0.2-0.1,0.3,0c0.1,0.1,0.1,0.2,0,0.3C602.9,444.2,600.6,444.6,598.8,444
				L598.8,444L598.8,444L598.8,444z"/>
		</g>
		<g>
			<path d="M602.7,462.1c6.2,0.2,11.9,2.9,17.8,4.6c0.1,0,0.1,0.1,0.1,0.2c0,0.1-0.2,0.2-0.3,0.1
				C614.4,465.5,608.9,462.7,602.7,462.1L602.7,462.1L602.7,462.1L602.7,462.1z"/>
		</g>
		<g>
			<path d="M551.1,420.6c4.3,0.7,8.2,3.7,9.6,7.8c0,0.1,0,0.2-0.1,0.3c-0.1,0-0.2,0-0.3-0.1C558.9,424.5,555.1,422,551.1,420.6
				L551.1,420.6L551.1,420.6L551.1,420.6z"/>
		</g>
		<g>
			<path d="M553.7,433.1c-7.2,6.1,1.5,5.4,1.5,5.4c7.2-4.7,7.9,8,7.9,8l3.6,4.5l-1-4.1C558.8,430,553.7,433.1,553.7,433.1z
				 M555.2,436.6c-0.4,0.6-1.2,0.7-1.8,0.3c-0.6-0.4-0.7-1.2-0.3-1.8c0.4-0.6,1.2-0.7,1.8-0.3C555.4,435.2,555.6,436,555.2,436.6z"
				/>
		</g>
	</g>
	<g>
		<g>
			<path d="M323.1,410.4c-0.6,0-1.2-0.1-1.7-0.2c-2.8-0.7-4.9-2.9-5.5-5.7c-1.5-3.2-12.5-14.4-32.2-28.7
				c-20-14.5-33.7-21.4-37.2-21.7c-2.2,0.2-4.3-0.5-5.9-2c-1.7-1.6-2.5-3.9-2.2-6.1c2.1-18.9-5.7-80.6-12.2-87.9
				c-2.3-1.8-3.3-4.7-2.7-7.5c0.7-2.8,2.9-4.9,5.7-5.5c3.3-1.4,14.5-12.4,28.9-32.1c14.6-20,21.4-33.8,21.5-37.3
				c-0.4-2.9,1-5.7,3.4-7.2c2.4-1.5,5.5-1.4,7.8,0.1c3.3,1.3,19.1,1.4,43.1-2.3c24.5-3.8,39-8.7,41.6-11.1c1.8-2.3,4.7-3.3,7.5-2.7
				c2.8,0.7,4.9,2.9,5.5,5.7c1.5,3.5,13.3,15.6,31.9,29.4c21.2,15.8,34.1,21.3,37.3,21c2.9-0.5,5.8,0.9,7.4,3.4
				c1.5,2.4,1.4,5.5-0.1,7.9c-1.3,3.3-1.5,19.1,2.3,43.1c3.8,24.5,8.8,39,11.1,41.6c2.3,1.8,3.3,4.7,2.7,7.5c-0.7,2.9-3.1,5.1-6,5.6
				c-3,0.7-13.6,9.8-28.8,31.6c-13,18.7-20.7,34.1-21.3,38c0.2,2.8-1.1,5.4-3.5,6.9c-2.5,1.6-5.8,1.4-8.2-0.3
				c-2.9-1.7-18.6-2.5-43,1.4c-24.3,3.9-39,9.5-41.4,12.1C327.6,409.3,325.4,410.4,323.1,410.4z M315.9,404.7L315.9,404.7
				L315.9,404.7L315.9,404.7z M315.8,404.2C315.8,404.2,315.8,404.2,315.8,404.2C315.8,404.2,315.8,404.2,315.8,404.2z M253.1,340.8
				c11,3.7,26.6,14,39.2,23.2c11.9,8.6,25.5,19.5,32.8,28.5c11.5-5.9,30.5-9.7,42.7-11.7c12.2-2,31.6-4.3,44.4-2.2
				c4.6-12,15.3-28.4,20.8-36.3c8.7-12.6,20.1-27.3,30.1-34.6c-4.9-10.7-8.4-28-10.7-42.6c-1.9-12-4.2-30.8-2.8-43.2
				c-11.7-3.7-27-14-39.1-23.1c-7.9-5.9-23.7-18.4-31.8-28.7c-10.7,5-28.3,8.6-43.1,10.8c-12.1,1.9-31,4.1-43.3,2.8
				c-3.9,11.1-13.9,26.2-22.8,38.3c-7.3,9.9-19.1,25-28.9,32.8C249.7,275,253.2,321.6,253.1,340.8z M424.9,386.8
				C424.9,386.8,424.9,386.8,424.9,386.8C424.9,386.8,424.9,386.8,424.9,386.8z M246.7,354.1C246.7,354.1,246.7,354.1,246.7,354.1
				C246.7,354.1,246.7,354.1,246.7,354.1z M478.1,304.5C478.1,304.5,478.2,304.5,478.1,304.5C478.2,304.5,478.1,304.5,478.1,304.5z
				 M226.1,258.2C226.2,258.2,226.2,258.2,226.1,258.2C226.2,258.2,226.2,258.2,226.1,258.2z M229.4,245
				C229.4,245,229.4,245,229.4,245C229.4,245,229.4,245,229.4,245z M464.7,220.2C464.7,220.2,464.7,220.2,464.7,220.2
				C464.7,220.2,464.7,220.2,464.7,220.2z M279.4,175.9C279.4,175.9,279.4,175.9,279.4,175.9C279.4,175.9,279.4,175.9,279.4,175.9z
				 M291,168.8C291,168.8,291,168.8,291,168.8C291,168.8,291,168.8,291,168.8z M388.5,158.6C388.5,158.6,388.5,158.6,388.5,158.6
				C388.5,158.6,388.5,158.6,388.5,158.6z M375.3,155.3C375.3,155.4,375.3,155.4,375.3,155.3C375.3,155.4,375.3,155.4,375.3,155.3z"
				/>
		</g>
		<g>
			<path d="M337.3,354.6c-0.6,0-1.1-0.1-1.7-0.2c-2.5-0.6-4.5-2.5-5.3-4.9c-3.5-5.3-26.4-21.9-32.4-23.5c-1.9,0-3.8-0.7-5.2-2
				c-1.7-1.6-2.5-3.9-2.2-6.1c0.9-8.3-2.4-36.8-5.4-42c-1.9-1.8-2.7-4.5-2.1-7.1c0.6-2.6,2.5-4.6,5-5.3c5.6-3.6,22-26.1,23.5-32.2
				c-0.1-2.6,1.2-5.2,3.5-6.6c2.2-1.4,5-1.4,7.2-0.3c6.5,1.4,34.1-2.9,39.4-6.2c1.8-1.9,4.5-2.8,7.1-2.1c2.6,0.6,4.6,2.5,5.3,5
				c3.4,5.4,25.6,22.4,31.9,23.5c2.7-0.2,5.4,1.1,6.9,3.5c1.4,2.2,1.4,5,0.2,7.3c-1.4,6.4,2.9,34,6.2,39.4c1.9,1.8,2.8,4.5,2.1,7.1
				c-0.7,2.7-2.8,4.8-5.5,5.5c-5.4,2.8-21.3,26-23,32.4c0,2.5-1.3,4.9-3.5,6.2c-2.4,1.5-5.3,1.4-7.7,0c-6.1-1.9-33.6,2.5-38.8,6.2
				C341.5,353.7,339.4,354.6,337.3,354.6z M343.3,351.6C343.3,351.6,343.3,351.6,343.3,351.6C343.3,351.6,343.3,351.6,343.3,351.6z
				 M330.1,348.4C330.1,348.5,330.1,348.5,330.1,348.4C330.1,348.5,330.1,348.5,330.1,348.4z M392.8,338.5
				C392.8,338.5,392.8,338.5,392.8,338.5C392.8,338.5,392.8,338.5,392.8,338.5z M305.2,313.1c4.1,1.8,10,5.1,18.6,11.4
				c7.7,5.6,12.5,9.9,15.6,13.1c4.9-2,11.7-3.8,20.3-5.1c8.7-1.4,15.7-1.9,21-1.4c2-4.5,5.3-10.1,9.9-16.7
				c5.9-8.6,10.5-13.7,13.9-16.8c-1.5-4.2-3.2-10.5-4.6-20c-1.5-9.4-1.8-15.8-1.7-20.2c-4.2-1.8-10.1-5.2-18.3-11.3
				c-6.7-5-11.7-9.4-15.1-13.2c-4.2,1.6-10.6,3.2-20.4,4.7c-9.5,1.5-15.9,1.8-20.3,1.7c-1.8,4.1-5.2,9.8-11.1,17.9
				c-5.8,7.9-10.1,12.7-13.4,15.7C303.6,284.2,305,303,305.2,313.1z M285.8,276.4C285.8,276.4,285.8,276.4,285.8,276.4
				C285.8,276.4,285.8,276.4,285.8,276.4z M284.9,275.5L284.9,275.5L284.9,275.5z M289,263.1C288.9,263.1,288.9,263.1,289,263.1
				C288.9,263.1,288.9,263.1,289,263.1z M412.5,256.2C412.5,256.2,412.5,256.2,412.5,256.2C412.5,256.2,412.5,256.2,412.5,256.2z
				 M311.5,232C311.5,232,311.5,232,311.5,232C311.5,232,311.5,232,311.5,232z M323.1,224.9C323.1,224.9,323.1,224.9,323.1,224.9
				C323.1,224.9,323.1,224.9,323.1,224.9z M374.3,222C374.3,222,374.3,222,374.3,222C374.3,222,374.3,222,374.3,222z M361,218.9
				C361,218.9,361,218.9,361,218.9C361,218.9,361,218.9,361,218.9z"/>
		</g>
		<g>
			<path d="M315.4,467.6c-0.5,0-1,0-1.5-0.2c-2.9-0.6-5.2-2.9-5.7-5.8c-1.3-4.1-18-20.4-49.3-41.7c-31.7-21.6-52.4-30.7-57-30.4
				c-2.3,0.4-4.5-0.2-6.2-1.8c-1.7-1.5-2.6-3.8-2.4-6.1c1-12.1-1.9-43.4-6.4-71.4c-6.7-41.4-13.7-56.2-16.4-58.2
				c-2.5-1.7-3.7-4.7-3.1-7.6c0.6-2.9,2.9-5.2,5.8-5.7c4.3-1.3,20.7-17.9,42.1-49.2c21.7-31.7,30.6-52.4,30-57
				c-0.6-2.9,0.7-5.9,3.2-7.5c2.5-1.6,5.7-1.6,8.2,0.1c3.9,2,27.3,1.8,64.5-5.1c37.8-7,58.7-15.3,61.5-19c1.7-2.5,4.7-3.7,7.6-3.1
				c2.9,0.6,5.1,2.9,5.7,5.7c1.6,4.8,19.2,22.2,48.5,42.7c33.4,23.4,52.8,30.5,57.7,29.5c2.9-0.6,5.9,0.7,7.5,3.2
				c1.6,2.5,1.6,5.7-0.1,8.2c-2.1,3.9-2,27.3,5,64.5c7.1,37.7,15.4,58.7,19.1,61.6c2.5,1.7,3.7,4.7,3.1,7.6
				c-0.6,2.9-2.9,5.2-5.8,5.7c-5,1-20.5,14.8-42.7,48.9c-19,29.2-29.4,52.4-29.4,57.4c0.5,2.9-0.8,5.7-3.2,7.3
				c-2.5,1.6-5.7,1.6-8.2-0.1c-4.3-2.9-27.2-3.8-64.7,3.5c-37.1,7.1-58.5,16.5-61.3,20.6C320.1,466.4,317.8,467.6,315.4,467.6z
				 M208.2,375.8c16.5,4.1,43,21,59.2,32.1c12.6,8.6,38.6,27.1,49.9,41.3c16.9-10.4,51-17.6,62.7-19.9c14.9-2.9,47.2-8.2,65.9-4.7
				c5.7-18.7,24.6-48.5,29.1-55.5c10.5-16.2,28.3-41.7,43.5-52.3c-8.5-15.3-14.9-44.4-18.3-62.8c-2.8-14.8-7.9-46.2-5.8-64.3
				c-17.8-4.2-43.7-21-59.3-32c-9.6-6.7-36.9-26.6-48.4-41.6c-15.2,8.6-44.8,15.1-63.5,18.5c-14.9,2.8-46.5,7.9-64.4,5.7
				c-4.6,16.9-20.9,42.4-31.7,58.1c-8.6,12.5-27.3,38.5-41.6,49.6c4.4,8.2,10.1,24.7,15.8,59.3C205.5,332.7,208.2,360,208.2,375.8z
				 M458.9,432.8C458.9,432.9,459,432.9,458.9,432.8C459,432.9,458.9,432.9,458.9,432.8z M396.1,103.8L396.1,103.8L396.1,103.8z"/>
		</g>
		<g>
			<path d="M467.9,442.6L251.5,112.9c-1.5-2.2-4.5-2.9-6.8-1.4l-6.9,4.5c-2.2,1.5-2.9,4.5-1.4,6.8l216.4,329.7
				c1.5,2.2,4.5,2.9,6.8,1.4l6.9-4.5C468.7,447.9,469.3,444.9,467.9,442.6z"/>
		</g>
		<g>
			<path d="M320.9,477.6L401,91.5c0.5-2.6-1.2-5.2-3.8-5.8l-8-1.7c-2.6-0.5-5.2,1.2-5.8,3.8L303.3,474c-0.5,2.6,1.2,5.2,3.8,5.8
				l8,1.7C317.7,482,320.3,480.3,320.9,477.6z"/>
		</g>
		<g>
			<path d="M192.2,398.4l329.7-216.4c2.2-1.5,2.9-4.5,1.4-6.8l-4.5-6.9c-1.5-2.2-4.5-2.9-6.8-1.4L182.4,383.4
				c-2.2,1.5-2.9,4.5-1.4,6.8l4.5,6.9C186.9,399.3,190,399.9,192.2,398.4z"/>
		</g>
		<g>
			<path d="M157.3,251.5l386.1,80.1c2.6,0.5,5.2-1.2,5.8-3.8l1.7-8c0.5-2.6-1.2-5.2-3.8-5.8l-386.1-80.1c-2.6-0.5-5.2,1.2-5.8,3.8
				l-1.7,8C152.9,248.3,154.6,250.9,157.3,251.5z"/>
		</g>
	</g>
</g>
</svg>
