<?xml version="1.0" encoding="UTF-8" standalone="no"?>
<svg
   xmlns:dc="http://purl.org/dc/elements/1.1/"
   xmlns:cc="http://creativecommons.org/ns#"
   xmlns:rdf="http://www.w3.org/1999/02/22-rdf-syntax-ns#"
   xmlns:svg="http://www.w3.org/2000/svg"
   xmlns="http://www.w3.org/2000/svg"
   xmlns:xlink="http://www.w3.org/1999/xlink"
   xml:space="preserve"
   enable-background="new 0 0 1280 800"
   viewBox="0 0 600.00001 200.00001"
   height="200"
   width="600"
   y="0px"
   x="0px"
   id="图层_1"
   version="1.1"><metadata
     id="metadata234"><rdf:RDF><cc:Work
         rdf:about=""><dc:format>image/svg+xml</dc:format><dc:type
           rdf:resource="http://purl.org/dc/dcmitype/StillImage" /><dc:title></dc:title></cc:Work></rdf:RDF></metadata><defs
     id="defs232" /><image
     xlink:href="屏幕快照 2017-08-12 17.28.52.png"
     display="none"
     overflow="visible"
     width="961.70203"
     height="829.96198"
     id="image223"
     style="display:none;overflow:visible"
     x="-284.88275"
     y="233.8968" /><image
     xlink:href="805B7048834EDF28.png"
     display="none"
     overflow="visible"
     width="1265"
     height="652"
     id="image225"
     style="display:none;overflow:visible"
     x="-450.63968"
     y="-305.61682" /><path
     style="fill:none;stroke:#b79955;stroke-miterlimit:10"
     id="path227"
     d="m 375.55056,47.254783 c 6.63,0 10.039,8.522 4.547,14.392 -5.501,5.880996 -23.86,2.272 -21.588,-14.392 2.273,-12.877 19.382,-16.319 30.677,-8.332 0,0 22.727,15.149 28.029,18.936 5.3,3.788 29.162,19.505996 33.328,6.169 3.655,-11.694 -21.967,-7.832 -22.726,5.118996 -0.756,12.951 14.014,25.26 31.814,15.982 20.43,-10.649 18.56,-43.555996 -4.545,-48.961996 -31.917,-7.47 -46.963,20.177 -67.415,56.536996 -20.451,36.358011 -44.691,71.203011 -87.109,71.203011 -42.42,0 -66.659,-33.329 -82.566,-58.327 -15.907,-24.996011 -38.633,-73.261007 -62.872,-71.854007 -24.239,1.409 -29.729,20.346 -29.162,31.139996 0.567,10.793 10.987,26.97 28.405,23.86 15.907,-2.84 17.612,-12.498 16.476,-22.156 -1.137,-9.657996 -19.295,-13.396996 -22.725,-5.680996 -2.272,5.112996 2.841,18.747996 31.814,-2.273 26.303,-19.082 52.267,-32.381 60.22,-13.065 2.841,10.793 -3.409,19.882996 -13.067,19.882996 -8.521,0 -15.906,-9.089996 -6.568,-17.659996"
     stroke-miterlimit="10" /></svg>