<?xml version="1.0" encoding="UTF-8" standalone="no"?>
<svg
   xmlns:dc="http://purl.org/dc/elements/1.1/"
   xmlns:cc="http://creativecommons.org/ns#"
   xmlns:rdf="http://www.w3.org/1999/02/22-rdf-syntax-ns#"
   xmlns:svg="http://www.w3.org/2000/svg"
   xmlns="http://www.w3.org/2000/svg"
   id="svg35"
   version="1.1"
   viewBox="0 0 105.93947 112.67783"
   height="112.67783mm"
   width="105.93948mm">
  <defs
     id="defs29" />
  <metadata
     id="metadata32">
    <rdf:RDF>
      <cc:Work
         rdf:about="">
        <dc:format>image/svg+xml</dc:format>
        <dc:type
           rdf:resource="http://purl.org/dc/dcmitype/StillImage" />
        <dc:title></dc:title>
      </cc:Work>
    </rdf:RDF>
  </metadata>
  <g
     transform="translate(0,-4.3221747)"
     id="layer1" />
  <path
     id="path12"
     d="m 74.144135,28.404711 c 1.379008,-0.376237 5.265472,0.501386 4.513262,4.387586 -1.003035,6.143095 -12.536487,6.519333 -13.41411,-3.259138 -0.877623,-9.778471 16.297539,-16.046715 22.064395,-4.638411 5.7666,11.40804 -0.25082,24.445913 -14.291731,24.06994 C 58.975043,48.588715 53.70957,40.564961 51.704028,30.410782 49.698487,20.256338 55.46508,1.3261893 74.269812,0.19774134 93.074542,-0.93044266 102.35164,12.734234 104.73368,23.766301 107.11546,34.798367 105.98701,43.699215 96.835332,53.85392 77.278389,71.78103 52.080266,57.36415 42.05097,51.47188 32.021674,45.579609 0.09017012,15.835415 0.09017012,15.835415"
     stroke-miterlimit="10"
     style="fill:none;stroke:#e1b340;stroke-width:0.26458332;stroke-miterlimit:10" />
  <path
     id="path10"
     d="m 0.08645871,21.111182 c 0,0 32.18206329,27.788128 39.70390329,41.453063 7.52184,13.664674 7.898077,20.434304 6.769365,29.837064 C 45.431808,101.80354 33.271293,119.60524 10.830923,109.57621 -6.8456243,98.794955 0.53889671,78.861789 11.959107,75.727799 c 0,0 17.174897,-5.51604 21.437334,9.77847 1.864519,6.69131 -2.343944,13.773406 -7.898076,15.419911 -7.141369,2.11641 -15.8585953,-4.137025 -11.150865,-12.283011 0,0 3.629025,-4.64132 8.706115,-1.75789 2.068512,1.19062 0.75221,2.88316 0.06271,3.19669 -0.689239,0.31353 -3.948906,-0.12541 -2.005541,-6.95775 1.065477,-3.19696 4.512997,-9.90388 13.288432,-13.3514 8.7757,-3.44752 19.243675,-2.75802 25.261358,-1.19116 6.017416,1.56713 16.297276,6.33095 18.114966,19.68236 1.81821,13.351401 -7.9547,17.048961 -12.85822,17.048961 -3.376352,0 -13.09,-2.89957 -10.574871,-13.556731 1.435894,-6.08382 9.580301,-7.75467 9.580301,-7.75467"
     stroke-miterlimit="10"
     style="fill:none;stroke:#e1b340;stroke-width:0.26458332;stroke-miterlimit:10" />
</svg>
