<?xml version="1.0" encoding="utf-8"?>
<!-- Generator: Adobe Illustrator 16.0.4, SVG Export Plug-In . SVG Version: 6.00 Build 0)  -->
<!DOCTYPE svg PUBLIC "-//W3C//DTD SVG 1.1//EN" "http://www.w3.org/Graphics/SVG/1.1/DTD/svg11.dtd">
<svg version="1.1" id="图层_1" xmlns="http://www.w3.org/2000/svg" xmlns:xlink="http://www.w3.org/1999/xlink" x="0px" y="0px"
	 width="1280px" height="800px" viewBox="0 0 1280 800" enable-background="new 0 0 1280 800" xml:space="preserve">
<path fill="none" stroke="#E1B340" stroke-miterlimit="10" d="M-24.663,80.609c0,0,121.633,105.026,150.062,156.673
	c28.429,51.646,29.851,77.232,25.585,112.77c-4.263,35.536-50.224,102.818-135.038,64.913
	c-66.809-40.748-38.899-116.086,4.264-127.931c0,0,64.913-20.848,81.023,36.958c7.047,25.29-8.859,52.057-29.851,58.28
	c-26.991,7.999-59.938-15.636-42.145-46.424c0,0,13.716-17.542,32.905-6.644c7.818,4.5,2.843,10.897,0.237,12.082
	c-2.605,1.185-14.925-0.474-7.58-26.297c4.027-12.083,17.057-37.432,50.224-50.462c33.168-13.03,72.732-10.424,95.476-4.502
	c22.743,5.923,61.596,23.928,68.466,74.39c6.872,50.462-30.065,64.437-48.598,64.437c-12.761,0-49.474-10.959-39.968-51.238
	c5.427-22.994,36.209-29.309,36.209-29.309"/>
<path fill="none" stroke="#E1B340" stroke-miterlimit="10" d="M255.226,117.407c5.212-1.422,19.901,1.895,17.058,16.583
	c-3.791,23.218-47.382,24.64-50.699-12.318c-3.317-36.958,61.597-60.649,83.393-17.531c21.795,43.117-0.948,92.394-54.016,90.973
	c-53.068-1.421-72.969-31.747-80.549-70.125c-7.58-38.379,14.215-109.926,85.288-114.191
	c71.073-4.264,106.136,47.382,115.139,89.078c9.002,41.696,4.737,75.337-29.852,113.717
	c-73.916,67.756-169.153,13.267-207.059-9.003C96.023,182.32-24.663,69.901-24.663,69.901"/>
<path fill="none" stroke="#E1B340" stroke-miterlimit="10" d="M1304.664,79.785c0,0-121.35,105.851-149.779,157.498
	c-28.43,51.646-29.852,77.232-25.586,112.77c4.266,35.536,50.225,102.818,135.039,64.913
	c66.809-40.748,38.898-116.086-4.264-127.931c0,0-64.914-20.848-81.023,36.958c-7.049,25.29,8.857,52.057,29.85,58.28
	c26.992,7.999,59.939-15.636,42.145-46.424c0,0-13.713-17.542-32.904-6.644c-7.818,4.5-2.842,10.897-0.236,12.082
	c2.604,1.185,14.924-0.474,7.58-26.297c-4.025-12.083-17.057-37.432-50.225-50.462s-72.732-10.424-95.475-4.502
	c-22.744,5.923-61.598,23.928-68.467,74.39c-6.871,50.462,37.43,62.308,46.436,62.781c9.002,0.474,55.096-4.345,41.459-52.831
	c-6.398-22.744-35.539-26.06-35.539-26.06"/>
<path fill="none" stroke="#E1B340" stroke-miterlimit="10" d="M1304.664,68.253c0,0-120.402,114.066-158.309,136.335
	c-37.902,22.27-133.143,76.759-207.057,9.003c-34.592-38.379-38.857-72.021-29.854-113.717
	c9.004-41.696,50.484-89.326,115.141-89.078c71.199,0.272,92.867,75.812,85.287,114.191c-7.582,38.378-27.482,68.704-80.551,70.125
	c-53.066,1.421-77.437-56.296-54.016-90.973c26.263-38.885,86.711-19.427,83.393,17.531c-3.316,36.958-46.906,35.536-50.697,12.318
	c-2.844-14.688,11.846-18.004,17.057-16.583"/>
<image display="none" overflow="visible" width="1022" height="882" xlink:href="屏幕快照 2017-08-12 17.28.52.png"  transform="matrix(0.941 0 0 0.941 180.6924 593.6738)">
</image>
<image display="none" overflow="visible" width="2530" height="1304" xlink:href="FE67D90465435D23.png"  transform="matrix(0.5 0 0 0.5 14.9355 54.1602)">
</image>
</svg>
